<?xml version="1.0" encoding="UTF-8" standalone="no"?>
<!-- Created with Inkscape (http://www.inkscape.org/) -->

<svg
   width="87.954514"
   height="115.70223"
   viewBox="0 0 87.954514 115.70223"
   version="1.1"
   id="svg1"
   xmlns:inkscape="http://www.inkscape.org/namespaces/inkscape"
   xmlns:sodipodi="http://sodipodi.sourceforge.net/DTD/sodipodi-0.dtd"
   xmlns="http://www.w3.org/2000/svg"
   xmlns:svg="http://www.w3.org/2000/svg">
  <sodipodi:namedview
     id="namedview1"
     pagecolor="#ffffff"
     bordercolor="#000000"
     borderopacity="1"
     inkscape:showpageshadow="false"
     inkscape:pageopacity="0"
     inkscape:pagecheckerboard="0"
     inkscape:deskcolor="#565656"
     inkscape:document-units="px"
     inkscape:zoom="0.4944234"
     inkscape:cx="48.541392"
     inkscape:cy="27.304533"
     inkscape:window-width="1600"
     inkscape:window-height="773"
     inkscape:window-x="0"
     inkscape:window-y="0"
     inkscape:window-maximized="1"
     inkscape:current-layer="layer1" />
  <defs
     id="defs1">
    <clipPath
       clipPathUnits="userSpaceOnUse"
       id="clipPath335">
      <path
         d="M 0,0 H 1921 V 2242 H 0 Z"
         id="path335" />
    </clipPath>
  </defs>
  <g
     inkscape:label="Layer 1"
     inkscape:groupmode="layer"
     id="layer1"
     transform="translate(-348,-533.00002)">
    <g
       id="g336"
       style="display:inline"
       inkscape:label="Bird Icon"
       transform="matrix(1.0005171,0,0,0.99393069,-457.8113,-1075.6825)">
      <path
         d="m 615.918,1286.957 c 0,-0.016 0.008,-0.023 0.008,-0.035 -0.051,-0.059 -0.098,-0.113 -0.149,-0.18 -0.078,-0.109 -0.117,-0.246 -0.097,-0.379 0.554,-3.984 1.781,-6.687 3.722,-8.261 -2.543,-1.477 -4.964,-2.516 -7.535,-3.223 l -2.617,9.601 c 2.418,1.059 5.094,2.309 6.641,3.047 0,-0.191 0.007,-0.39 0.027,-0.57 m 38.156,5.922 -8.047,-3.266 c -0.011,0 -0.019,-0.011 -0.035,-0.015 -0.008,0 -0.015,0 -0.023,0 -2.883,-1.578 -5.813,-2.961 -7.676,-2.348 -0.711,0.238 -1.238,0.754 -1.625,1.586 -1.356,1.996 -2.137,4.215 -2.5,7.055 -0.016,0.133 -0.086,0.258 -0.195,0.347 -0.344,0.27 -0.711,0.407 -1.078,0.465 0.011,0.153 0.039,0.297 0.07,0.438 l 5.312,3.515 30.621,-0.558 -14.824,-7.215 z m -38.523,-70.973 c 0.652,0 1.179,-0.527 1.179,-1.176 0,-0.648 -0.527,-1.175 -1.179,-1.175 -0.649,0 -1.176,0.527 -1.176,1.175 0,0.649 0.527,1.176 1.176,1.176 m 7.508,55.653 c 0.269,-0.153 0.613,-0.059 0.773,0.207 0.156,0.269 0.063,0.609 -0.203,0.773 -2.027,1.184 -3.379,2.469 -4.129,3.961 0.055,0.059 0.102,0.137 0.129,0.219 0.16,0.601 0.348,0.761 0.418,0.801 0.008,0 0.027,0.019 0.051,0.023 1.593,-2.539 3.23,-3.961 5.004,-4.359 1.429,-0.309 2.953,0.058 4.523,1.105 l 2.441,1.141 c -0.148,-0.371 -0.527,-1.055 -1.484,-2.219 -0.016,-0.02 -0.02,-0.047 -0.035,-0.063 -0.828,-0.347 -1.555,-0.988 -1.965,-1.394 -0.043,0 -0.086,0 -0.125,-0.012 -3.266,-0.93 -5.766,-0.785 -7.648,0.442 -2.075,1.351 -3.434,4.121 -4.047,8.234 0.32,0.379 0.64,0.566 1,0.648 -0.676,-5.257 2.449,-7.839 5.297,-9.507 m -15.141,-49.102 c 0.02,0.043 0.047,0.082 0.062,0.125 0.047,-0.332 0.094,-0.648 0.149,-0.937 -0.156,0.117 -0.313,0.234 -0.469,0.332 0.098,0.175 0.18,0.332 0.258,0.48 m 27.531,10.313 c -0.031,1.375 -0.297,2.593 -0.812,3.679 -0.129,0.274 -0.453,0.391 -0.731,0.278 -0.054,-0.028 -0.105,-0.055 -0.144,-0.09 -0.254,-0.203 -2.524,-1.891 -2.754,-2.028 -0.594,-0.32 -1.309,-0.379 -1.805,-0.152 -0.336,0.152 -0.555,0.434 -0.644,0.84 -0.129,0.539 -0.02,1.137 0.093,1.773 l 0.047,0.258 c 0.528,3.039 0.731,7.125 -1.285,9.344 -0.707,0.773 -1.402,0.969 -2.055,1.027 1.172,3.332 2.301,6.496 6.016,7.863 -0.727,-1.05 -1.301,-2.207 -1.496,-3.445 0.648,1.688 1.941,2.922 3.293,4.004 l 0.133,0.106 c 2.468,1.992 5.203,4.171 7.027,4.761 -0.699,-0.797 -1.277,-1.691 -1.621,-2.656 0.844,1.254 2.031,2.164 3.316,2.801 h 0.008 c 1.336,0.781 3.02,1.762 4.274,2.164 -0.469,-0.727 -0.793,-1.516 -1.047,-2.293 0.707,1.055 1.586,2.031 2.609,2.519 l 1.359,0.567 c 2.856,1.195 6.407,2.68 7.528,2.047 0.078,-0.047 0.168,-0.125 0.234,-0.27 -1.035,-0.648 -1.762,-1.637 -2.164,-2.66 0.777,0.977 1.813,1.684 2.91,1.859 0.696,0.028 1.45,0.075 2.203,0.129 1.7,0.117 4.539,0.313 4.871,-0.187 0.012,-0.028 0,-0.125 -0.074,-0.289 -3.5,-3.821 -7.179,-8.34 -10.894,-13.188 -7.672,-9.273 -16.156,-19.121 -18.395,-18.761 m -0.054,-1.594 c 0.019,0.179 0.015,0.344 0.027,0.519 1.82,0 4.902,2.641 9.195,7.328 -1.84,-2.57 -3.66,-5.148 -5.441,-7.687 -1.281,0.207 -2.535,0.148 -3.781,-0.16 m -21.825,-16.504 c 0,1.066 0.891,1.949 1.981,1.949 1.094,0 1.984,-0.883 1.984,-1.949 0,-1.07 -0.89,-1.953 -1.984,-1.953 -1.09,0 -1.981,0.883 -1.981,1.953 m -3.879,18.289 c 1.36,-4.527 1.016,-5.52 0.118,-7.328 -0.254,-0.52 -0.547,-1.113 -0.832,-1.934 0.211,-1.89 0.617,-4.461 1.761,-5.531 0.149,-0.141 0.211,-0.352 0.16,-0.551 -0.468,-1.855 -1.421,-3.797 -2.945,-6.07 1.512,-3.215 5.008,-4.328 10.414,-3.293 5.383,1.027 10.258,3.758 13.727,7.68 1.859,2.097 3.156,4.347 3.863,6.668 0.836,2.753 1.734,5.398 3.461,7.558 -1.535,0.301 -3.02,0.199 -4.508,-0.305 -0.183,-0.062 -0.39,-0.031 -0.539,0.102 -0.152,0.125 -0.226,0.32 -0.195,0.516 0.281,1.863 0.195,3.437 -0.262,4.777 -0.918,-0.797 -2.336,-1.621 -2.359,-1.637 -0.914,-0.488 -1.993,-0.558 -2.813,-0.187 -0.66,0.297 -1.101,0.851 -1.273,1.597 -0.18,0.774 -0.047,1.516 0.082,2.235 l 0.043,0.254 c 0.398,2.285 0.797,6.418 -1.008,8.394 -0.582,0.637 -1.082,0.664 -1.77,0.68 -0.132,-0.074 -0.296,-0.094 -0.453,-0.039 -0.043,0.012 -0.07,0.039 -0.105,0.062 -0.344,0.02 -0.707,0.067 -1.102,0.207 -0.379,0.133 -0.644,0.407 -0.808,0.598 -0.629,0.742 -0.989,1.68 -1.008,2.637 l -0.004,0.125 c 0,0.133 -0.004,0.254 -0.027,0.328 -0.297,0.883 -2.692,0.719 -4.293,0.262 -0.235,-0.059 -0.473,0.019 -0.614,0.207 -0.136,0.195 -0.14,0.453 -0.007,0.648 0.511,0.742 0.707,1.703 0.89,2.629 0.133,0.637 0.266,1.293 0.215,1.918 -0.027,0.355 -0.18,0.918 -0.27,1.144 -0.156,-0.16 -0.355,-0.437 -0.445,-0.558 -0.086,-0.113 -0.16,-0.215 -0.215,-0.277 l -0.511,-0.59 c -0.524,-0.602 -1.055,-1.203 -1.567,-1.825 -1.117,-1.339 -2.535,-3.148 -3.601,-5.203 -2.262,-4.343 -2.664,-9.714 -1.203,-15.898 z m -2.398,-20.379 c -3.563,4.348 -4.18,7.723 -1.918,11.539 -0.105,-0.851 -0.105,-1.668 0.008,-2.43 0.027,-0.183 0.148,-0.343 0.312,-0.421 0.164,-0.082 0.364,-0.075 0.524,0.019 0.437,0.242 1.691,-0.902 2.101,-1.277 0.071,-0.063 0.153,-0.11 0.239,-0.129 0.308,-0.988 0.691,-1.731 1.171,-2.278 -0.429,-1.539 -1.218,-3.156 -2.437,-5.023 m 27.355,65.477 -2.382,-1.297 -3.196,-1.496 c -1.398,-0.926 -2.601,-1.231 -3.73,-0.985 -1.508,0.328 -2.953,1.668 -4.426,4.074 -0.074,0.125 -0.191,0.211 -0.32,0.247 -0.149,0.05 -0.301,0.074 -0.442,0.074 -0.054,0 -0.101,-0.016 -0.152,-0.024 -0.098,0.77 0.23,1.125 0.555,1.356 0.226,0.156 0.304,0.449 0.191,0.703 -0.094,0.199 -0.297,0.32 -0.508,0.32 -0.05,0 -0.101,-0.01 -0.152,-0.019 -0.633,-0.18 -1.024,-0.532 -1.277,-0.938 0.023,0.477 0.078,0.973 0.175,1.488 0.032,0.165 -0.011,0.329 -0.113,0.461 -0.105,0.129 -0.262,0.207 -0.422,0.207 h -0.144 c -0.149,0 -0.317,0 -0.481,-0.027 0.106,0.746 0.516,1.254 1.289,1.586 0.149,-0.039 0.301,-0.031 0.438,0.055 l 0.66,0.402 c 3.766,2.27 7.621,4.586 9.902,5.867 -0.066,-0.566 0.09,-1.343 0.41,-2.347 -0.07,-0.012 -0.14,-0.02 -0.203,-0.051 -0.91,-0.578 -1.761,-1.684 -0.789,-3.692 -0.008,-0.035 -0.027,-0.062 -0.043,-0.101 -0.035,-0.082 -0.043,-0.172 -0.031,-0.262 0.231,-1.863 2.336,-3.726 5.191,-5.601 m 33.02,-9.446 c 0.77,0.492 1.559,0.957 2.344,1.434 -1.403,-1.289 -2.86,-2.746 -4.348,-4.332 -0.258,0.316 -0.66,0.515 -1.223,0.629 1.036,0.797 2.118,1.554 3.227,2.269 m -35.5,21.571 c 0.012,0 0.016,0.01 0.023,0.011 0.297,0 0.539,-0.05 0.762,-0.175 0.422,-3.086 1.309,-5.524 2.766,-7.661 0.492,-1.086 1.301,-1.859 2.351,-2.207 2.004,-0.652 4.578,0.239 7.785,1.891 -0.398,-0.758 -1.039,-1.66 -1.996,-2.801 -0.015,-0.027 -0.031,-0.058 -0.047,-0.09 -0.062,-0.054 -0.121,-0.113 -0.156,-0.191 -0.742,-1.488 -2.105,-2.324 -4.133,-2.539 -0.914,0.523 -1.972,1.133 -3.046,1.797 -0.008,0.051 -0.016,0.109 -0.047,0.16 -0.106,0.191 -0.301,0.297 -0.496,0.297 -0.039,0 -0.09,-0.024 -0.129,-0.035 -2.52,1.609 -4.903,3.457 -5.211,5.019 0.254,0.625 0.492,0.809 0.617,0.86 0.047,0.015 0.184,0.074 0.48,-0.063 0.036,-0.016 0.075,-0.016 0.106,-0.023 0.086,-0.211 0.172,-0.407 0.262,-0.625 0.367,-0.887 0.742,-1.793 1.093,-2.696 0.114,-0.289 0.438,-0.429 0.727,-0.32 0.289,0.109 0.437,0.434 0.316,0.727 -0.351,0.91 -0.73,1.828 -1.105,2.722 -0.867,2.09 -2.035,4.895 -1.895,5.75 0.371,0.121 0.684,0.184 0.953,0.192 0.008,0.01 0.016,0 0.02,0 m -1.398,-4.629 c -0.204,0.332 -0.161,0.609 0.144,1.097 0.117,-0.308 0.246,-0.636 0.387,-0.984 -0.18,-0.012 -0.36,-0.035 -0.528,-0.106 0,0 0,-0.01 -0.003,-0.01 m 36.621,-16.453 c -1.571,-0.786 -3.125,-1.614 -4.614,-2.622 -0.007,0 -0.011,-0.011 -0.023,-0.015 -0.816,0 -1.777,-0.067 -2.891,-0.141 -0.601,-0.043 -1.207,-0.082 -1.785,-0.105 -0.019,0.047 -0.043,0.086 -0.066,0.129 0.05,0.015 0.109,0.031 0.16,0.054 l 10.328,3.243 c -0.371,-0.188 -0.742,-0.364 -1.109,-0.543 m -48.77,-12.829 c 0.063,-0.785 -0.086,-1.515 -0.23,-2.234 -0.125,-0.613 -0.258,-1.273 -0.5,-1.922 1.5,0.258 3.929,0.391 4.484,-1.234 0.082,-0.246 0.086,-0.485 0.09,-0.789 0.015,-0.699 0.285,-1.403 0.742,-1.93 0.125,-0.148 0.234,-0.242 0.32,-0.269 0.223,-0.079 0.442,-0.118 0.661,-0.137 l 0.097,0.289 c 1.363,3.871 2.774,7.879 8.289,9.043 l 0.028,0.023 c 3.527,2.836 6.878,5.539 9.058,5.117 2.445,1.422 4.434,2.485 5.824,2.383 0.039,0.016 0.075,0.024 0.114,0.028 l 1.191,0.496 c 2.875,1.203 5.445,2.277 7.203,2.277 0.387,0 0.723,-0.074 1.024,-0.187 0.007,0 0.007,0 0.007,0 l 0.457,0.145 10.071,24.609 -6.481,-3.156 c -1.562,-1.656 -3.015,-3.437 -4.175,-5.426 0.593,1.555 1.371,3.047 2.25,4.485 l -3.055,-1.492 c -0.016,-0.016 -0.02,-0.036 -0.035,-0.051 -1.575,-1.403 -3.309,-3.028 -4.989,-4.61 -1.015,-0.953 -2.031,-1.914 -3.019,-2.828 -0.078,-0.074 -0.176,-0.121 -0.285,-0.14 l -3.239,-0.551 c -0.957,-1.703 -2.625,-2.672 -4.961,-2.91 -0.074,-0.016 -0.152,-0.028 -0.238,-0.016 -0.191,-0.016 -0.379,-0.035 -0.578,-0.039 -1.805,-0.02 -3.691,-0.988 -5.949,-3.062 -0.184,-0.172 -0.461,-0.204 -0.672,-0.063 -0.953,0.578 -2.566,-0.914 -3.07,-1.508 -4.926,-5.332 -10.305,-11.461 -10.719,-12.469 -0.004,-0.128 -0.055,-0.242 -0.133,-0.339 0.344,-0.641 0.418,-1.485 0.418,-1.536"
         style="fill:#110f0d;fill-opacity:1;fill-rule:nonzero;stroke:none"
         transform="scale(1.3333333)"
         clip-path="url(#clipPath335)"
         id="path336" />
    </g>
  </g>
</svg>
