<?xml version="1.0" encoding="UTF-8" standalone="no"?>
<!-- Created with Inkscape (http://www.inkscape.org/) -->

<svg
   width="80"
   height="116"
   viewBox="0 0 80 116"
   version="1.1"
   id="svg1"
   inkscape:export-filename="bird-icon.svg"
   inkscape:export-xdpi="96"
   inkscape:export-ydpi="96"
   xmlns:inkscape="http://www.inkscape.org/namespaces/inkscape"
   xmlns:sodipodi="http://sodipodi.sourceforge.net/DTD/sodipodi-0.dtd"
   xmlns="http://www.w3.org/2000/svg"
   xmlns:svg="http://www.w3.org/2000/svg">
  <sodipodi:namedview
     id="namedview1"
     pagecolor="#ffffff"
     bordercolor="#000000"
     borderopacity="1"
     inkscape:showpageshadow="false"
     inkscape:pageopacity="0"
     inkscape:pagecheckerboard="0"
     inkscape:deskcolor="#565656"
     inkscape:document-units="px"
     inkscape:zoom="0.4944234"
     inkscape:cx="48.541392"
     inkscape:cy="27.304533"
     inkscape:window-width="1600"
     inkscape:window-height="773"
     inkscape:window-x="0"
     inkscape:window-y="0"
     inkscape:window-maximized="1"
     inkscape:current-layer="layer1" />
  <defs
     id="defs1">
    <clipPath
       clipPathUnits="userSpaceOnUse"
       id="clipPath236">
      <path
         d="M 0,0 H 1921 V 2242 H 0 Z"
         id="path236" />
    </clipPath>
    <clipPath
       clipPathUnits="userSpaceOnUse"
       id="clipPath238">
      <path
         d="M 0,0 H 1921 V 2242 H 0 Z"
         id="path238" />
    </clipPath>
    <clipPath
       clipPathUnits="userSpaceOnUse"
       id="clipPath234">
      <path
         d="M 0,0 H 1921 V 2242 H 0 Z"
         id="path234" />
    </clipPath>
    <clipPath
       clipPathUnits="userSpaceOnUse"
       id="clipPath232">
      <path
         d="M 0,0 H 1921 V 2242 H 0 Z"
         id="path232" />
    </clipPath>
  </defs>
  <g
     inkscape:label="Layer 1"
     inkscape:groupmode="layer"
     id="layer1"
     transform="translate(-351.74832,-532.82327)">
    <g
       id="g237"
       inkscape:label="Cat Icon"
       style="display:inline"
       transform="matrix(0.99430959,0,0,0.99952082,-1023.6023,-1084.6763)">
      <g
         id="g574">
        <path
           d="m 1055.176,1232.797 c 0,0 -0.028,-0.024 -0.035,-0.035 -0.164,-0.184 -0.192,-0.524 -0.192,-0.762 0,-0.305 0.063,-0.602 0.153,-0.887 0.343,-1.09 1.054,-2.211 2.101,-2.734 1.137,-0.555 2.703,-0.563 3.668,0.336 0.969,0.898 0.68,2.488 -0.101,3.437 -0.883,1.082 -2.375,1.34 -3.7,1.196 -0.363,-0.039 -0.722,-0.114 -1.07,-0.219 -0.164,-0.047 -0.32,-0.102 -0.48,-0.172 -0.102,-0.047 -0.239,-0.086 -0.34,-0.164 v 0 z m -1.672,3.488 c -0.035,0.098 -0.106,0.207 -0.227,0.328 -0.257,0.254 -0.519,0.492 -0.742,0.789 -0.105,0.145 -0.207,0.305 -0.308,0.461 -0.059,0.086 -0.161,0.367 -0.282,0.285 -0.101,-0.078 -0.168,-0.296 -0.242,-0.406 -0.09,-0.148 -0.183,-0.297 -0.293,-0.433 -0.203,-0.274 -0.441,-0.5 -0.699,-0.715 -0.246,-0.196 -0.352,-0.469 -0.066,-0.68 0.199,-0.144 0.445,-0.168 0.675,-0.176 0.211,-0.011 0.426,-0.031 0.637,-0.035 0.285,-0.01 0.574,-0.012 0.859,0.024 0.457,0.05 0.789,0.238 0.688,0.562 v 0 z m -4.899,-3.582 c -0.113,0.207 -0.378,0.317 -0.589,0.383 -0.582,0.191 -1.235,0.269 -1.836,0.277 -1.094,0.032 -2.2,-0.293 -2.895,-1.179 -0.469,-0.59 -0.711,-1.364 -0.648,-2.114 0.062,-0.703 0.394,-1.375 1.011,-1.75 0.352,-0.215 0.766,-0.304 1.176,-0.32 0.09,0 0.473,-0.043 0.512,0.07 0.031,0.09 -0.285,0.262 -0.356,0.317 -0.433,0.375 -0.679,0.914 -0.75,1.472 -0.066,0.563 0.04,1.051 0.305,1.528 0.324,0.593 0.914,1.039 1.625,0.851 0.711,-0.183 1.223,-0.875 1.363,-1.578 0.079,-0.394 0.039,-0.812 -0.121,-1.183 -0.09,-0.227 -0.226,-0.434 -0.379,-0.618 -0.078,-0.097 -0.168,-0.187 -0.261,-0.269 -0.078,-0.067 -0.301,-0.192 -0.313,-0.301 1.414,0.207 2.313,2.477 2.285,3.699 0,0.219 -0.027,0.453 -0.101,0.66 0,0.024 -0.016,0.036 -0.024,0.055 v 0 z m -2.785,-3.406 c 0.059,-0.199 0.211,-0.406 0.403,-0.496 0.121,-0.063 0.261,-0.074 0.402,-0.051 0.277,0.055 0.52,0.289 0.602,0.562 0.043,0.149 0.043,0.317 0.01,0.469 -0.054,0.176 -0.148,0.352 -0.296,0.453 -0.122,0.102 -0.274,0.137 -0.426,0.121 -0.153,-0.019 -0.289,-0.089 -0.41,-0.187 -0.118,-0.102 -0.223,-0.234 -0.27,-0.383 -0.047,-0.144 -0.055,-0.324 -0.012,-0.484 v 0 z m 45.516,31.539 c -2.156,-2.758 -4.66,-5.375 -5.641,-8.793 -0.519,-1.82 -0.468,-3.734 0.547,-5.371 0.949,-1.551 2.594,-2.668 4.418,-2.817 1.824,-0.156 3.922,0.629 5.422,1.762 0.234,0.172 0.465,0.41 0.742,0.492 0.367,0.11 0.395,-0.242 0.379,-0.523 -0.043,-0.832 -0.316,-1.695 -0.711,-2.438 -1.441,-2.683 -4.637,-4.492 -7.648,-4.546 -2.219,-0.032 -4.41,0.859 -6.071,2.3 -2.964,2.555 -4.097,6.715 -3.492,10.504 0.348,2.254 1.297,4.387 2.485,6.332 1.265,2.078 2.886,3.848 4.425,5.719 2.871,3.508 5.192,7.676 5.793,12.227 0.567,4.355 -0.593,8.929 -3.234,12.457 -0.68,0.91 -1.457,1.746 -2.32,2.476 -0.403,0.344 -0.828,0.649 -1.254,0.953 -0.332,0.246 -0.738,0.598 -1.16,0.625 -0.524,0.039 -0.204,-0.543 -0.118,-0.82 0.204,-0.66 0.391,-1.336 0.54,-2.016 0.289,-1.261 0.484,-2.543 0.613,-3.828 0.922,-9.519 -1.692,-19.793 -8.063,-27.066 -1.574,-1.797 -3.367,-3.434 -5.367,-4.742 -1.898,-1.243 -3.961,-2.285 -5.433,-4.055 -1.465,-1.77 -2.243,-3.879 -2.942,-6.008 -0.195,-0.574 -0.379,-1.144 -0.558,-1.715 -0.172,-0.507 -0.29,-1.144 -0.583,-1.593 -0.285,-0.418 -0.707,0 -0.984,0.195 -0.496,0.359 -1,0.703 -1.519,1.008 -0.969,0.578 -2.055,1.183 -3.149,1.468 0.731,-0.425 1.531,-0.738 2.274,-1.148 0.742,-0.414 1.445,-0.875 2.121,-1.379 1.304,-0.961 2.519,-2.07 3.523,-3.351 0.484,-0.614 0.906,-1.274 1.281,-1.957 0.352,-0.645 0.692,-1.325 0.817,-2.051 0.121,-0.731 -0.082,-1.407 -0.516,-2.032 -0.433,-0.628 -0.933,-1.273 -1.348,-1.957 -0.875,-1.492 -1.226,-3.066 -1.117,-4.789 0.102,-1.726 0.496,-3.492 0.633,-5.25 0.125,-1.644 0.164,-3.332 -0.059,-4.972 -0.101,-0.77 -0.71,-0.332 -1.128,-0.032 -0.657,0.473 -1.34,0.907 -1.989,1.395 -1.371,1.047 -2.648,2.211 -3.824,3.48 -0.285,0.309 -0.574,0.629 -0.851,0.954 -0.211,0.246 -0.422,0.515 -0.75,0.597 -0.368,0.094 -0.766,-0.027 -1.133,-0.078 -0.43,-0.062 -0.864,-0.078 -1.297,-0.094 -0.922,-0.027 -1.84,0 -2.758,0.01 -0.387,0 -0.781,0.016 -1.172,0.016 -0.387,0 -0.719,0 -1.012,-0.25 -0.23,-0.203 -0.418,-0.465 -0.628,-0.692 -0.305,-0.316 -0.61,-0.621 -0.922,-0.929 -0.594,-0.594 -1.215,-1.168 -1.848,-1.711 -1.07,-0.922 -2.223,-1.742 -3.41,-2.512 -0.266,-0.176 -0.86,-0.609 -1.195,-0.426 -0.211,0.121 -0.235,0.485 -0.254,0.703 -0.039,0.375 -0.067,0.758 -0.098,1.137 -0.152,1.813 -0.02,3.633 0.215,5.434 0.238,1.797 0.699,3.437 0.324,5.175 -0.344,1.602 -1.156,3.106 -2.133,4.407 -0.426,0.566 -0.836,1.156 -0.777,1.898 0.062,0.813 0.527,1.551 0.91,2.246 1.543,2.903 3.871,5.364 6.805,6.903 0.332,0.172 0.683,0.316 1.035,0.472 0.34,0.153 0.766,0.278 1.023,0.532 -0.851,-0.067 -1.507,-0.864 -2.32,-1.04 -0.652,-0.14 -0.805,0.649 -0.957,1.106 -0.633,1.902 -1.289,3.758 -1.711,5.723 -0.863,4.035 -0.906,8.211 -0.227,12.273 0.34,2.035 0.864,4.039 1.543,5.98 0.672,1.95 1.516,3.657 2.329,5.473 1.613,3.613 2.82,7.481 3.32,11.418 0.246,2.035 0.23,4.047 0.094,6.09 -0.051,0.75 -0.11,1.648 -0.704,2.191 -0.531,0.485 -1.296,0.559 -1.945,0.786 -1.469,0.503 -2.32,1.988 -2.031,3.511 0.125,0.692 0.516,1.313 1.152,1.629 0.282,0.137 0.871,0.379 1.192,0.242 0.242,-0.113 0.234,-0.449 0.265,-0.683 0.11,-0.84 0.434,-1.625 1,-2.262 0.578,-0.637 1.43,-0.957 2.262,-1.223 0.336,-0.105 0.731,-0.175 0.953,-0.472 0.278,-0.375 0.418,-0.903 0.57,-1.332 0.332,-0.946 0.582,-1.918 0.778,-2.899 0.832,-4.09 1.062,-8.297 1.191,-12.457 0.02,-0.527 0.031,-1.054 0.043,-1.582 0.016,-0.351 0.125,-0.82 -0.113,-1.129 -0.188,-0.25 -0.598,-0.351 -0.879,-0.449 -0.422,-0.148 -0.801,-0.355 -1.176,-0.586 -1.644,-1 -3.074,-2.371 -4.289,-3.848 -2.25,-2.73 -3.762,-6.035 -4.394,-9.515 -0.172,-0.957 -0.395,-1.996 -0.332,-2.973 0.132,0.469 0.171,0.965 0.265,1.442 0.106,0.554 0.231,1.105 0.367,1.648 0.266,1.004 0.594,1.992 1.004,2.945 0.805,1.875 1.899,3.625 3.176,5.211 1.281,1.59 2.879,2.996 4.41,4.418 0.242,0.223 1.746,1.739 1.992,1.164 0.102,-0.246 0.016,-0.593 0,-0.843 -0.039,-0.457 -0.035,-0.922 -0.058,-1.383 -0.067,-1.27 -0.188,-2.528 -0.36,-3.782 -0.074,-0.589 -0.167,-1.175 -0.265,-1.753 -0.059,-0.321 -0.113,-0.641 -0.176,-0.95 -0.047,-0.234 -0.168,-0.523 -0.129,-0.761 0.317,0.125 0.383,0.988 0.418,1.261 0.086,0.602 0.207,1.207 0.309,1.809 0.25,1.445 0.418,2.902 0.515,4.359 0.211,2.977 0.196,5.965 0,8.938 -0.191,2.973 -0.55,5.879 -1.117,8.777 -0.258,1.301 -0.465,2.707 -1.004,3.938 -0.207,0.492 -0.519,0.824 -1.027,1.015 -0.649,0.246 -1.328,0.422 -1.914,0.797 -0.887,0.551 -1.508,1.469 -1.52,2.528 0,1.003 0.582,1.789 1.5,2.152 1.125,0.441 2.539,0.367 3.715,0.262 1.18,-0.106 2.297,-0.329 3.145,-1.125 0.433,-0.403 0.703,-0.907 0.922,-1.446 0.273,-0.664 0.546,-1.324 0.824,-1.98 0.281,-0.656 0.543,-1.274 0.801,-1.91 0.121,-0.305 0.238,-0.602 0.347,-0.911 0.121,-0.332 0.301,-0.695 0.332,-1.05 0.051,-0.586 -0.461,-1.067 -0.738,-1.535 -0.348,-0.571 -0.641,-1.168 -0.887,-1.789 -0.472,-1.239 -0.734,-2.555 -0.722,-3.883 0.019,-2.778 1.277,-5.418 3.105,-7.461 0.988,-1.106 2.156,-2.059 3.422,-2.832 0.641,-0.391 1.305,-0.731 1.98,-1.035 0.262,-0.118 0.516,-0.247 0.782,-0.36 0.207,-0.094 0.656,-0.332 0.886,-0.242 -0.386,0.336 -0.964,0.535 -1.418,0.758 -0.558,0.258 -1.113,0.519 -1.632,0.851 -0.911,0.578 -1.758,1.27 -2.508,2.043 -1.481,1.524 -2.621,3.403 -3.18,5.457 -1.059,3.926 0.207,8.168 2.852,11.196 0.379,0.433 0.773,0.863 1.218,1.215 0.481,0.386 1.028,0.585 1.618,0.746 0.519,0.14 1.027,0.3 1.539,0.484 0.386,0.145 1.14,0.34 1.359,0.719 -0.316,0.062 -0.742,-0.258 -1.035,-0.367 -0.535,-0.2 -1.074,-0.372 -1.625,-0.516 -1.02,-0.27 -2.086,-0.438 -3.137,-0.32 -1.472,0.164 -3.008,0.937 -3.586,2.363 -0.285,0.691 -0.344,1.547 -0.027,2.238 0.371,0.793 1.183,1.149 1.996,1.32 1.004,0.211 2.055,0.176 3.078,0.172 1.02,-0.019 2.121,0.012 3.18,0.012 4.39,0 8.851,-0.402 13.129,-1.414 3.843,-0.906 7.66,-2.316 10.894,-4.625 3.055,-2.18 5.41,-5.219 6.699,-8.746 1.461,-3.965 1.532,-8.336 0.711,-12.445 -0.828,-4.118 -2.476,-7.899 -4.839,-11.254 -0.336,-0.485 -0.696,-0.961 -1.067,-1.43 h 0.01 z"
           style="display:inline;fill:#110f0d;fill-opacity:1;fill-rule:nonzero;stroke:none"
           transform="scale(1.3333333)"
           clip-path="url(#clipPath236)"
           id="path237" />
        <g
           id="g239">
          <path
             d="m 1058.387,1229.191 c 0.117,-0.296 0.383,-0.527 0.715,-0.511 0.785,0.031 0.871,1.172 0.269,1.519 -0.324,0.188 -0.726,0.055 -0.933,-0.242 -0.157,-0.223 -0.157,-0.516 -0.051,-0.766 z m 1.215,2.45 c 0.168,-0.223 0.289,-0.481 0.363,-0.746 0.226,-0.805 0.097,-1.852 -0.531,-2.457 -0.657,-0.637 -1.668,-0.387 -2.215,0.273 -0.485,0.601 -0.614,1.449 -0.399,2.184 0.219,0.73 0.789,1.441 1.586,1.421 0.5,-0.011 0.91,-0.289 1.196,-0.671 v 0 z"
             style="fill:#110f0d;fill-opacity:1;fill-rule:nonzero;stroke:none"
             transform="scale(1.3333333)"
             clip-path="url(#clipPath238)"
             id="path239" />
        </g>
        <g
           id="g235">
          <path
             d="m 1059.422,1291.273 c 0,0 0,0.01 0,0.012 0,-0.015 0.012,-0.027 0.012,-0.039 -0.012,0.012 -0.012,0.02 -0.016,0.031 v 0 z"
             style="fill:#110f0d;fill-opacity:1;fill-rule:nonzero;stroke:none"
             transform="scale(1.3333333)"
             clip-path="url(#clipPath234)"
             id="path235" />
        </g>
        <g
           id="g231">
          <g
             id="g233">
            <path
               d="m 1059.383,1291.375 c -0.223,1.336 -0.809,2.641 -1.231,3.922 0.01,0.031 0.047,0.027 0.118,-0.012 1.164,-0.801 2.371,-1.129 3.769,-1.129 l 0.01,-0.019 c -0.856,-0.891 -1.777,-1.809 -2.504,-2.801 -0.078,-0.09 -0.133,-0.078 -0.16,0.031 v 0.01 z"
               style="fill:#110f0d;fill-opacity:1;fill-rule:nonzero;stroke:none"
               transform="scale(1.3333333)"
               clip-path="url(#clipPath232)"
               id="path233" />
          </g>
        </g>
      </g>
    </g>
  </g>
</svg>
