<?xml version="1.0" encoding="UTF-8" standalone="no"?>
<!-- Created with Inkscape (http://www.inkscape.org/) -->

<svg
   width="125"
   height="115"
   viewBox="0 0 125 115"
   version="1.1"
   id="svg1"
   xmlns="http://www.w3.org/2000/svg"
   xmlns:svg="http://www.w3.org/2000/svg">
  <defs
     id="defs1">
    <clipPath
       clipPathUnits="userSpaceOnUse"
       id="clipPath426">
      <path
         d="M 0,0 H 1921 V 2242 H 0 Z"
         id="path426" />
    </clipPath>
    <clipPath
       clipPathUnits="userSpaceOnUse"
       id="clipPath428">
      <path
         d="M 0,0 H 1921 V 2242 H 0 Z"
         id="path428" />
    </clipPath>
    <clipPath
       clipPathUnits="userSpaceOnUse"
       id="clipPath430">
      <path
         d="M 0,0 H 1921 V 2242 H 0 Z"
         id="path430" />
    </clipPath>
    <clipPath
       clipPathUnits="userSpaceOnUse"
       id="clipPath432">
      <path
         d="M 0,0 H 1921 V 2242 H 0 Z"
         id="path432" />
    </clipPath>
    <clipPath
       clipPathUnits="userSpaceOnUse"
       id="clipPath434">
      <path
         d="M 0,0 H 1921 V 2242 H 0 Z"
         id="path434" />
    </clipPath>
    <clipPath
       clipPathUnits="userSpaceOnUse"
       id="clipPath436">
      <path
         d="M 0,0 H 1921 V 2242 H 0 Z"
         id="path436" />
    </clipPath>
    <clipPath
       clipPathUnits="userSpaceOnUse"
       id="clipPath438">
      <path
         d="M 0,0 H 1921 V 2242 H 0 Z"
         id="path438" />
    </clipPath>
    <clipPath
       clipPathUnits="userSpaceOnUse"
       id="clipPath440">
      <path
         d="M 0,0 H 1921 V 2242 H 0 Z"
         id="path440" />
    </clipPath>
    <clipPath
       clipPathUnits="userSpaceOnUse"
       id="clipPath442">
      <path
         d="M 0,0 H 1921 V 2242 H 0 Z"
         id="path442" />
    </clipPath>
    <clipPath
       clipPathUnits="userSpaceOnUse"
       id="clipPath444">
      <path
         d="M 0,0 H 1921 V 2242 H 0 Z"
         id="path444" />
    </clipPath>
  </defs>
  <g
     id="layer1"
     transform="translate(-64.822917,-87.047913)">
    <g
       id="g573"
       transform="matrix(1.0074323,0,0,1.0001541,-175.3758,-1531.1279)">
      <g
         id="g427">
        <path
           d="m 226.988,1265.707 c -0.156,6.469 1.7,7.961 4.75,12.977 0.903,2.398 -0.539,9.097 -3.101,9.906 l -1.024,0.187 c -1.058,0.125 -3.058,1.797 -1.754,2.731 -0.035,-1.438 1.258,-2.43 2.641,-1.832 -2.414,0.144 -2.758,2.789 0.035,2.383 -0.523,-1.555 1.238,-2.899 2.66,-2.289 -1.187,0 -2.648,1.128 -1.75,2.351 1.141,0.344 2.821,-0.129 3.45,-1.211 0.394,-0.953 0.64,-2.918 0.921,-3.93 0.594,-2.687 2.106,-5.093 2.911,-7.683 -1.039,-3.473 -2.731,-5.899 -0.907,-9.695 0.438,-0.926 1.086,-1.704 1.953,-2.254 l -0.785,-5.586 c -3.828,-1.965 -7.484,1.336 -10,3.945"
           style="fill:#110f0d;fill-opacity:1;fill-rule:nonzero;stroke:none"
           transform="scale(1.3333333)"
           clip-path="url(#clipPath426)"
           id="path427" />
      </g>
      <g
         id="g429">
        <path
           d="m 182.535,1231.988 c -0.531,-0.273 -1.351,-0.203 -1.941,-0.222 l -0.047,0.093 c 0.641,0.149 1.32,0.243 1.973,0.235 z"
           style="fill:#110f0d;fill-opacity:1;fill-rule:nonzero;stroke:none"
           transform="scale(1.3333333)"
           clip-path="url(#clipPath428)"
           id="path429" />
      </g>
      <g
         id="g431">
        <path
           d="m 191.594,1225.914 c -0.735,0.27 -0.262,1.906 0.492,1.285 0.129,-0.422 0.066,-1.238 -0.492,-1.285"
           style="fill:#110f0d;fill-opacity:1;fill-rule:nonzero;stroke:none"
           transform="scale(1.3333333)"
           clip-path="url(#clipPath430)"
           id="path431" />
      </g>
      <g
         id="g433">
        <path
           d="m 200.855,1294.102 c 0.965,-2.375 -1.089,-4.75 1.758,-6.579 -0.816,-2.031 -0.902,-4.199 -0.593,-6.343 l 0.578,-7.965 c -3.149,-1.082 -5.953,-2.77 -8.239,-5.207 0.414,2.265 1.703,4.18 2.426,6.347 1.188,3.586 1.617,7.442 1.695,11.207 0.266,3.18 -0.425,6.028 -3.941,6.7 -0.863,0.465 -2.051,2.633 -0.496,2.968 l 0.055,-0.054 c -0.254,-1.524 1,-3.082 2.617,-2.641 -1.965,0.574 -3.16,3.371 -0.125,3.012 -0.426,-1.414 1.098,-3.25 2.57,-2.469 -1.191,0.152 -2.551,1.473 -1.652,2.652 1.121,0.133 2.715,-0.707 3.347,-1.628"
           style="fill:#110f0d;fill-opacity:1;fill-rule:nonzero;stroke:none"
           transform="scale(1.3333333)"
           clip-path="url(#clipPath432)"
           id="path433" />
      </g>
      <g
         id="g435">
        <path
           d="m 267.203,1246.922 -0.015,-0.039 c 3.765,-1.301 5.195,-5.895 4.535,-9.531 -0.414,1.64 -1.18,3.316 -2.598,4.328 l -0.016,-0.051 c 2.621,-2.367 3.008,-6.774 1.375,-9.809 -0.152,1.539 -0.296,3.184 -1.289,4.442 1.075,-2.223 0.871,-4.645 0.559,-7.012 -0.367,-2.008 -0.293,-4.133 0.953,-5.836 -10.191,5.609 -1.613,14.195 -6.125,21.727 -3.418,5.632 -11.121,5.722 -15.77,1.562 1.286,1.844 2.047,3.953 2.676,6.094 1.422,1.719 3.778,2.742 6.028,2.519 -1.383,-0.507 -2.614,-1.328 -3.215,-2.718 2.492,2.543 6.426,3.257 9.441,1.191 -1.512,0.016 -2.898,-0.137 -4.25,-0.859 3.113,0.769 7.051,0.371 8.731,-2.77 -1.52,0.789 -3.157,0.953 -4.817,0.613 3.93,0.344 7.52,-2.757 7.766,-6.691 -0.902,1.445 -2.277,2.508 -3.969,2.84"
           style="fill:#110f0d;fill-opacity:1;fill-rule:nonzero;stroke:none"
           transform="scale(1.3333333)"
           clip-path="url(#clipPath434)"
           id="path435" />
      </g>
      <g
         id="g437">
        <path
           d="m 181.629,1236.395 c 0.074,-0.68 -0.188,-1.516 -0.117,-2.219 -1.324,-0.321 -1.953,-1.535 -2.332,-2.731 -0.282,1.219 -0.305,2.996 0.398,4.082 0.414,0.657 1.277,1.161 2.051,0.868"
           style="fill:#110f0d;fill-opacity:1;fill-rule:nonzero;stroke:none"
           transform="scale(1.3333333)"
           clip-path="url(#clipPath436)"
           id="path437" />
      </g>
      <g
         id="g439">
        <path
           d="m 184.77,1226.684 c 0.285,-0.325 0.218,-1.059 -0.192,-1.258 l -0.168,0.023 c -0.297,0.348 -0.285,1.363 0.36,1.235"
           style="fill:#110f0d;fill-opacity:1;fill-rule:nonzero;stroke:none"
           transform="scale(1.3333333)"
           clip-path="url(#clipPath438)"
           id="path439" />
      </g>
      <g
         id="g441">
        <path
           d="m 199.223,1225.805 c 2,-1.625 4.468,-3.153 5.922,-5.325 2,-2.808 -2.11,-2.316 -4.457,-4.71 -3.934,-3.762 -5.114,-0.383 -5.504,3.5 -0.145,2.785 -0.563,10.75 4.039,6.535"
           style="fill:#110f0d;fill-opacity:1;fill-rule:nonzero;stroke:none"
           transform="scale(1.3333333)"
           clip-path="url(#clipPath440)"
           id="path441" />
      </g>
      <g
         id="g443">
        <path
           d="m 182.043,1220.918 c 2.566,-2.734 2.602,-3.758 6.551,-5.086 -1.051,-1.191 -2.547,-2.09 -4.114,-2.387 -2.285,-0.023 -2.406,4.356 -3.644,5.879 -0.492,0.977 -1.606,1.938 -2.016,2.953 1.094,0.102 2.395,-0.664 3.223,-1.359"
           style="fill:#110f0d;fill-opacity:1;fill-rule:nonzero;stroke:none"
           transform="scale(1.3333333)"
           clip-path="url(#clipPath442)"
           id="path443" />
      </g>
      <g
         id="g445">
        <path
           d="m 189.434,1222.77 c 0.324,-1.024 1.296,-1.86 2.414,-1.579 1.32,0.313 1.769,1.731 2.398,2.762 -1.445,-1.566 -2.816,-3.047 -4.812,-1.183 m 0.683,5.859 c -1.558,-1.055 -0.351,-4.594 1.629,-3.543 1.899,1.187 0.625,4.75 -1.629,3.543 m -7.316,-5.473 c 0.23,-0.988 0.855,-2.597 2.172,-2.074 0.5,0.293 0.675,0.832 0.828,1.356 -1.324,-1.387 -1.949,-0.016 -3,0.718 m 66.105,47.282 c 0.59,-2.5 1.817,-4.825 2.262,-7.376 2.637,-11.328 -5.59,-24.535 -18.008,-23.718 -8.699,-0.106 -17.305,5.183 -24.972,-1.84 0.113,0.734 0.23,1.527 0.207,2.266 -0.77,-1.489 -1.063,-3.141 -1.512,-4.743 -0.738,-2.281 -2.11,-4.402 -3.496,-6.328 0.175,7.16 -4.344,14.016 -10.891,16.856 l -0.019,-0.035 c 7.496,-4.082 12.007,-12.754 9.746,-21.192 -1.625,1.086 -3.485,3.449 -5.59,3.395 -3.27,-0.77 -2.235,-8.918 -1.649,-11.356 -4.976,-1.371 -11.824,1.227 -12.425,6.891 l 0.105,0.043 c -0.898,1.312 -0.578,3.707 0.039,5.125 l 0.902,-0.645 c -1.628,-0.797 -0.503,-4.273 1.215,-2.906 1.852,2.93 -2.75,4.367 -4.398,5.965 1.168,0.086 3.223,-0.188 3.785,1.066 -0.23,1.035 -1.375,1.942 -2.371,2.239 -0.676,4.558 6.094,3.023 7.836,0.773 1.117,-1.746 1.691,-2.672 3.39,-0.797 -1.617,-1.039 -2.593,0.695 -3.539,1.738 -2.046,1.774 -5.211,2.438 -7.632,1.079 -0.161,0.035 -0.719,0.21 -0.895,0.261 -0.301,0.668 0.871,1.137 1.332,1.356 3.305,1.629 6.086,-0.918 9.133,-1.762 4.957,-0.07 7.867,0.391 8.437,-5.691 0.118,5.738 -2.886,6.488 -7.933,6.168 -1.649,0.402 -3.356,1.214 -4.789,2.128 0.851,2.301 2.359,4.309 4.125,5.989 l -0.047,0.023 c -1.418,-1.16 -2.762,-2.578 -3.703,-4.156 0.289,5.418 2.023,11.336 6.57,14.672 5.625,-2.754 10.086,-7.582 12.891,-13.137 l 0.031,0.055 c -2.383,5.804 -6.852,11.023 -12.891,13.152 -2.324,-1.336 -4.047,-3.406 -5.191,-5.824 -0.395,9.402 4.043,18.933 13.344,22.187 -2.305,-3.363 -3.371,-7.636 -2.825,-11.683 0.09,11.422 6.208,9.699 5.848,21.937 -0.027,2.641 0.317,6.715 -0.129,9.297 -0.301,2.918 -3.465,2.942 -4.695,5.09 -0.527,0.871 -0.106,1.887 0.941,1.969 -0.289,-1.524 0.996,-3.985 2.75,-2.887 -2.496,0.01 -2.953,4.356 0.09,3.484 -0.961,-1.441 0.453,-3.652 2.192,-3.019 -1.223,0.277 -2.539,1.781 -1.34,2.859 4.093,-0.551 2.691,-2.586 3.269,-5.586 0.094,-0.933 0.836,-1.765 1.289,-2.48 -0.554,-3.621 -0.164,-7.313 0.895,-10.817 0.656,-2.312 1.691,-4.691 1.176,-7.14 -0.297,-1.16 -0.743,-2.414 -0.239,-3.582 1.141,-2.356 2.493,-4.969 3.176,-7.531 -0.242,1.925 -0.887,3.828 -1.637,5.613 -0.734,1.441 -1.437,3.008 -0.793,4.605 13.051,-0.843 16.707,-15.023 24.719,-11.488 -0.289,-3.828 -3.715,-6.348 -7.375,-6.535 10.625,-0.266 6.778,11.918 10.828,18.152 2.547,4.692 6.848,4.418 6.555,10.953 -0.121,2.696 -0.73,5.75 -2.418,7.918 -1.109,0.918 -2.98,0.332 -3.711,1.875 -0.516,0.844 -0.535,2.078 0.609,2.344 -0.355,-1.578 0.879,-3.008 2.516,-2.703 -2.262,0.535 -2.91,3.637 0.137,2.949 -0.547,-1.555 0.926,-3.125 2.504,-2.555 -1.188,0.055 -2.668,1.52 -1.539,2.555 1.152,0.379 2.629,-0.25 3.152,-1.355 0.629,-1.43 0.602,-3.559 1.004,-5.071 0.426,-2.257 1.375,-4.691 2.195,-6.851 2.27,-4.875 -3.894,-4.5 -2.543,-12.238"
           style="fill:#110f0d;fill-opacity:1;fill-rule:nonzero;stroke:none"
           transform="scale(1.3333333)"
           clip-path="url(#clipPath444)"
           id="path445" />
      </g>
    </g>
  </g>
</svg>
