<svg xmlns="http://www.w3.org/2000/svg" version="1.1" viewBox="-5.0 -10.0 110.0 135.0">
 <g>
  <path d="m40.578 89.219c-0.26172 1.5352-0.93359 3.0312-1.418 4.5039 0.007813 0.039063 0.054688 0.035156 0.13281-0.011718 1.3398-0.91797 2.7266-1.293 4.332-1.2969l0.011719-0.023437c-0.98438-1.0234-2.0469-2.0781-2.8828-3.2188-0.089844-0.10547-0.14453-0.089844-0.17969 0.042969z"/>
  <path d="m40.621 89.102s0.003906 0.007813 0.007812 0.011719c0-0.015625 0.007813-0.03125 0.007813-0.042969-0.007813 0.011719-0.011719 0.023438-0.015625 0.035157z"/>
  <path d="m77.262 54.133c-2.4766-3.168-5.3477-6.1719-6.4727-10.102-0.59766-2.0938-0.54297-4.2891 0.62109-6.1758 1.0977-1.7773 2.9805-3.0586 5.0781-3.2344 2.1016-0.17969 4.5039 0.73047 6.2266 2.0234 0.26562 0.19922 0.53516 0.47266 0.85547 0.57031 0.41797 0.125 0.44922-0.27734 0.43359-0.59766-0.050781-0.96094-0.36719-1.957-0.82031-2.8008-1.6523-3.0859-5.3203-5.168-8.7812-5.2266-2.5469-0.042969-5.0586 0.98828-6.9727 2.6406-3.4023 2.9375-4.6992 7.7188-4.0117 12.066 0.41016 2.5938 1.4961 5.0469 2.8555 7.2773 1.4531 2.3828 3.3164 4.4219 5.0781 6.5703 3.3008 4.0273 5.9688 8.8164 6.6523 14.047 0.65625 5.0078-0.67578 10.262-3.707 14.312-0.78125 1.043-1.6758 2.0039-2.668 2.8477-0.46094 0.39063-0.94922 0.74609-1.4375 1.0977-0.37891 0.27734-0.84375 0.67969-1.332 0.71875-0.59766 0.039062-0.23438-0.62891-0.13672-0.94531 0.23438-0.76562 0.44531-1.5391 0.625-2.3203 0.32812-1.4492 0.55469-2.918 0.69531-4.3984 1.0664-10.938-1.9336-22.734-9.2539-31.094-1.8047-2.0625-3.8672-3.9453-6.1641-5.4492-2.1797-1.4219-4.5469-2.6211-6.2344-4.6562-1.6914-2.0352-2.582-4.4609-3.3828-6.9023-0.21484-0.66016-0.42578-1.3125-0.64062-1.9727-0.19531-0.58203-0.32813-1.3125-0.67188-1.832-0.32031-0.48047-0.80078 0-1.125 0.23047-0.56641 0.41016-1.1484 0.80469-1.7461 1.1562-1.1133 0.66016-2.3555 1.3594-3.6172 1.6836 0.83984-0.48828 1.7617-0.84766 2.6133-1.3203 0.85156-0.47266 1.6562-1 2.4336-1.5781 1.5-1.1094 2.8945-2.3867 4.0469-3.8555 0.55859-0.70703 1.043-1.4609 1.4727-2.25 0.40234-0.73828 0.79297-1.5195 0.93359-2.3555 0.14062-0.83594-0.09375-1.6094-0.58984-2.332-0.49609-0.72266-1.0742-1.4609-1.543-2.25-1.0078-1.7109-1.4102-3.5195-1.2891-5.5039s0.57422-4.0078 0.73047-6.0234c0.14453-1.8945 0.1875-3.8281-0.066406-5.7188-0.12109-0.88672-0.82031-0.375-1.293-0.035157-0.75391 0.54688-1.543 1.043-2.2852 1.6055-1.5781 1.1992-3.0469 2.5391-4.3945 3.9922-0.33203 0.35938-0.66016 0.72656-0.97656 1.0977-0.24219 0.28125-0.48438 0.59375-0.86328 0.6875-0.42188 0.10938-0.88281-0.03125-1.3008-0.089844-0.49219-0.070312-0.99219-0.089843-1.4883-0.10547-1.0586-0.03125-2.1133 0-3.168 0.007813-0.44531 0-0.89453 0.015625-1.3398 0.015625-0.44531 0-0.83203 0.003906-1.1641-0.28516-0.26562-0.23438-0.48047-0.53516-0.72656-0.79297-0.34766-0.35938-0.69922-0.72266-1.0586-1.0742-0.68359-0.67578-1.3906-1.3359-2.1211-1.9609-1.2305-1.0586-2.5508-2.0039-3.9141-2.8867-0.30078-0.19922-0.98438-0.69922-1.3711-0.48438-0.24609 0.13672-0.26953 0.55469-0.29297 0.80078-0.042968 0.4375-0.078125 0.87109-0.11719 1.3086-0.17188 2.082-0.019531 4.1758 0.25391 6.2422 0.27344 2.0664 0.80469 3.9492 0.37109 5.9453-0.39844 1.8398-1.332 3.5664-2.4531 5.0625-0.48438 0.65234-0.95703 1.332-0.89062 2.1836 0.074219 0.92969 0.61328 1.7773 1.043 2.582 1.7773 3.332 4.4453 6.1602 7.8125 7.9258 0.38672 0.19922 0.78906 0.36719 1.1875 0.54297 0.39844 0.17578 0.88281 0.32422 1.1875 0.61328-0.99219-0.074218-1.7344-0.99219-2.6719-1.1953-0.74609-0.16406-0.92578 0.74609-1.1016 1.2695-0.72266 2.1836-1.4766 4.3203-1.9609 6.5742-0.99219 4.6328-1.043 9.4336-0.25781 14.102 0.39062 2.3359 0.98828 4.6367 1.7656 6.8711 0.77734 2.2383 1.7461 4.1992 2.6758 6.2852 1.8516 4.1523 3.2422 8.5977 3.8086 13.117 0.28906 2.3398 0.27734 4.6523 0.10938 7-0.058594 0.86328-0.12109 1.8945-0.80859 2.5195-0.60156 0.55078-1.4883 0.64062-2.2305 0.89844-1.6836 0.58203-2.6641 2.2891-2.3359 4.0391 0.14844 0.78906 0.59766 1.5039 1.332 1.8672 0.32031 0.15625 0.99219 0.43359 1.3594 0.27734 0.28516-0.125 0.27344-0.51562 0.30859-0.78125 0.12891-0.96875 0.49609-1.8711 1.1523-2.6016 0.66016-0.73047 1.6367-1.0977 2.5938-1.4023 0.38672-0.12109 0.83984-0.20312 1.0977-0.55078 0.31641-0.42578 0.47656-1.0312 0.65234-1.5273 0.38281-1.082 0.66406-2.2031 0.89453-3.3281 0.95312-4.7031 1.2148-9.5273 1.3672-14.312 0.019531-0.60547 0.035156-1.2109 0.050781-1.8164 0.011719-0.41016 0.14062-0.94531-0.12891-1.2969-0.22266-0.28906-0.6875-0.40234-1.0156-0.51562-0.48047-0.16797-0.91406-0.40625-1.3477-0.67188-1.8828-1.1523-3.5273-2.7266-4.9219-4.418-2.5859-3.1406-4.3203-6.9414-5.0508-10.938-0.19922-1.0977-0.44922-2.293-0.37891-3.4141 0.14453 0.53516 0.19531 1.1094 0.30078 1.6562 0.125 0.63672 0.26953 1.2695 0.42969 1.8945 0.29687 1.1523 0.67578 2.2891 1.1445 3.3828 0.92578 2.1523 2.1836 4.168 3.6484 5.9922 1.4688 1.8242 3.3125 3.4414 5.0703 5.0742 0.27344 0.25391 2.0039 1.9922 2.2812 1.332 0.12109-0.27734 0.023437-0.67969 0-0.96875-0.042969-0.52734-0.039063-1.0586-0.066407-1.5859-0.074218-1.457-0.21484-2.9062-0.41016-4.3477-0.089844-0.67578-0.19531-1.3477-0.30859-2.0195-0.0625-0.35938-0.125-0.72656-0.19922-1.0859-0.050782-0.26562-0.19531-0.59766-0.14453-0.87109 0.35938 0.14063 0.43359 1.1328 0.47656 1.4492 0.10156 0.69141 0.23438 1.3828 0.35547 2.0742 0.28125 1.6602 0.47266 3.3359 0.59375 5.0156 0.24609 3.4141 0.22266 6.8477 0 10.262-0.22266 3.4141-0.63672 6.7539-1.2891 10.082-0.29297 1.5-0.53125 3.1133-1.1445 4.5273-0.24219 0.56641-0.60547 0.94531-1.1875 1.168-0.74609 0.28516-1.5234 0.48437-2.1992 0.91406-1.0117 0.63672-1.7266 1.6875-1.7383 2.9062-0.007812 1.1484 0.66797 2.0547 1.7188 2.4688 1.293 0.50781 2.9141 0.42578 4.2695 0.30078 1.3555-0.12109 2.6328-0.37891 3.6094-1.293 0.49609-0.46094 0.80469-1.043 1.0586-1.6602 0.3125-0.75781 0.62109-1.5195 0.94531-2.2734 0.32422-0.75391 0.625-1.4609 0.91797-2.1953 0.13672-0.34766 0.26953-0.69141 0.39844-1.043 0.14062-0.38281 0.34375-0.79688 0.38281-1.207 0.0625-0.67578-0.52734-1.2305-0.85156-1.7656-0.39453-0.65625-0.73438-1.3438-1.0117-2.0586-0.55078-1.418-0.84766-2.9336-0.83594-4.457 0.03125-3.1914 1.4688-6.2227 3.5703-8.5742 1.1367-1.2734 2.4727-2.3633 3.9297-3.2539 0.73438-0.44531 1.4961-0.83594 2.2773-1.1875 0.29688-0.13281 0.58984-0.28125 0.89062-0.41406 0.24219-0.10547 0.75391-0.37891 1.0195-0.27344-0.44531 0.38281-1.1055 0.61328-1.6289 0.86328-0.63672 0.30078-1.2734 0.60156-1.8711 0.98047-1.0469 0.66406-2.0195 1.4609-2.8828 2.3477-1.6992 1.75-3.0117 3.9062-3.6484 6.2695-1.2188 4.5117 0.23828 9.3906 3.2734 12.863 0.43359 0.49609 0.88672 0.99219 1.3984 1.3984 0.55469 0.44141 1.1836 0.66797 1.8594 0.85156 0.59766 0.16406 1.1797 0.34766 1.7656 0.55859 0.44141 0.16406 1.3086 0.39062 1.5625 0.82812-0.36328 0.066406-0.85547-0.29688-1.1914-0.42188-0.61328-0.22656-1.2344-0.43359-1.8672-0.59766-1.168-0.30469-2.3945-0.5-3.6016-0.36328-1.6836 0.18359-3.4492 1.0781-4.1172 2.7148-0.32812 0.79688-0.39453 1.7773-0.027344 2.5742 0.42188 0.90625 1.3555 1.3164 2.2852 1.5117 1.1562 0.24219 2.3633 0.20703 3.5391 0.19531 1.1758-0.015625 2.4336 0.019531 3.6523 0.019531 5.043 0 10.16-0.46484 15.074-1.625 4.4141-1.043 8.793-2.6641 12.508-5.3164 3.5078-2.5039 6.2148-5.9922 7.6992-10.043 1.6719-4.5586 1.7539-9.5781 0.80859-14.305-0.94531-4.7266-2.8398-9.0703-5.5508-12.93-0.39062-0.55469-0.80078-1.1016-1.2266-1.6406zm-52.262-36.234c0.066406-0.23438 0.24219-0.46484 0.46094-0.57422 0.14062-0.070313 0.30469-0.085938 0.46094-0.054688 0.32422 0.066407 0.59375 0.33203 0.69141 0.64453 0.054688 0.17578 0.054688 0.36328 0.007813 0.54297-0.054688 0.19922-0.16797 0.39844-0.33594 0.52344-0.14062 0.10938-0.31641 0.15625-0.49219 0.13281-0.17578-0.023437-0.33594-0.10156-0.46875-0.21094-0.14062-0.12109-0.25-0.27344-0.30859-0.44141-0.058594-0.17188-0.066406-0.37109-0.015625-0.55859zm3.1953 3.9141c-0.125 0.23828-0.43359 0.35938-0.67187 0.4375-0.66797 0.21484-1.4141 0.30859-2.1133 0.32422-1.2539 0.03125-2.5234-0.33984-3.3242-1.3594-0.53125-0.67969-0.8125-1.5664-0.74219-2.4297 0.066406-0.80859 0.45703-1.5781 1.1602-2.0078 0.40625-0.24609 0.87891-0.35547 1.3477-0.36719 0.10938 0 0.54297-0.050781 0.58984 0.074219 0.039063 0.10938-0.32812 0.30469-0.40234 0.36719-0.5 0.42969-0.78516 1.0508-0.86328 1.6953s0.042969 1.2031 0.34766 1.75c0.375 0.68359 1.0547 1.1953 1.8672 0.98047s1.4062-1.0078 1.5664-1.8125c0.089844-0.45703 0.039063-0.93359-0.13672-1.3633-0.10937-0.25781-0.26172-0.49609-0.4375-0.70703-0.09375-0.11328-0.19531-0.21484-0.30469-0.3125-0.089844-0.078125-0.34375-0.21875-0.35938-0.34375 1.6289 0.23828 2.6602 2.8477 2.6328 4.2461-0.003906 0.25781-0.035156 0.52344-0.12109 0.76562-0.007813 0.023438-0.019531 0.039062-0.027344 0.0625zm5.6328 4.1133c-0.039063 0.11328-0.12109 0.24219-0.26172 0.37891-0.29688 0.29297-0.59766 0.5625-0.85156 0.90234-0.125 0.17188-0.24609 0.35156-0.35938 0.53125-0.0625 0.10156-0.18359 0.42188-0.32031 0.32422-0.12109-0.082031-0.19922-0.33984-0.27734-0.46094-0.10547-0.17187-0.21484-0.34375-0.33984-0.50391-0.23438-0.3125-0.50391-0.57031-0.80469-0.82031-0.27734-0.22266-0.40234-0.53516-0.074219-0.77734 0.23047-0.16797 0.50781-0.19141 0.77734-0.20312 0.24219-0.011719 0.48828-0.03125 0.73047-0.039063 0.32812-0.011718 0.66016-0.015624 0.98828 0.023438 0.51953 0.058594 0.90625 0.28125 0.78906 0.64844zm1.918-4.0039s-0.035156-0.027344-0.042969-0.042969c-0.1875-0.21094-0.22266-0.60547-0.22266-0.875 0-0.35156 0.074219-0.69141 0.17969-1.0234 0.39453-1.25 1.207-2.5352 2.4141-3.1328 1.3008-0.64453 3.0977-0.64844 4.2109 0.38281 1.1133 1.0312 0.77734 2.8516-0.11719 3.9492-1.0156 1.2422-2.7266 1.5352-4.25 1.3711-0.41797-0.042969-0.83203-0.125-1.2305-0.25-0.1875-0.054687-0.36719-0.12109-0.54688-0.19922-0.12109-0.050781-0.28125-0.097656-0.39062-0.1875z"/>
  <path d="m40.82 20.594c0.19531-0.25781 0.33594-0.55469 0.42188-0.85547 0.26172-0.92578 0.11328-2.1328-0.60938-2.8281-0.75391-0.73047-1.918-0.44531-2.5391 0.31641-0.5625 0.6875-0.71094 1.6562-0.46094 2.5039 0.25 0.84375 0.90625 1.6562 1.8164 1.6367 0.57422-0.011719 1.0469-0.33203 1.375-0.76953zm-1.3945-2.8164c0.13672-0.33984 0.44141-0.60547 0.82812-0.58984 0.89844 0.039062 0.99609 1.3477 0.30859 1.7461-0.37109 0.21484-0.83594 0.066406-1.0742-0.27734-0.17578-0.25781-0.17969-0.59375-0.0625-0.88281z"/>
 </g>
<text x="0.0" y="117.5" font-size="5.0" font-weight="bold" font-family="Arbeit Regular, Helvetica, Arial-Unicode, Arial, Sans-serif" fill="#000000">Created by VV</text><text x="0.0" y="122.5" font-size="5.0" font-weight="bold" font-family="Arbeit Regular, Helvetica, Arial-Unicode, Arial, Sans-serif" fill="#000000">from Noun Project</text></svg>