<?xml version="1.0" encoding="utf-8"?>
<!-- Generator: Adobe Illustrator 16.0.0, SVG Export Plug-In . SVG Version: 6.00 Build 0)  -->
<!DOCTYPE svg PUBLIC "-//W3C//DTD SVG 1.1//EN" "http://www.w3.org/Graphics/SVG/1.1/DTD/svg11.dtd">
<svg version="1.1" id="Layer_1" xmlns="http://www.w3.org/2000/svg" xmlns:xlink="http://www.w3.org/1999/xlink" x="0px" y="0px"
	 width="612px" height="792px" viewBox="0 0 612 792" enable-background="new 0 0 612 792" xml:space="preserve">
<g>
	<path d="M491.47,213.59c-1.529-2.975-2.975-6.035-4.505-9.775c-7.564-15.045-23.375-26.35-41.479-32.385
		c3.739,25.67-11.306,58.82-8.33,78.37c2.295,15.045,18.104,18.105,29.41,10.54C476.34,253.54,485.435,239.26,491.47,213.59
		L491.47,213.59z M413.015,466.89c52.785-48.279,100.98-107.78,119.851-166.6c-15.045-19.635-24.141-43.69-33.15-67.065
		c-6.8,19.635-15.81,31.62-25.67,37.655c-19.635,13.6-45.985,6.035-49.725-18.87c-2.976-18.87,15.045-75.395,6.8-85.17
		c-12.835-2.295-25.67-2.295-36.21,0c-12.07,2.975-21.845,12.07-30.175,21.08c-17.341,18.87-38.42,28.645-61.795,36.975
		c0.765,16.575,6.8,46.75,64.855,42.925c30.175-2.295,51.255,21.845,54.315,49.725c15.81,4.505,27.114,11.305,38.42,16.575
		c10.54,6.035,20.314,11.305,30.939,12.835c8.33,1.53,6.8,14.365-2.295,12.835c-12.069-1.53-22.609-7.565-34.68-13.6
		c-15.811-8.33-34.68-18.105-62.561-21.845c-2.975,0-5.27-2.295-6.034-4.505c-2.976-9.775-6.035-14.28-15.045-17.34
		c-1.53,6.8-2.976,14.28-9.011,24.14c-1.529,1.53-2.295,2.975-4.505,2.975c-13.6,3.74-18.87,18.105-24.905,32.385
		c-2.975,8.33-6.034,16.575-10.54,23.375c7.565,6.8,18.87,12.835,30.176,12.835C390.405,397.53,410.04,432.975,413.015,466.89
		L413.015,466.89z M233.665,264.08c-9.01,0-9.01-13.6,0-13.6h1.53c8.33,0,8.33,13.6,0,13.6H233.665z M269.025,264.08
		c-8.33,0-8.33-13.6,0-13.6h1.53c9.01,0,9.01,13.6,0,13.6H269.025z M245.735,239.26c0-9.01,12.835-9.01,12.835,0v1.53
		c0,8.33-12.835,8.33-12.835,0V239.26z M245.735,274.62c0-9.01,12.835-9.01,12.835,0v1.53c0,8.33-12.835,8.33-12.835,0V274.62z
		 M185.385,317.63c-9.01,0-9.01-13.6,0-13.6h0.765c8.33,0,8.33,13.6,0,13.6H185.385z M210.29,317.63c-9.01,0-9.01-13.6,0-13.6h0.765
		c9.01,0,9.01,13.6,0,13.6H210.29z M191.42,297.995c0-9.01,13.6-9.01,13.6,0v0.765c0,9.01-13.6,9.01-13.6,0V297.995z M191.42,322.9
		c0-9.01,13.6-9.01,13.6,0v0.765c0,9.01-13.6,9.01-13.6,0V322.9z M289.425,491.03l52.785-33.915
		c-21.08-28.646-36.975-55.76-75.395-61.03c-24.905-3.74-36.975-10.54-58.055-23.375c-3.74-1.53-13.6-9.01-16.575-6.035
		c-9.775,7.565-3.74,29.41,7.565,35.445l28.645,16.575c7.565,3.739,0.765,15.81-6.8,11.305c-9.01-5.27-33.15-17.34-38.42-24.905
		l-64.09-82.195c-5.27-6.035-20.315-9.775-25.67-1.53c18.105,31.62,40.715,61.795,59.585,93.5l63.325,53.55
		c18.105,11.305,30.94,12.835,41.48,13.6C268.345,482.7,278.12,483.465,289.425,491.03L289.425,491.03z M311.27,543.73
		c22.61-13.601,47.516-30.94,73.101-52.021l-24.14-30.94l-73.865,48.28L311.27,543.73z M348.925,347.805c9.01,0,9.01,13.6,0,13.6
		C340.68,361.32,340.68,347.805,348.925,347.805L348.925,347.805z M373.83,196.25c0-8.33,13.6-8.33,13.6,0v0.765
		c0,8.33-13.6,8.33-13.6,0V196.25z M70.04,160.04v36.975c0,1.53,2.295,3.74,4.505,3.74h48.96c3.74,0,6.8,2.975,6.8,6.8v49.725
		c0,2.295,2.295,3.74,4.505,3.74h36.21c2.295,0,4.505-1.53,4.505-3.74v-49.725c0-3.74,2.295-6.8,6.035-6.8h49.725
		c2.295,0,4.505-2.295,4.505-3.74V160.04c0-2.295-2.295-3.74-4.505-3.74h-48.96c-3.74,0-6.8-2.975-6.8-6.8V99.775
		c0-2.295-2.295-4.505-4.505-4.505h-36.21c-2.295,0-4.505,2.295-4.505,4.505V149.5c0,3.74-2.975,6.8-6.8,6.8h-48.96
		C72.335,156.3,70.04,157.83,70.04,160.04L70.04,160.04z M84.405,214.355c-6.8,30.175,0.765,61.795,14.28,88.91
		c10.54-1.53,23.375,2.975,30.175,11.305l45.985,58.055c0.765-6.035,3.74-12.07,8.33-16.575c11.305-9.01,21.845,0,32.385,5.27
		c19.635,11.305,30.94,18.105,52.785,21.08c44.455,6.8,61.03,34.68,84.405,67.065l6.035-3.74c2.975-1.529,6.8-0.765,9.01,1.53
		l26.35,36.21l6.035-5.27c0.766-29.41-12.835-65.62-47.515-67.065c-18.87,0.765-31.62-7.564-45.22-20.315
		c-2.295-2.295-2.295-6.8,0-9.01c5.27-6.035,9.01-15.045,12.835-24.905c6.8-16.575,12.835-33.15,30.939-39.185
		c5.271-9.01,6.035-14.28,6.8-21.845c0-3.74,1.53-9.01,7.565-8.33c15.045,2.295,26.35,9.775,31.62,24.14
		c3.74,0.765,7.564,1.53,11.305,2.295c-4.505-18.87-18.87-34.68-39.185-33.15c-76.925,6.035-79.135-40.715-79.9-58.82
		c0-3.74,0.765-6.8,4.505-7.565c23.375-8.33,44.455-17.34,61.03-35.445c10.54-11.305,21.845-21.08,36.975-24.905
		c36.976-9.01,88.91,9.01,107.016,43.69c13.6,27.115,21.845,60.265,38.42,85.935c2.975-13.6,4.505-26.35,4.505-39.95
		c-2.295-50.49-30.94-94.945-78.37-114.58c-64.854-26.35-138.72,0.765-165.835,67.065c-3.74,7.565-11.305,3.74-12.07,0
		c-15.81-42.925-52.785-66.3-97.24-64.855V142.7h42.925c9.775,0,17.34,7.565,17.34,17.34v36.975c0,9.01-7.565,17.34-17.34,17.34
		H188.36v42.925c0,9.01-7.565,17.34-17.34,17.34h-36.21c-9.775,0-17.34-8.33-17.34-17.34v-42.925H84.405z M264.52,345.51
		c-8.33,0-8.33-13.6,0-13.6h1.53c8.33,0,8.33,13.6,0,13.6H264.52z M290.19,345.51c-9.01,0-9.01-13.6,0-13.6h0.765
		c8.33,0,8.33,13.6,0,13.6H290.19z M271.32,325.195c0-8.33,12.835-8.33,12.835,0v1.53c0,8.33-12.835,8.33-12.835,0V325.195z
		 M271.32,350.78c0-9.01,12.835-9.01,12.835,0v0.765c0,9.01-12.835,9.01-12.835,0V350.78z M351.22,486.44
		c-4.505-7.565,6.035-15.046,11.306-7.565l4.505,6.8c5.27,7.565-6.035,15.045-10.54,7.565L351.22,486.44z"/>
</g>
<text transform="matrix(1 0 0 1 0 753)" font-family="'Arial-BoldMT'" font-size="42.5">Created by Hervindjuice</text>
<text transform="matrix(1 0 0 1 0 795.5)" font-family="'Arial-BoldMT'" font-size="42.5">from the Noun Project</text>
</svg>
