<?xml version="1.0" encoding="utf-8"?>
<!-- Generator: Adobe Illustrator 16.0.0, SVG Export Plug-In . SVG Version: 6.00 Build 0)  -->
<!DOCTYPE svg PUBLIC "-//W3C//DTD SVG 1.1//EN" "http://www.w3.org/Graphics/SVG/1.1/DTD/svg11.dtd">
<svg version="1.1" id="Layer_1" xmlns="http://www.w3.org/2000/svg" xmlns:xlink="http://www.w3.org/1999/xlink" x="0px" y="0px"
	 width="612px" height="792px" viewBox="0 0 612 792" enable-background="new 0 0 612 792" xml:space="preserve">
<path d="M105.972,341.494c1.381-5.627,4.443-10.7,8.778-14.544V171.281c0-7.922-6.422-14.344-14.344-14.344
	s-14.344,6.422-14.344,14.344v144.91L105.972,341.494z"/>
<path d="M142.108,341.656c-1.807-1.933-4.334-3.03-6.98-3.031h-1.253c-5.281,0-9.563,4.281-9.563,9.563v16.687l64.891,82.592
	l-15.042,11.818L68.974,325.41c-1.322-1.686-2.039-3.767-2.037-5.91V195.188c0-10.563-8.563-19.125-19.125-19.125
	s-19.125,8.563-19.125,19.125v160.124L84.236,457.2l73.88,73.88c8.986,8.937,14.029,21.092,14.009,33.765v31.968h95.625V487.57
	c0.007-7.27-2.756-14.269-7.727-19.574L142.108,341.656z"/>
<path d="M196.031,300.375c-7.922,0-14.344,6.422-14.344,14.344v41.31l28.688,30.734v-72.044
	C210.375,306.797,203.953,300.375,196.031,300.375z"/>
<path d="M156.089,328.613l6.464,6.923v-106.88c0-7.922-6.422-14.344-14.344-14.344s-14.344,6.422-14.344,14.344V319.5h1.253
	C143.067,319.508,150.659,322.807,156.089,328.613z"/>
<path d="M476.862,319.5h1.263v-90.844c0-7.922-6.422-14.344-14.344-14.344s-14.344,6.422-14.344,14.344v106.88l6.455-6.923
	C461.324,322.81,468.914,319.512,476.862,319.5z"/>
<path d="M401.625,314.719v72.044l28.688-30.734v-41.31c0-7.922-6.422-14.344-14.344-14.344S401.625,306.797,401.625,314.719z"/>
<path d="M564.188,176.063c-10.563,0-19.125,8.563-19.125,19.125V319.5c0.002,2.143-0.715,4.224-2.037,5.91L437.838,459.284
	l-15.042-11.818l64.892-82.592v-16.687c0-5.281-4.281-9.563-9.563-9.563h-1.253c-2.647,0.006-5.176,1.103-6.99,3.031
	l-117.915,126.34c-4.968,5.307-7.727,12.306-7.717,19.574v109.242h95.625v-31.968c-0.036-12.688,5.005-24.863,14-33.813
	l73.879-73.832l55.559-101.889V195.188C583.313,184.625,574.75,176.063,564.188,176.063z"/>
<path d="M525.938,316.191v-144.91c0-7.922-6.422-14.344-14.344-14.344s-14.344,6.422-14.344,14.344v155.668
	c4.334,3.855,7.393,8.938,8.769,14.573L525.938,316.191z"/>
<path d="M331.369,158.104c-4.029-1.401-6.644-5.303-6.406-9.563c0-0.268,0.124-1.272,0.162-1.53
	c-0.101-10.563-8.744-19.044-19.307-18.943c-10.563,0.1-19.044,8.744-18.943,19.307c0,0.239,0.134,0.899,0.153,1.157
	c0.237,4.26-2.377,8.161-6.407,9.563c-9.966,3.369-15.313,14.18-11.944,24.146c2.634,7.792,9.973,13.013,18.198,12.947
	c4.716-0.013,9.256-1.79,12.728-4.982c3.637-3.273,9.158-3.273,12.795,0c3.469,3.195,8.011,4.973,12.728,4.982
	c10.521,0.047,19.087-8.442,19.134-18.962c0.037-8.178-5.15-15.467-12.89-18.111V158.104z"/>
<path d="M409.849,63.282c-18.827-19.814-47.737-26.336-73.249-16.524L309.48,57.277c-2.231,0.875-4.711,0.875-6.942,0L275.4,46.758
	c-7.707-3.014-15.908-4.563-24.184-4.571c-18.535,0.048-36.251,7.645-49.065,21.038c-28.123,29.282-27.487,75.729,1.425,104.231
	L306,267.862l102.414-100.406C437.286,138.961,437.926,92.562,409.849,63.282z M318.049,70.569
	c6.953-9.709,20.446-11.975,30.188-5.068c4.396,4.122,6.405,10.191,5.336,16.122c-0.881,5.397-3.321,10.42-7.019,14.449
	c-4.707,5.595-11.552,8.951-18.857,9.247c-4.169,0.071-8.215-1.419-11.341-4.179c-7.949-8.922-7.184-22.592,1.712-30.571H318.049z
	 M263.715,65.501c9.741-6.913,23.238-4.646,30.188,5.068c8.914,7.985,9.671,21.681,1.693,30.6
	c-3.128,2.757-7.172,4.248-11.341,4.179c-7.306-0.293-14.151-3.65-18.857-9.247c-3.698-4.029-6.137-9.052-7.019-14.449
	c-1.075-5.944,0.942-12.027,5.355-16.151H263.715z M228.142,140.604c-9.316-7.479-10.83-21.084-3.385-30.428
	c9.35-7.435,22.95-5.923,30.438,3.385c3.91,3.821,6.622,8.7,7.803,14.038c1.404,5.861-0.263,12.034-4.428,16.39
	c-3.245,3.185-7.636,4.929-12.183,4.839c-6.918-0.245-13.464-3.198-18.226-8.224H228.142z M325.125,214.313
	c-6.725-0.005-13.327-1.804-19.125-5.211c-5.799,3.405-12.4,5.204-19.125,5.211c-21.077,0.054-38.208-16.988-38.262-38.066
	c-0.036-13.798,7.38-26.542,19.395-33.328c2.45-20.982,21.446-36.005,42.428-33.555c17.61,2.057,31.499,15.945,33.556,33.555
	c18.352,10.366,24.826,33.646,14.461,51.999C351.667,206.932,338.924,214.348,325.125,214.313z M383.829,140.614
	c-4.765,5.032-11.319,7.986-18.245,8.224c-4.546,0.09-8.938-1.654-12.183-4.838c-4.164-4.356-5.832-10.529-4.428-16.39
	c1.182-5.338,3.893-10.216,7.804-14.038c7.487-9.308,21.087-10.82,30.437-3.385c7.439,9.342,5.926,22.94-3.385,30.418V140.614z"/>
<text transform="matrix(1 0 0 1 0 768.9375)" font-family="'Arial-BoldMT'" font-size="47.8125">Created by nareerat jaikaew</text>
<text transform="matrix(1 0 0 1 0 816.75)" font-family="'Arial-BoldMT'" font-size="47.8125">from the Noun Project</text>
</svg>
