<svg xmlns="http://www.w3.org/2000/svg" version="1.1" viewBox="-5.0 -10.0 110.0 135.0">
 <path d="m31.273 54.332c0.058593-0.73828-0.082032-1.4375-0.21875-2.1094-0.11719-0.58203-0.24609-1.2109-0.47266-1.8203 1.4141 0.23828 3.7148 0.36719 4.2383-1.168 0.078126-0.23438 0.082032-0.46094 0.085938-0.74609 0.015625-0.66016 0.26953-1.3281 0.69922-1.8281 0.12109-0.14062 0.22266-0.22656 0.30469-0.25391 0.21094-0.074219 0.41797-0.10938 0.625-0.12891l0.09375 0.26953c1.2852 3.668 2.6172 7.457 7.8359 8.5586l0.023437 0.019531c3.3359 2.6875 6.5039 5.2383 8.5664 4.8438 2.3125 1.3438 4.1914 2.3516 5.5078 2.2539 0.035156 0.011719 0.070312 0.019532 0.10547 0.023438l1.125 0.46875c2.7188 1.1406 5.1523 2.1562 6.8125 2.1562 0.36719 0 0.68359-0.070313 0.96875-0.17969 0.003906 0 0.003906 0.003906 0.003906 0.003906l0.43359 0.13672 9.5234 23.281-6.1289-2.9883c-1.4766-1.5625-2.8516-3.2461-3.9492-5.1328 0.5625 1.4727 1.3008 2.8828 2.1289 4.2422l-2.8867-1.4062c-0.015625-0.015625-0.019531-0.035156-0.035157-0.050781-1.4883-1.3242-3.1289-2.8672-4.7148-4.3594-0.96094-0.90625-1.9219-1.8125-2.8555-2.6758-0.074219-0.070313-0.16797-0.11719-0.26953-0.13281l-3.0625-0.52344c-0.90234-1.6094-2.4805-2.5273-4.6914-2.75-0.070312-0.019532-0.14453-0.027344-0.22266-0.015626-0.18359-0.015624-0.35938-0.035156-0.55078-0.039062-1.7031-0.015625-3.4883-0.93359-5.6211-2.8945-0.17578-0.16016-0.4375-0.1875-0.63672-0.0625-0.90234 0.55078-2.4258-0.86719-2.9023-1.4258-4.6562-5.043-9.7422-10.84-10.133-11.793-0.003906-0.12109-0.054687-0.23047-0.12891-0.32031 0.32422-0.60938 0.39453-1.4023 0.39844-1.4531zm46.109 12.137c-1.4844-0.74609-2.957-1.5273-4.3633-2.4805-0.007812-0.003906-0.011719-0.015625-0.019531-0.019531-0.77344-0.003906-1.6797-0.058594-2.7344-0.12891-0.57031-0.039063-1.1406-0.078125-1.6875-0.10156-0.019531 0.046875-0.042969 0.082031-0.0625 0.125 0.050781 0.011719 0.10156 0.027344 0.14844 0.050781l9.7695 3.0664c-0.35156-0.17578-0.70312-0.33984-1.0508-0.51172zm-34.625 15.566c-0.19141 0.30859-0.15234 0.57422 0.13672 1.0352 0.10938-0.29297 0.23047-0.60547 0.36328-0.93359-0.16797-0.007813-0.33594-0.03125-0.49609-0.097657 0 0 0-0.003906-0.003907-0.003906zm1.3242 4.375c0.007813 0 0.011719 0.003906 0.019531 0.007813 0.28125 0.007812 0.51172-0.042969 0.71875-0.16016 0.40234-2.9219 1.2383-5.2305 2.6172-7.25 0.46484-1.0273 1.2305-1.7578 2.2227-2.0859 1.8945-0.62109 4.3281 0.22266 7.3594 1.7891-0.375-0.72266-0.98047-1.5742-1.8828-2.6523-0.019531-0.027344-0.03125-0.054688-0.046875-0.085938-0.058594-0.046875-0.11328-0.10547-0.14844-0.17578-0.70312-1.4141-1.9883-2.2031-3.9062-2.4062-0.86328 0.49219-1.8672 1.0703-2.8789 1.6992-0.011719 0.050781-0.019531 0.10547-0.046875 0.15234-0.097656 0.17969-0.28125 0.27734-0.46875 0.27734-0.039063 0-0.082031-0.019531-0.12109-0.03125-2.3828 1.5234-4.6367 3.2695-4.9258 4.75 0.23828 0.59375 0.46484 0.76172 0.58203 0.8125 0.042969 0.015625 0.17578 0.070313 0.45312-0.054687 0.035156-0.015625 0.070313-0.015625 0.10156-0.023438 0.082031-0.19922 0.16016-0.38672 0.24609-0.59375 0.34766-0.83594 0.70313-1.6953 1.0352-2.5508 0.10547-0.27344 0.41406-0.41016 0.6875-0.30078 0.27344 0.10547 0.41016 0.41406 0.30078 0.6875-0.33594 0.85938-0.69531 1.7305-1.0469 2.5742-0.82031 1.9766-1.9219 4.6289-1.793 5.4414 0.35156 0.11328 0.64453 0.16797 0.90234 0.17969 0.007812 0.003906 0.015625 0 0.019531 0zm33.562-20.406c0.72656 0.46875 1.4766 0.90625 2.2188 1.3555-1.3281-1.2148-2.707-2.5977-4.1133-4.0977-0.24219 0.30078-0.62109 0.49219-1.1523 0.59375 0.97656 0.75391 1.9961 1.4727 3.0469 2.1484zm-31.219 8.9336-2.2539-1.2266-3.0195-1.4141c-1.3242-0.875-2.4609-1.1641-3.5273-0.92969-1.4258 0.3125-2.793 1.5742-4.1836 3.8555-0.070312 0.11328-0.17969 0.19531-0.30469 0.23438-0.14062 0.042969-0.28516 0.0625-0.41797 0.0625-0.050781 0-0.09375-0.011719-0.14453-0.019531-0.089844 0.72656 0.21875 1.0703 0.52734 1.2812 0.21484 0.14844 0.28906 0.42969 0.17969 0.66406-0.089844 0.19141-0.28125 0.30469-0.48047 0.30469-0.046875 0-0.09375-0.007812-0.14453-0.019531-0.59766-0.16797-0.96484-0.49609-1.207-0.88281 0.023437 0.45312 0.074219 0.91797 0.16797 1.4102 0.027343 0.15234-0.011719 0.3125-0.10938 0.43359-0.097656 0.12109-0.24609 0.19531-0.39844 0.19922h-0.13281c-0.14453 0-0.30078-0.011719-0.45703-0.03125 0.10156 0.70703 0.48828 1.1875 1.2188 1.5 0.13672-0.035156 0.28516-0.023437 0.41406 0.054687l0.625 0.37891c3.5586 2.1445 7.2031 4.3398 9.3594 5.5547-0.0625-0.54297 0.085937-1.2773 0.39062-2.2227-0.066406-0.011719-0.13281-0.019531-0.19531-0.054688-0.85938-0.54297-1.6641-1.5898-0.74219-3.4883-0.011719-0.035156-0.027344-0.058593-0.042969-0.09375-0.03125-0.078125-0.039063-0.16406-0.027344-0.25 0.21484-1.7656 2.207-3.5273 4.9062-5.3008zm-25.863-61.938c-3.3672 4.1133-3.9531 7.3086-1.8125 10.918-0.10156-0.80859-0.10156-1.5781 0.007812-2.3008 0.023438-0.17188 0.13672-0.32422 0.29297-0.39844 0.15625-0.078125 0.34375-0.070312 0.49609 0.015625 0.41406 0.23047 1.5977-0.85156 1.9883-1.207 0.066406-0.058594 0.14062-0.10156 0.22266-0.12109 0.29297-0.93359 0.65625-1.6367 1.1094-2.1523-0.41016-1.457-1.1523-2.9844-2.3047-4.7539zm2.2656 19.277c1.2852-4.2773 0.96094-5.2188 0.11328-6.9336-0.24219-0.48828-0.51562-1.0508-0.78906-1.8203 0.19922-1.793 0.58594-4.2227 1.668-5.2383 0.14063-0.13281 0.19922-0.33203 0.15234-0.51953-0.44531-1.7578-1.3438-3.5938-2.7852-5.7422 1.4258-3.043 4.7344-4.0938 9.8438-3.1172 5.0898 0.97266 9.6992 3.5547 12.98 7.2656 1.7578 1.9883 2.9844 4.1094 3.6523 6.3086 0.78906 2.6016 1.6367 5.1055 3.2734 7.1484-1.4531 0.28516-2.8555 0.1875-4.2617-0.28906-0.17578-0.058594-0.37109-0.023438-0.51172 0.09375-0.14453 0.12109-0.21484 0.30469-0.18359 0.48828 0.26562 1.7656 0.18359 3.2539-0.25 4.5234-0.86719-0.75391-2.207-1.5352-2.2266-1.5469-0.86719-0.46484-1.8867-0.53125-2.6602-0.18359-0.625 0.28516-1.043 0.80859-1.207 1.5156-0.16797 0.73047-0.042969 1.4336 0.078125 2.1133l0.042968 0.23828c0.375 2.1641 0.75 6.0703-0.95312 7.9414-0.55078 0.60156-1.0273 0.63281-1.6719 0.64453-0.12891-0.070313-0.28125-0.089844-0.42969-0.039063-0.039063 0.011719-0.066406 0.039063-0.10156 0.058594-0.32422 0.019531-0.66797 0.066406-1.043 0.19922-0.35547 0.125-0.60547 0.38281-0.76172 0.56641-0.59375 0.69531-0.93359 1.582-0.95312 2.4922l-0.003906 0.11719c0 0.125-0.003906 0.24219-0.027344 0.3125-0.28125 0.83203-2.543 0.67578-4.0586 0.24609-0.21875-0.058594-0.44531 0.019531-0.57812 0.19922-0.12891 0.18359-0.13281 0.42578-0.007812 0.60938 0.48438 0.70703 0.66797 1.6133 0.84375 2.4844 0.12109 0.60547 0.25 1.2266 0.20312 1.8164-0.027344 0.33594-0.17188 0.87109-0.25781 1.082-0.14453-0.14844-0.33594-0.41016-0.41797-0.52344-0.082031-0.11328-0.15234-0.20703-0.20312-0.26562l-0.48438-0.55469c-0.49609-0.57422-0.99609-1.1445-1.4805-1.7266-1.0586-1.2695-2.3984-2.9766-3.4062-4.9219-2.1406-4.1133-2.5195-9.1914-1.1367-15.043zm3.668-17.301c0 1.0156 0.84375 1.8438 1.875 1.8438 1.0352 0 1.875-0.82812 1.875-1.8438 0-1.0156-0.83984-1.8438-1.875-1.8438-1.0312 0-1.875 0.82813-1.875 1.8438zm20.637 15.613c0.015626 0.17188 0.011719 0.32812 0.023438 0.49219 1.7227-0.003906 4.6367 2.5 8.6953 6.9336-1.7422-2.4336-3.4609-4.8711-5.1445-7.2695-1.2148 0.1875-2.3984 0.13672-3.5742-0.15625zm0.050782 1.5117c-0.03125 1.2969-0.28125 2.4492-0.76953 3.4766-0.12109 0.25781-0.42578 0.375-0.6875 0.26172-0.054687-0.023438-0.10156-0.050782-0.14062-0.085938-0.23828-0.1875-2.3867-1.7852-2.6016-1.9141-0.5625-0.30078-1.2383-0.35938-1.707-0.14453-0.31641 0.14453-0.52344 0.41016-0.60938 0.78906-0.12109 0.51562-0.019531 1.082 0.089843 1.6836l0.042969 0.24219c0.5 2.875 0.69141 6.7422-1.2148 8.8398-0.66797 0.73438-1.3281 0.91797-1.9414 0.96875 1.1055 3.1562 2.1758 6.1484 5.6836 7.4453-0.68359-1-1.2266-2.0898-1.4102-3.2656 0.60938 1.5977 1.8359 2.7695 3.1133 3.7891l0.125 0.10156c2.332 1.8789 4.918 3.9492 6.6445 4.5039-0.66406-0.75781-1.2109-1.6016-1.5352-2.5156 0.80078 1.1875 1.9219 2.0508 3.1367 2.6523 0.003906 0 0.003906 0 0.007812 0.003906 1.2617 0.73438 2.8555 1.6602 4.043 2.043-0.44531-0.6875-0.75391-1.4336-0.99219-2.168 0.66797 0.99609 1.4961 1.9219 2.4648 2.3828l1.2852 0.53516c2.6992 1.1289 6.0586 2.5352 7.1172 1.9336 0.078125-0.042968 0.16016-0.11719 0.22656-0.25-0.98438-0.61719-1.668-1.5508-2.0508-2.5195 0.73438 0.92578 1.7148 1.5938 2.75 1.7617 0.66016 0.023437 1.3711 0.070312 2.0859 0.12109 1.6055 0.10937 4.2891 0.29297 4.6055-0.18359 0.011719-0.019532 0-0.11328-0.070312-0.26562-3.3086-3.6133-6.7891-7.8945-10.301-12.477-7.2539-8.7734-15.277-18.086-17.391-17.746zm-26.031-9.7578c0.019531 0.039062 0.042968 0.078125 0.058594 0.11328 0.042968-0.30859 0.089843-0.60547 0.14062-0.88281-0.14844 0.11328-0.29687 0.22266-0.44531 0.31641 0.09375 0.16406 0.17188 0.3125 0.24609 0.45312zm14.316 46.453c0.25391-0.14844 0.57812-0.0625 0.73047 0.19141 0.14844 0.25391 0.0625 0.57812-0.19141 0.73047-1.918 1.1211-3.1953 2.3359-3.9023 3.7461 0.050781 0.058594 0.09375 0.125 0.11719 0.20703 0.15625 0.57422 0.33203 0.72656 0.39844 0.76172 0.007812 0.003906 0.023437 0.015625 0.046875 0.019531 1.5078-2.4023 3.0547-3.75 4.7305-4.1211 1.3516-0.29688 2.793 0.050781 4.2773 1.043l2.3086 1.0781c-0.14062-0.35156-0.5-0.99609-1.4023-2.0977-0.015625-0.019531-0.019531-0.042969-0.035156-0.0625-0.78125-0.32812-1.4688-0.92969-1.8594-1.3164-0.039062 0-0.078125 0.003907-0.11719-0.007812-3.082-0.88281-5.4492-0.74609-7.2305 0.41406-1.9609 1.2773-3.2461 3.8984-3.8242 7.793 0.30078 0.35938 0.60547 0.53516 0.94531 0.60938-0.64063-4.9727 2.3164-7.4141 5.0078-8.9883zm-7.0977-52.648c0.61328 0 1.1133-0.5 1.1133-1.1133 0-0.61328-0.5-1.1133-1.1133-1.1133-0.61328 0-1.1133 0.5-1.1133 1.1133 0 0.61328 0.5 1.1133 1.1133 1.1133zm36.422 67.133-7.6094-3.082c-0.011719-0.003907-0.019532-0.015625-0.03125-0.019531-0.007813-0.003907-0.015625 0-0.023438-0.003907-2.7266-1.4961-5.4961-2.8008-7.2578-2.2188-0.67188 0.22266-1.1719 0.71094-1.5352 1.5-1.2812 1.8867-2.0195 3.9844-2.3633 6.6719-0.015625 0.12891-0.082031 0.24609-0.1875 0.32812-0.32422 0.25391-0.66797 0.38672-1.0156 0.44141 0.007813 0.14453 0.035157 0.28125 0.066407 0.41406l5.0195 3.3242 28.953-0.52344zm-36.078-5.6016c0-0.011719 0.007812-0.019532 0.007812-0.03125-0.046875-0.054688-0.09375-0.10547-0.14062-0.16797-0.074219-0.10547-0.10938-0.23438-0.089843-0.36328 0.52344-3.7656 1.6836-6.3203 3.5195-7.8125-2.4062-1.3945-4.6953-2.3789-7.125-3.0469l-2.4727 9.082c2.2852 1 4.8125 2.1836 6.2773 2.8828 0-0.18359 0.007813-0.36719 0.023438-0.54297z"/>
<text x="0.0" y="117.5" font-size="5.0" font-weight="bold" font-family="Arbeit Regular, Helvetica, Arial-Unicode, Arial, Sans-serif" fill="#000000">Created by Kael</text><text x="0.0" y="122.5" font-size="5.0" font-weight="bold" font-family="Arbeit Regular, Helvetica, Arial-Unicode, Arial, Sans-serif" fill="#000000">from Noun Project</text></svg>