<svg xmlns="http://www.w3.org/2000/svg" viewBox="0 0 512 640" x="0px" y="0px"><path d="M264.456705,303.18418c-.8181853,33.3850865,8.7575987,41.0856608,24.5058338,66.962709,4.6377486,12.375564-2.7784285,46.9478942-15.9935293,51.1160335,0,0-5.2894665,.965908-5.289963,.9664045-5.4529546,.6551937-15.7802623,9.2645732-9.035665,14.1169542-.1968809-7.443363,6.4830412-12.5708311,13.6048901-9.4774677-12.4442116,.7721305-14.2109257,14.3814896,.1881913,12.2910269-2.7039465-8.009799,6.3761595-14.931167,13.7181028-11.7965902-6.1427824,.0132826-13.6570275,5.8280958-9.0346719,12.1290284,5.9012123,1.7670865,14.5684395-.6728211,17.7731536-6.2530158,2.061663-4.8965737,3.336299-15.0412763,4.7877058-20.2598607,3.0699016-13.8869288,10.8537717-26.3065613,14.9890148-39.6484057-5.3376315-17.9416071-14.0815752-30.4463974-4.6725069-50.0590092,2.2627645-4.7841058,5.609491-8.7945915,10.0992686-11.6299987l-4.0672161-28.81822c-19.7302934-10.1527715-38.5866641,6.8856167-51.5726085,20.3604115Z"/><path d="M35.1617471,129.1714087c-2.7464012-1.4219864-6.959478-1.0641622-9.9892834-1.1442304l-.2462873,.494809c3.2786996,.759841,6.7902797,1.214678,10.1599715,1.1987885l.0755993-.5493671Z"/><path d="M81.8912848,97.8275026c-3.8000739,1.4063451-1.3632697,9.841809,2.5487755,6.6439224,.6656212-2.1939307,.3381485-6.3869594-2.5487755-6.6439224Z"/><path d="M129.6504127,449.718415c5.006683-12.2649581-5.5964566-24.5021097,9.090161-33.9368743-4.2187871-10.4934027-4.651776-21.6704265-3.0789636-32.7610511l2.9914472-41.0855367c-16.2164788-5.5856567-30.720119-14.2973248-42.4944887-26.8753559,2.1498001,11.7073359,8.8027845,21.5601931,12.5060317,32.7586925,6.121555,18.5117672,8.3418648,38.4153554,8.7568539,57.8442448,1.3738213,16.370036-2.2029306,31.0801155-20.3313635,34.5599166-4.4363988,2.3800737-10.5858846,13.6051384-2.570996,15.3284046l.2956937-.2803008c-1.3169667-7.8788347,5.1639642-15.9187989,13.4801327-13.6443656-10.1228546,2.9755576-16.3063538,17.4161363-.6383111,15.5679885-2.1929996-7.3305227,5.6767731-16.8009146,13.2574314-12.7601396-6.1520927,.7873993-13.1614737,7.6254716-8.516401,13.6951375,5.7966892,.6606557,14.0049828-3.6337306,17.2527723-8.4107607Z"/><path d="M471.8939141,206.2379794l-.0975715-.1991153c19.4231791-6.7012736,26.8085703-30.426039,23.4020099-49.1925348-2.1426001,8.4683601-6.0943691,17.1296287-13.3988231,22.3438683l-.0985646-.2532389c13.5336356-12.2324343,15.5220579-34.9703126,7.1105524-50.6150797-.7967096,7.9314066-1.5445093,16.4265803-6.646281,22.9010561,5.5364986-11.4459039,4.4917638-23.9814181,2.8717793-36.1903285-1.8958163-10.3622523-1.501558-21.3224091,4.9312078-30.1122213-52.5659507,28.9464532-8.3253546,73.2492418-31.6136552,112.1231584-17.6145068,29.0889622-57.348691,29.5240615-81.3115506,8.0457986,6.6296467,9.5184328,10.5546021,20.4227281,13.7861298,31.4659325,7.3431847,8.878632,19.4917026,14.1654916,31.0893016,13.0228129-7.1271868-2.6434919-13.4867119-6.850486-16.558848-14.0420997,12.8287872,13.1187706,33.1206752,16.8168041,48.6720294,6.1355825-7.8029872,.1097369-14.954753-.7034829-21.9339688-4.4424815,16.0719837,4.0017961,36.3949059,1.9231264,45.0365609-14.2836698-7.8213594,4.0838505-16.271099,4.9145735-24.8496925,3.1649903,20.2702882,1.7798726,38.8138344-14.2325255,40.087229-34.5214342-4.6556243,7.4586319-11.7485493,12.9588825-20.4778448,14.6490042Z"/><path d="M30.4958195,151.9197145c.3802308-3.5153042-.9783216-7.8157733-.6160906-11.461421-6.8193277-1.649529-10.0606621-7.9248895-12.0161881-14.0812649-1.4381241,6.2728777-1.5646195,15.4424242,2.0452769,21.0586186,2.1426001,3.4032087,6.5844609,5.995308,10.5870018,4.4840673Z"/><path d="M46.6828779,101.7945404c1.4550067-1.6730529,1.1544717-5.4468719-.9665287-6.4878826l-.8749157,.1048955c-1.5392956,1.8267342-1.4883995,7.0433945,1.8414444,6.382987Z"/><path d="M121.2312107,97.2590184c10.3337629-8.4069124,23.0490891-16.2563888,30.548562-27.4879707,10.3358732-14.4878127-10.8679233-11.9384165-22.9871449-24.3028702-20.2752537-19.4015793-26.3738434-1.979981-28.3873413,18.0525233-.7408481,14.3940274-2.9147306,55.4811158,20.8259243,33.7383176Z"/><path d="M32.6214129,72.0418191c13.2375695-14.1110577,13.4037886-19.3748278,33.7989584-26.2400861-5.4277548-6.1657477-13.1329222-10.7816482-21.2230377-12.3258472-11.7757353-.1169989-12.4162808,22.467943-18.7971575,30.3354192-2.536486,5.0567722-8.2841412,10.0174625-10.400176,15.2392744,5.6377942,.5302501,12.3605434-3.4218913,16.6214129-7.0087603Z"/><path d="M377.5028201,327.585863c3.0587293-12.8850212,9.3723238-24.9180919,11.6623984-38.0510141,13.6041453-58.4612044-28.8175993-126.5997367-92.8684328-122.4035424-44.8947967-.5543947-89.253571,26.7421571-128.8181843-9.4939778,.5903943,3.7886533,1.1986644,7.8682831,1.0725414,11.7048532-3.973617-7.7225466-5.4888301-16.2226857-7.814656-24.4955304-3.7921291-11.7580458-10.8486821-22.705789-18.0278821-32.6456039,.9156326,36.9421006-22.3855783,72.3233059-56.162192,86.988572l-.095337-.1859568c38.6616427-21.0760598,61.9268539-65.8289061,50.2634624-109.3498815-8.3843195,5.5776499-17.9661862,17.7725949-28.8292681,17.5049561-16.8626106-3.9634999-11.5337928-46.0157515-8.5105666-58.6237615-25.6795466-7.0656149-60.9873871,6.336684-64.0818677,35.5867136l.5449603,.2000464c-4.6322866,6.8020106-2.9996402,19.1499541,.1941499,26.4592495l4.6695276-3.3219612c-8.4127468-4.1171191-2.5960716-22.0294299,6.2506572-15.001925,9.552198,15.1403995-14.1946638,22.5342941-22.6729548,30.7748633,6.0121906,.4526026,16.6163233-.93866,19.5255919,5.5067058-1.2176573,5.3341557-7.1199868,10.0350899-12.2428618,11.5678683-3.4925872,23.5267052,31.4144157,15.6090157,40.4256258,3.9774032,5.7395863-8.9946999,8.7130336-13.7883021,17.4696392-4.0841608-8.33032-5.3881552-13.3702717,3.5526694-18.2406525,8.9531761-10.5325058,9.1625328-26.8973281,12.5781551-39.3755531,5.5439468-.8083784,.2029636-3.6907094,1.124803-4.6100661,1.3554491-1.5698332,3.4467807,4.4912672,5.8711712,6.8749409,7.0181947,17.0417399,8.3921401,31.3939332-4.7459958,47.1023203-9.1126298,25.5730373-.3374037,40.5680106,2.029884,43.5105479-29.3648561,.6127389,29.633488-14.8982708,33.4951337-40.8999523,31.8246256-8.5272009,2.0823938-17.3358198,6.2712639-24.7091697,10.9995082,4.3954337,11.8636241,12.156835,22.2179937,21.2481133,30.9147654l-.2136393,.0743579c-7.3097919-5.9369637-14.2604562-13.2771691-19.0829203-21.4093669,1.475241,27.9250561,10.4144518,58.4927352,33.8672336,75.7170802,29.0085216-14.2253255,52.0253352-39.1315003,66.5132099-67.8259559l.142509,.2768249c-12.3017026,29.9941673-35.3617158,56.8980746-66.4813068,67.9099965-12.0132088-6.8985269-20.8876202-17.5852105-26.796529-30.0584701-2.0192082,48.4840864,20.8716066,97.7192001,68.8421393,114.5039769-11.9030996-17.3808815-17.4145225-39.4043528-14.5683154-60.3068695,.4364648,58.971034,31.9873068,50.0541679,30.1407728,113.2136996-.1339435,13.6299657,1.65226,34.6458192-.6425318,47.9306848-1.5635022,15.0967655-17.8696078,15.2309573-24.2384432,26.3070579-2.7054361,4.4829501-.5368914,9.7475892,4.881429,10.1392406-1.5092545-7.8270697,5.1186543-20.527003,14.1726916-14.8548229-12.8774488,.0422065-15.2263642,22.4673844,.4634024,17.9820757-4.9878142-7.4369079,2.3553705-18.8588535,11.2927192-15.5975331-6.2756087,1.4424689-13.0955571,9.1960497-6.9170233,14.7355275,21.1447074-2.8340418,13.9030666-13.3094447,16.8902931-28.8166062,.4801609-4.7844782,4.3050621-9.0758853,6.6236882-12.7700705-2.8563864-18.7096411-.8286127-37.7456377,4.6307969-55.8412985,3.3801193-11.9327682,8.7439437-24.2174641,6.0449627-36.8343499-1.5016821-6.0057355-3.81286-12.4588597-1.2239883-18.4942639,5.9089088-12.169497,12.8529939-25.6624158,16.3917599-38.8850889-1.2454639,9.9633389-4.5652527,19.7547483-8.4633946,28.9959838-3.7598536,7.3978049-7.3947014,15.4974788-4.0790091,23.7538134,67.3305262-4.3506203,86.1842901-77.5392834,127.4905419-59.2831138-1.4797099-19.7697689-19.1518162-32.7831474-38.0265592-33.7134282,54.8076119-1.4087037,34.9785057,61.5087614,55.863519,93.6547149,13.1403704,24.2041815,35.3186403,22.798457,33.7994549,56.5427953-.6388077,13.9060458-3.7782258,29.6671911-12.4538943,40.8396218-5.7490207,4.7694577-15.3855075,1.7343144-19.158023,9.6852726-2.6659606,4.3704822-2.7670079,10.7153592,3.1595283,12.1082976-1.8459133-8.1561562,4.5178325-15.5256579,12.9591308-13.97879-11.661157,2.8120696-15.01558,18.7943024,.7269447,15.2336883-2.8536554-7.9970129,4.7514578-16.1166729,12.8873798-13.1680529-6.122424,.2735974-13.7461577,7.8270697-7.9276205,13.1571289,5.9493774,1.9714156,13.5502699-1.2717809,16.2706025-7.0050362,3.2191139-7.3456674,3.0795842-18.3323896,5.1526678-26.1331423,2.2081443-11.6621501,7.1100559-24.2232985,11.3423739-35.3538952,11.6822603-25.1538275-20.1113932-23.251432-13.1314326-63.1777798ZM36.5356926,83.6095012c1.2053677-5.1004062,4.4232403-13.4204229,11.1921684-10.7138696,2.6014095,1.4901374,3.4862562,4.2888002,4.2854485,6.9710227-6.8275207-7.1513934-10.0766757-.0797579-15.477617,3.7428468Zm37.7383137,28.2303704c-8.0223368-5.4523959-1.8035827-23.7403446,8.3995883-18.2925417,9.794637,6.1273274,3.2532515,24.5245163-8.3995883,18.2925417Zm-3.5324351-30.2636682c1.6835425-5.2804666,6.7037563-9.5635565,12.450915-8.1215221,6.8116312,1.5941019,9.1265331,8.9420038,12.3890949,14.2566701-7.4549078-8.0940878-14.5418742-15.741842-24.8400099-6.135148Z"/><text x="0" y="527" fill="#000000" font-size="5px" font-weight="bold" font-family="'Helvetica Neue', Helvetica, Arial-Unicode, Arial, Sans-serif">Created by Deon</text><text x="0" y="532" fill="#000000" font-size="5px" font-weight="bold" font-family="'Helvetica Neue', Helvetica, Arial-Unicode, Arial, Sans-serif">from the Noun Project</text></svg>