<?xml version="1.0" encoding="utf-8"?>
<!-- Generator: Adobe Illustrator 16.0.0, SVG Export Plug-In . SVG Version: 6.00 Build 0)  -->
<!DOCTYPE svg PUBLIC "-//W3C//DTD SVG 1.1//EN" "http://www.w3.org/Graphics/SVG/1.1/DTD/svg11.dtd">
<svg version="1.1" id="Layer_1" xmlns="http://www.w3.org/2000/svg" xmlns:xlink="http://www.w3.org/1999/xlink" x="0px" y="0px"
	 width="412px" height="170px" viewBox="0 0 412 170" enable-background="new 0 0 412 170" xml:space="preserve">
<g id="Logo_1_">
	<path fill-rule="evenodd" clip-rule="evenodd" fill="none" d="M0,0.874c0,56.272,0,112.493,0,168.645
		c4.642,0.862,31.263,0.473,32.944-0.426c0.579-1.116-0.049-2.251-0.04-3.386c0.069-11.678,0.061-23.342,0.061-35.019
		c0-6.336-0.039-12.66-0.042-18.984c0-3.532,1.939-5.334,5.433-5.329c15.587,0.025,31.184-0.036,46.772,0
		c3.965,0,7.706-1.243,11.498-1.979c3.719-0.728,7.345-2.312,10.722-4.198c3.926-2.191,7.863-4.376,11.146-7.563
		c6.766-6.558,10.967-14.603,13.542-23.545c1.399-4.868,1.857-9.923,1.802-14.964c-0.037-4.673-0.494-9.294-1.322-13.946
		c-1.119-6.358-3.598-12.044-6.85-17.336c-3.732-6.087-8.826-11-15.239-14.469c-4.812-2.612-9.714-5.055-15.002-6.345
		C90.182,0.75,84.81,0.049,79.342,0.052C53.859,0.127,28.378,0.088,2.888,0.106C1.936,0.106,0.913-0.09,0,0.874z M109.214,106.206
		c0.303,0.539,0.658,0.606,1.006,0.595c7.797-0.449,15.57-1.081,22.988-3.727c4.665-1.662,9.289-3.702,13.229-6.615
		c4.691-3.459,9.075-7.498,12.057-12.667c2.737-4.737,4.696-9.756,6.186-15.103c1.341-4.813,1.729-9.667,1.75-14.444
		c0.04-5.51-0.261-11.072-1.763-16.595c-2.27-8.348-6.061-15.628-12.068-21.789c-3.613-3.705-7.702-6.767-12.383-9.048
		c-4.621-2.264-9.399-3.936-14.42-5.168c-4.375-1.062-8.822-0.771-13.191-1.444c-1.083-0.169-2.442-0.564-3.509,0.634
		c0.921,1.001,1.968,1.626,3.1,2.14c8.928,4.112,14.984,11.279,19.871,19.421c3.546,5.929,5.485,12.541,6.674,19.417
		c1.915,11.095,0.998,21.992-2.239,32.588c-1.547,5.077-3.999,9.98-7.257,14.408c-4.93,6.7-10.616,12.384-18.306,15.831
		C110.257,104.943,109.365,105.138,109.214,106.206z M143.083,0.731c0.837,2.403,2.972,2.886,4.489,3.787
		c4.038,2.379,7.542,5.417,10.564,8.8c5.404,6.048,9.305,13,11.521,21.008c1.852,6.694,2.585,13.379,2.573,20.268
		c-0.012,5.908-0.7,11.68-2.573,17.297c-0.36,1.083-0.3,2.333-0.746,3.368c-2.482,5.793-5.134,11.477-9.287,16.327
		c-4.368,5.104-9.077,9.734-15.324,12.532c-1.025,0.449-2.403,0.711-2.785,2.008c0.47,0.906,1.116,0.771,1.726,0.723
		c6.732-0.546,13.409-1.274,19.896-3.404c4.945-1.626,9.669-3.805,13.807-6.767c12.046-8.6,18.278-20.769,19.965-35.307
		c0.975-8.372,0.641-16.735-1.641-24.892c-1.493-5.308-3.78-10.245-6.978-14.845c-3.367-4.846-7.551-8.776-12.312-12.044
		c-7.287-5.019-15.633-7.468-24.292-8.888C148.841,0.231,145.983,0.364,143.083,0.731z M38.681,112.651c0,19.093,0,37.81,0,56.605
		c9.028,0,17.851,0,26.642,0c0-19.015,0-37.749,0-56.605C56.425,112.651,47.749,112.651,38.681,112.651z M96.268,169.73
		c0-19.22,0-38.071,0-56.879c-2.897-0.831-22.966-0.504-24.768,0.396c0,18.605,0,37.25,0,56.302
		C79.758,169.907,87.867,169.652,96.268,169.73z"/>
	<path fill-rule="evenodd" clip-rule="evenodd" fill="#1B3E6C" d="M0,0.874C0.913-0.09,1.936,0.106,2.888,0.106
		c25.49-0.019,50.971,0.021,76.455-0.055C84.81,0.049,90.182,0.75,95.424,2.03c5.289,1.291,10.191,3.733,15.002,6.345
		c6.414,3.469,11.507,8.382,15.239,14.469c3.252,5.292,5.731,10.979,6.85,17.336c0.828,4.652,1.286,9.273,1.322,13.946
		c0.055,5.041-0.403,10.096-1.802,14.964c-2.576,8.942-6.777,16.987-13.542,23.545c-3.283,3.187-7.22,5.371-11.146,7.563
		c-3.376,1.887-7.002,3.471-10.722,4.198c-3.792,0.735-7.533,1.979-11.498,1.979c-15.588-0.036-31.185,0.025-46.772,0
		c-3.494-0.005-5.433,1.797-5.433,5.329c0.003,6.324,0.042,12.648,0.042,18.984c0,11.677,0.009,23.341-0.061,35.019
		c-0.009,1.135,0.618,2.27,0.04,3.386c-1.682,0.898-28.303,1.288-32.944,0.426C0,113.367,0,57.146,0,0.874z M33.199,79.259
		c1.578,2.537,3.504,3.438,6.222,3.326c9.863-0.395,19.766,0.58,29.61-0.588c4.742-0.565,9.517-0.44,14.235-1.779
		c9.432-2.673,15.621-8.636,17.848-17.922c1.66-6.897,1.617-14.08-1.013-20.999c-2.333-6.179-6.636-10.433-12.475-13.161
		c-6.316-2.944-13.191-3.486-19.987-3.72c-9.792-0.34-19.601-0.088-29.394-0.085c-3.51,0-5.045,1.523-5.045,4.971
		c0,15.864,0,31.732,0,47.596C33.199,77.781,33.199,78.662,33.199,79.259z"/>
	<path fill-rule="evenodd" clip-rule="evenodd" fill="#689ACC" d="M109.214,106.206c0.151-1.068,1.043-1.263,1.726-1.566
		c7.69-3.447,13.376-9.131,18.306-15.831c3.258-4.427,5.709-9.331,7.257-14.408c3.237-10.597,4.153-21.494,2.239-32.588
		c-1.189-6.876-3.128-13.488-6.674-19.417c-4.887-8.143-10.943-15.31-19.871-19.421c-1.132-0.513-2.179-1.138-3.1-2.14
		c1.067-1.199,2.426-0.804,3.509-0.634c4.369,0.674,8.817,0.383,13.191,1.444c5.021,1.232,9.799,2.904,14.42,5.168
		c4.681,2.282,8.771,5.344,12.383,9.048c6.007,6.16,9.799,13.44,12.068,21.789c1.502,5.523,1.803,11.085,1.763,16.595
		c-0.021,4.777-0.41,9.632-1.75,14.444c-1.489,5.347-3.449,10.366-6.186,15.103c-2.982,5.168-7.366,9.208-12.057,12.667
		c-3.94,2.913-8.564,4.953-13.229,6.615c-7.418,2.646-15.191,3.277-22.988,3.727C109.872,106.813,109.517,106.745,109.214,106.206z"
		/>
	<path fill-rule="evenodd" clip-rule="evenodd" fill="#696969" d="M143.083,0.731c2.9-0.367,5.758-0.5,8.606-0.03
		c8.658,1.42,17.004,3.869,24.292,8.888c4.76,3.268,8.944,7.198,12.312,12.044c3.197,4.6,5.485,9.537,6.978,14.845
		c2.282,8.157,2.616,16.52,1.641,24.892c-1.687,14.539-7.918,26.708-19.965,35.307c-4.138,2.962-8.862,5.141-13.807,6.767
		c-6.487,2.13-13.164,2.858-19.896,3.404c-0.61,0.049-1.256,0.184-1.726-0.723c0.382-1.297,1.759-1.559,2.785-2.008
		c6.247-2.798,10.956-7.428,15.324-12.532c4.153-4.85,6.805-10.533,9.287-16.327c0.446-1.035,0.385-2.285,0.746-3.368
		c1.873-5.617,2.561-11.389,2.573-17.297c0.012-6.889-0.722-13.574-2.573-20.268c-2.217-8.008-6.118-14.96-11.521-21.008
		c-3.022-3.384-6.526-6.421-10.564-8.8C146.055,3.617,143.92,3.135,143.083,0.731z"/>
	<path fill-rule="evenodd" clip-rule="evenodd" fill="#689ACC" d="M38.681,112.651c9.068,0,17.744,0,26.642,0
		c0,18.856,0,37.591,0,56.605c-8.792,0-17.614,0-26.642,0C38.681,150.461,38.681,131.744,38.681,112.651z"/>
	<path fill-rule="evenodd" clip-rule="evenodd" fill="#696969" d="M96.268,169.73c-8.401-0.078-16.51,0.177-24.768-0.182
		c0-19.052,0-37.696,0-56.302c1.801-0.899,21.871-1.227,24.768-0.396C96.268,131.659,96.268,150.511,96.268,169.73z"/>
	<path fill-rule="evenodd" clip-rule="evenodd" fill="none" d="M33.199,79.259c0-0.598,0-1.479,0-2.361c0-15.864,0-31.732,0-47.596
		c0-3.448,1.536-4.971,5.045-4.971c9.793-0.003,19.602-0.255,29.394,0.085c6.796,0.234,13.67,0.776,19.987,3.72
		c5.839,2.729,10.142,6.982,12.475,13.161c2.63,6.918,2.673,14.101,1.013,20.999c-2.227,9.286-8.416,15.249-17.848,17.922
		c-4.718,1.338-9.493,1.214-14.235,1.779c-9.844,1.168-19.747,0.194-29.61,0.588C36.703,82.697,34.777,81.796,33.199,79.259z
		 M38.586,29.842c-0.74,2.989-0.613,44.735,0.048,46.604c3.004,0.689,25.242,0.5,26.974-0.237c0.68-3.969,0.385-44.538-0.397-46.368
		C56.404,29.842,47.552,29.842,38.586,29.842z M71.249,76.009c0.585,0.173,0.916,0.361,1.237,0.358
		c5.794-0.045,11.368-1.032,16.225-4.388c3.374-2.33,5.555-5.556,6.783-9.585c1.496-4.925,1.271-9.896,0.755-14.827
		c-0.458-4.394-2.309-8.4-5.803-11.392c-5.363-4.585-11.844-5.699-18.598-5.972c-0.142,0-0.288,0.182-0.6,0.391
		C71.249,45.594,71.249,60.694,71.249,76.009z"/>
	<path fill-rule="evenodd" clip-rule="evenodd" fill="#689ACC" d="M38.586,29.842c8.965,0,17.818,0,26.625,0
		c0.783,1.83,1.078,42.398,0.397,46.368c-1.732,0.737-23.969,0.926-26.974,0.237C37.974,74.577,37.846,32.831,38.586,29.842z"/>
	<path fill-rule="evenodd" clip-rule="evenodd" fill="#696969" d="M71.249,76.009c0-15.315,0-30.416,0-45.415
		c0.312-0.209,0.458-0.391,0.6-0.391c6.754,0.273,13.235,1.387,18.598,5.972c3.495,2.992,5.345,6.998,5.803,11.392
		c0.516,4.931,0.74,9.901-0.755,14.827c-1.229,4.029-3.41,7.255-6.783,9.585c-4.857,3.356-10.431,4.343-16.225,4.388
		C72.165,76.37,71.834,76.182,71.249,76.009z"/>
</g>
<g>
	<g>
		<path fill="#1B3E6C" d="M107.333,138.473v-26.127h11.779c3.049,0,5.365,0.867,6.951,2.599c1.39,1.488,2.085,3.416,2.085,5.781
			c0,2.367-0.695,4.293-2.085,5.782c-1.585,1.731-3.902,2.598-6.951,2.598h-6.036v9.367H107.333z M113.076,116.811v7.83h4.463
			c1.561,0,2.731-0.231,3.513-0.695c1.024-0.634,1.536-1.706,1.536-3.22c0-1.513-0.512-2.586-1.536-3.22
			c-0.781-0.463-1.952-0.695-3.513-0.695H113.076z"/>
		<path fill="#1B3E6C" d="M129.469,138.473l9.914-26.127h5.89l9.767,26.127h-5.962l-1.976-5.817h-9.768l-2.048,5.817H129.469z
			 M142.236,118.786l-3.402,9.588h6.768l-3.292-9.588H142.236z"/>
		<path fill="#1B3E6C" d="M160.052,138.473v-26.127h14.084c2.292,0,4.158,0.708,5.597,2.123c1.366,1.366,2.049,3.062,2.049,5.087
			c0,3.244-1.378,5.427-4.133,6.549v0.074c2.292,0.585,3.561,2.621,3.805,6.11c0.073,1.049,0.146,2.099,0.219,3.146
			c0.146,1.414,0.438,2.428,0.878,3.037h-5.744c-0.269-0.659-0.476-1.646-0.622-2.964c-0.098-1.099-0.195-2.195-0.292-3.294
			c-0.195-1.413-0.616-2.427-1.262-3.036c-0.647-0.609-1.677-0.915-3.091-0.915h-5.744v10.209H160.052z M165.795,116.811v7.354
			h6.292c2.634,0,3.951-1.243,3.951-3.732c0-2.414-1.317-3.622-3.951-3.622H165.795z"/>
		<path fill="#1B3E6C" d="M186.999,138.473l9.914-26.127h5.89l9.767,26.127h-5.962l-1.976-5.817h-9.768l-2.049,5.817H186.999z
			 M199.766,118.786l-3.402,9.588h6.768l-3.292-9.588H199.766z"/>
		<path fill="#1B3E6C" d="M217.581,138.473v-26.127h11.27c3.536,0,6.352,1.074,8.449,3.221c2.27,2.268,3.402,5.501,3.402,9.696
			c0,3.952-0.976,7.1-2.927,9.441c-2.097,2.512-5.073,3.769-8.925,3.769H217.581z M223.325,117.176v16.467h5.122
			c1.854,0,3.354-0.585,4.5-1.756c1.34-1.366,2.012-3.391,2.012-6.074c0-2.806-0.536-4.903-1.609-6.295
			c-1.219-1.561-3.196-2.342-5.927-2.342H223.325z"/>
		<path fill="#1B3E6C" d="M247.29,138.473v-26.127h5.744v26.127H247.29z"/>
		<path fill="#1B3E6C" d="M280.183,138.473l-0.586-2.964c-1.854,2.392-4.244,3.586-7.171,3.586c-3.926,0-7.073-1.317-9.438-3.952
			c-2.269-2.512-3.401-5.721-3.401-9.623c0-4.001,1.133-7.27,3.401-9.807c2.341-2.659,5.488-3.989,9.438-3.989
			c2.805,0,5.231,0.794,7.28,2.38c2.194,1.707,3.439,3.987,3.732,6.842h-5.487c-0.318-1.415-0.97-2.5-1.957-3.257
			c-0.987-0.756-2.178-1.134-3.568-1.134c-2.413,0-4.242,0.927-5.487,2.781c-1.073,1.586-1.609,3.646-1.609,6.184
			c0,2.44,0.536,4.439,1.609,6.001c1.269,1.83,3.098,2.744,5.487,2.744c3.807,0,5.878-1.878,6.22-5.635h-5.779v-4.281h10.974v14.124
			H280.183z"/>
		<path fill="#1B3E6C" d="M291.222,138.473v-26.127h8.086l6.108,17.968h0.073l5.78-17.968h8.085v26.127h-5.378v-18.515h-0.073
			l-6.402,18.515h-4.426l-6.402-18.333h-0.072v18.333H291.222z"/>
	</g>
	<g>
		<path fill="#689ACC" d="M339.683,138.473v-26.127h11.78c3.048,0,5.364,0.867,6.95,2.599c1.391,1.488,2.085,3.416,2.085,5.781
			c0,2.367-0.694,4.293-2.085,5.782c-1.586,1.731-3.902,2.598-6.95,2.598h-6.036v9.367H339.683z M345.427,116.811v7.83h4.463
			c1.561,0,2.731-0.231,3.512-0.695c1.023-0.634,1.536-1.706,1.536-3.22c0-1.513-0.513-2.586-1.536-3.22
			c-0.78-0.463-1.951-0.695-3.512-0.695H345.427z"/>
		<path fill="#689ACC" d="M366.121,138.473v-26.127h19.535v4.83h-13.791v5.6h12.657v4.464h-12.657v6.403h14.084v4.83H366.121z"/>
		<path fill="#689ACC" d="M398.427,138.473v-21.297h-7.829v-4.83H412v4.83h-7.828v21.297H398.427z"/>
	</g>
	<g>
		<path fill="#696969" d="M107.334,169.118v-26.126h11.779c3.048,0,5.365,0.866,6.951,2.598c1.391,1.487,2.085,3.416,2.085,5.781
			c0,2.367-0.695,4.294-2.085,5.782c-1.585,1.731-3.902,2.598-6.951,2.598h-6.036v9.367H107.334z M113.077,147.455v7.831h4.463
			c1.561,0,2.731-0.23,3.513-0.695c1.024-0.634,1.536-1.707,1.536-3.22s-0.512-2.586-1.536-3.221
			c-0.781-0.463-1.952-0.695-3.513-0.695H113.077z"/>
		<path fill="#696969" d="M131.064,169.118v-26.126h14.084c2.292,0,4.158,0.708,5.597,2.121c1.366,1.366,2.049,3.063,2.049,5.087
			c0,3.245-1.378,5.429-4.134,6.551v0.072c2.292,0.586,3.561,2.623,3.805,6.11c0.073,1.05,0.146,2.1,0.219,3.146
			c0.146,1.416,0.439,2.429,0.878,3.038h-5.744c-0.268-0.658-0.475-1.646-0.622-2.964c-0.098-1.098-0.195-2.195-0.292-3.293
			c-0.196-1.415-0.617-2.428-1.263-3.038c-0.646-0.609-1.678-0.915-3.091-0.915h-5.744v10.21H131.064z M136.808,147.455v7.356h6.292
			c2.634,0,3.951-1.244,3.951-3.733c0-2.415-1.317-3.623-3.951-3.623H136.808z"/>
		<path fill="#696969" d="M155.877,156.165c0-4.001,1.135-7.27,3.403-9.807c2.34-2.658,5.487-3.988,9.438-3.988
			c3.951,0,7.097,1.33,9.438,3.988c2.269,2.537,3.402,5.806,3.402,9.807c0,3.902-1.134,7.11-3.402,9.623
			c-2.366,2.635-5.512,3.952-9.438,3.952c-3.927,0-7.073-1.317-9.438-3.952C157.012,163.275,155.877,160.067,155.877,156.165z
			 M161.621,156.165c0,2.439,0.537,4.439,1.61,6c1.268,1.83,3.097,2.745,5.488,2.745c2.39,0,4.219-0.915,5.487-2.745
			c1.073-1.561,1.609-3.561,1.609-6c0-2.537-0.536-4.599-1.609-6.185c-1.244-1.854-3.073-2.781-5.487-2.781
			c-2.415,0-4.244,0.928-5.488,2.781C162.158,151.566,161.621,153.628,161.621,156.165z"/>
		<path fill="#696969" d="M185.335,169.118v-26.126H203.7v4.829h-12.622v6.038h10.938v4.465h-10.938v10.794H185.335z"/>
		<path fill="#696969" d="M206.615,169.118v-26.126h19.533v4.829h-13.79v5.599h12.655v4.464h-12.655v6.405h14.083v4.829H206.615z"/>
		<path fill="#696969" d="M228.622,160.446h5.561c0,1.634,0.585,2.879,1.757,3.732c0.999,0.731,2.341,1.098,4.024,1.098
			c1.316,0,2.413-0.208,3.292-0.622c1.195-0.562,1.793-1.438,1.793-2.635c0-1.488-1.342-2.61-4.025-3.367
			c-4.633-1.316-7.134-2.073-7.5-2.268c-2.683-1.294-4.023-3.331-4.023-6.11c0-2.514,1.037-4.502,3.11-5.965
			c1.853-1.294,4.072-1.939,6.657-1.939c3.001,0,5.428,0.646,7.28,1.939c2.122,1.488,3.183,3.646,3.183,6.477h-5.56
			c-0.147-2.636-1.867-3.953-5.159-3.953c-1.049,0-1.939,0.221-2.67,0.659c-0.854,0.537-1.28,1.307-1.28,2.306
			c0,0.951,0.476,1.646,1.427,2.086c0.731,0.342,2.853,0.964,6.365,1.865c2.049,0.512,3.572,1.099,4.572,1.758
			c2.122,1.366,3.183,3.317,3.183,5.854c0,2.487-0.927,4.488-2.779,6c-1.952,1.587-4.646,2.379-8.086,2.379
			c-3.146,0-5.731-0.744-7.755-2.232C229.72,165.824,228.599,163.472,228.622,160.446z"/>
		<path fill="#696969" d="M252.649,160.446h5.561c0,1.634,0.585,2.879,1.756,3.732c0.999,0.731,2.341,1.098,4.024,1.098
			c1.316,0,2.414-0.208,3.292-0.622c1.195-0.562,1.793-1.438,1.793-2.635c0-1.488-1.341-2.61-4.024-3.367
			c-4.634-1.316-7.135-2.073-7.5-2.268c-2.684-1.294-4.024-3.331-4.024-6.11c0-2.514,1.037-4.502,3.11-5.965
			c1.853-1.294,4.072-1.939,6.659-1.939c2.999,0,5.426,0.646,7.278,1.939c2.123,1.488,3.183,3.646,3.183,6.477h-5.56
			c-0.146-2.636-1.867-3.953-5.158-3.953c-1.05,0-1.939,0.221-2.671,0.659c-0.854,0.537-1.28,1.307-1.28,2.306
			c0,0.951,0.476,1.646,1.427,2.086c0.731,0.342,2.853,0.964,6.365,1.865c2.049,0.512,3.572,1.099,4.573,1.758
			c2.121,1.366,3.183,3.317,3.183,5.854c0,2.487-0.928,4.488-2.779,6c-1.953,1.587-4.646,2.379-8.087,2.379
			c-3.145,0-5.731-0.744-7.754-2.232C253.746,165.824,252.625,163.472,252.649,160.446z"/>
		<path fill="#696969" d="M278.216,169.118v-26.126h5.744v26.126H278.216z"/>
		<path fill="#696969" d="M287.805,156.165c0-4.001,1.134-7.27,3.402-9.807c2.341-2.658,5.488-3.988,9.438-3.988
			c3.951,0,7.098,1.33,9.439,3.988c2.269,2.537,3.4,5.806,3.4,9.807c0,3.902-1.132,7.11-3.4,9.623
			c-2.367,2.635-5.513,3.952-9.439,3.952s-7.073-1.317-9.438-3.952C288.938,163.275,287.805,160.067,287.805,156.165z
			 M293.548,156.165c0,2.439,0.535,4.439,1.609,6c1.268,1.83,3.097,2.745,5.487,2.745s4.221-0.915,5.488-2.745
			c1.073-1.561,1.609-3.561,1.609-6c0-2.537-0.536-4.599-1.609-6.185c-1.244-1.854-3.073-2.781-5.488-2.781
			c-2.414,0-4.243,0.928-5.487,2.781C294.083,151.566,293.548,153.628,293.548,156.165z"/>
		<path fill="#696969" d="M317.261,169.118v-26.126h5.733l10.948,17.527v-17.527h5.379v26.126h-5.771l-10.912-17.49v17.49H317.261z"
			/>
		<path fill="#696969" d="M341.625,169.118l9.914-26.126h5.89l9.768,26.126h-5.962l-1.976-5.818h-9.769l-2.048,5.818H341.625z
			 M354.393,149.432l-3.402,9.587h6.768l-3.292-9.587H354.393z"/>
		<path fill="#696969" d="M369.501,169.118v-26.126h5.744v21.297h12.731v4.829H369.501z"/>
		<path fill="#696969" d="M389.68,160.446h5.561c0,1.634,0.586,2.879,1.758,3.732c0.998,0.731,2.341,1.098,4.024,1.098
			c1.316,0,2.413-0.208,3.292-0.622c1.194-0.562,1.792-1.438,1.792-2.635c0-1.488-1.341-2.61-4.024-3.367
			c-4.633-1.316-7.134-2.073-7.5-2.268c-2.683-1.294-4.023-3.331-4.023-6.11c0-2.514,1.037-4.502,3.11-5.965
			c1.853-1.294,4.071-1.939,6.657-1.939c3,0,5.428,0.646,7.279,1.939c2.123,1.488,3.184,3.646,3.184,6.477h-5.561
			c-0.146-2.636-1.866-3.953-5.158-3.953c-1.049,0-1.94,0.221-2.67,0.659c-0.855,0.537-1.28,1.307-1.28,2.306
			c0,0.951,0.475,1.646,1.426,2.086c0.73,0.342,2.854,0.964,6.366,1.865c2.047,0.512,3.572,1.099,4.572,1.758
			c2.121,1.366,3.183,3.317,3.183,5.854c0,2.487-0.927,4.488-2.78,6c-1.953,1.587-4.646,2.379-8.085,2.379
			c-3.146,0-5.732-0.744-7.756-2.232C390.778,165.824,389.657,163.472,389.68,160.446z"/>
	</g>
</g>
</svg>
