<?xml version="1.0" encoding="UTF-8" standalone="no"?>
<!-- Generator: Adobe Illustrator 16.0.0, SVG Export Plug-In . SVG Version: 6.00 Build 0)  -->

<svg
   version="1.1"
   id="Layer_1"
   x="0px"
   y="0px"
   width="415.42407"
   height="171.41255"
   viewBox="0 0 415.42407 171.41255"
   enable-background="new 0 0 412 170"
   xml:space="preserve"
   sodipodi:docname="PPP-Logo-412X170.svg"
   inkscape:version="1.3.2 (1:1.3.2+202311252150+091e20ef0f)"
   xmlns:inkscape="http://www.inkscape.org/namespaces/inkscape"
   xmlns:sodipodi="http://sodipodi.sourceforge.net/DTD/sodipodi-0.dtd"
   xmlns="http://www.w3.org/2000/svg"
   xmlns:svg="http://www.w3.org/2000/svg"><defs
   id="defs34" /><sodipodi:namedview
   id="namedview34"
   pagecolor="#ffffff"
   bordercolor="#999999"
   borderopacity="1"
   inkscape:showpageshadow="2"
   inkscape:pageopacity="0"
   inkscape:pagecheckerboard="0"
   inkscape:deskcolor="#d1d1d1"
   inkscape:zoom="1.7669903"
   inkscape:cx="207.41483"
   inkscape:cy="85.739011"
   inkscape:window-width="1600"
   inkscape:window-height="773"
   inkscape:window-x="0"
   inkscape:window-y="0"
   inkscape:window-maximized="1"
   inkscape:current-layer="g34" />

<g
   id="g34"
   transform="translate(1.7120282,0.70627248)">
	
	
	<g
   id="g1"
   transform="matrix(2.1426568,0,0,2.1426568,-1.7098855,-0.70744486)"><g
     id="Logo_1_"
     transform="matrix(0.47058791,0,0,0.47058791,-5.2941209e-4,2.8967521e-4)">
	<path
   fill-rule="evenodd"
   clip-rule="evenodd"
   fill="none"
   d="m 0,0.874 c 0,56.272 0,112.493 0,168.645 4.642,0.862 31.263,0.473 32.944,-0.426 0.579,-1.116 -0.049,-2.251 -0.04,-3.386 0.069,-11.678 0.061,-23.342 0.061,-35.019 0,-6.336 -0.039,-12.66 -0.042,-18.984 0,-3.532 1.939,-5.334 5.433,-5.329 15.587,0.025 31.184,-0.036 46.772,0 3.965,0 7.706,-1.243 11.498,-1.979 3.719,-0.728 7.345,-2.312 10.722,-4.198 3.926,-2.191 7.863,-4.376 11.146,-7.563 6.766,-6.558 10.967,-14.603 13.542,-23.545 1.399,-4.868 1.857,-9.923 1.802,-14.964 -0.037,-4.673 -0.494,-9.294 -1.322,-13.946 -1.119,-6.358 -3.598,-12.044 -6.85,-17.336 -3.732,-6.087 -8.826,-11 -15.239,-14.469 C 105.615,5.763 100.713,3.32 95.425,2.03 90.182,0.75 84.81,0.049 79.342,0.052 53.859,0.127 28.378,0.088 2.888,0.106 1.936,0.106 0.913,-0.09 0,0.874 Z m 109.214,105.332 c 0.303,0.539 0.658,0.606 1.006,0.595 7.797,-0.449 15.57,-1.081 22.988,-3.727 4.665,-1.662 9.289,-3.702 13.229,-6.615 4.691,-3.459 9.075,-7.498 12.057,-12.667 2.737,-4.737 4.696,-9.756 6.186,-15.103 1.341,-4.813 1.729,-9.667 1.75,-14.444 0.04,-5.51 -0.261,-11.072 -1.763,-16.595 -2.27,-8.348 -6.061,-15.628 -12.068,-21.789 -3.613,-3.705 -7.702,-6.767 -12.383,-9.048 -4.621,-2.264 -9.399,-3.936 -14.42,-5.168 -4.375,-1.062 -8.822,-0.771 -13.191,-1.444 -1.083,-0.169 -2.442,-0.564 -3.509,0.634 0.921,1.001 1.968,1.626 3.1,2.14 8.928,4.112 14.984,11.279 19.871,19.421 3.546,5.929 5.485,12.541 6.674,19.417 1.915,11.095 0.998,21.992 -2.239,32.588 -1.547,5.077 -3.999,9.98 -7.257,14.408 -4.93,6.7 -10.616,12.384 -18.306,15.831 -0.682,0.303 -1.574,0.498 -1.725,1.566 z M 143.083,0.731 c 0.837,2.403 2.972,2.886 4.489,3.787 4.038,2.379 7.542,5.417 10.564,8.8 5.404,6.048 9.305,13 11.521,21.008 1.852,6.694 2.585,13.379 2.573,20.268 -0.012,5.908 -0.7,11.68 -2.573,17.297 -0.36,1.083 -0.3,2.333 -0.746,3.368 -2.482,5.793 -5.134,11.477 -9.287,16.327 -4.368,5.104 -9.077,9.734 -15.324,12.532 -1.025,0.449 -2.403,0.711 -2.785,2.008 0.47,0.906 1.116,0.771 1.726,0.723 6.732,-0.546 13.409,-1.274 19.896,-3.404 4.945,-1.626 9.669,-3.805 13.807,-6.767 12.046,-8.6 18.278,-20.769 19.965,-35.307 0.975,-8.372 0.641,-16.735 -1.641,-24.892 -1.493,-5.308 -3.78,-10.245 -6.978,-14.845 C 184.923,16.788 180.739,12.858 175.978,9.59 168.691,4.571 160.345,2.122 151.686,0.702 148.841,0.231 145.983,0.364 143.083,0.731 Z M 38.681,112.651 c 0,19.093 0,37.81 0,56.605 9.028,0 17.851,0 26.642,0 0,-19.015 0,-37.749 0,-56.605 -8.898,0 -17.574,0 -26.642,0 z m 57.587,57.079 c 0,-19.22 0,-38.071 0,-56.879 -2.897,-0.831 -22.966,-0.504 -24.768,0.396 0,18.605 0,37.25 0,56.302 8.258,0.358 16.367,0.103 24.768,0.181 z"
   id="path1" />
	<path
   fill-rule="evenodd"
   clip-rule="evenodd"
   fill="#1b3e6c"
   d="M 0,0.874 C 0.913,-0.09 1.936,0.106 2.888,0.106 28.378,0.087 53.859,0.127 79.343,0.051 84.81,0.049 90.182,0.75 95.424,2.03 c 5.289,1.291 10.191,3.733 15.002,6.345 6.414,3.469 11.507,8.382 15.239,14.469 3.252,5.292 5.731,10.979 6.85,17.336 0.828,4.652 1.286,9.273 1.322,13.946 0.055,5.041 -0.403,10.096 -1.802,14.964 -2.576,8.942 -6.777,16.987 -13.542,23.545 -3.283,3.187 -7.22,5.371 -11.146,7.563 -3.376,1.887 -7.002,3.471 -10.722,4.198 -3.792,0.735 -7.533,1.979 -11.498,1.979 -15.588,-0.036 -31.185,0.025 -46.772,0 -3.494,-0.005 -5.433,1.797 -5.433,5.329 0.003,6.324 0.042,12.648 0.042,18.984 0,11.677 0.009,23.341 -0.061,35.019 -0.009,1.135 0.618,2.27 0.04,3.386 -1.682,0.898 -28.303,1.288 -32.944,0.426 C 0,113.367 0,57.146 0,0.874 Z m 33.199,78.385 c 1.578,2.537 3.504,3.438 6.222,3.326 9.863,-0.395 19.766,0.58 29.61,-0.588 4.742,-0.565 9.517,-0.44 14.235,-1.779 9.432,-2.673 15.621,-8.636 17.848,-17.922 1.66,-6.897 1.617,-14.08 -1.013,-20.999 C 97.768,35.118 93.465,30.864 87.626,28.136 81.31,25.192 74.435,24.65 67.639,24.416 57.847,24.076 48.038,24.328 38.245,24.331 c -3.51,0 -5.045,1.523 -5.045,4.971 0,15.864 0,31.732 0,47.596 -0.001,0.883 -0.001,1.764 -0.001,2.361 z"
   id="path2" />
	<path
   fill-rule="evenodd"
   clip-rule="evenodd"
   fill="#689acc"
   d="m 109.214,106.206 c 0.151,-1.068 1.043,-1.263 1.726,-1.566 7.69,-3.447 13.376,-9.131 18.306,-15.831 3.258,-4.427 5.709,-9.331 7.257,-14.408 3.237,-10.597 4.153,-21.494 2.239,-32.588 -1.189,-6.876 -3.128,-13.488 -6.674,-19.417 -4.887,-8.143 -10.943,-15.31 -19.871,-19.421 -1.132,-0.513 -2.179,-1.138 -3.1,-2.14 1.067,-1.199 2.426,-0.804 3.509,-0.634 4.369,0.674 8.817,0.383 13.191,1.444 5.021,1.232 9.799,2.904 14.42,5.168 4.681,2.282 8.771,5.344 12.383,9.048 6.007,6.16 9.799,13.44 12.068,21.789 1.502,5.523 1.803,11.085 1.763,16.595 -0.021,4.777 -0.41,9.632 -1.75,14.444 -1.489,5.347 -3.449,10.366 -6.186,15.103 -2.982,5.168 -7.366,9.208 -12.057,12.667 -3.94,2.913 -8.564,4.953 -13.229,6.615 -7.418,2.646 -15.191,3.277 -22.988,3.727 -0.349,0.012 -0.704,-0.056 -1.007,-0.595 z"
   id="path3" />
	<path
   fill-rule="evenodd"
   clip-rule="evenodd"
   fill="#696969"
   d="m 143.083,0.731 c 2.9,-0.367 5.758,-0.5 8.606,-0.03 8.658,1.42 17.004,3.869 24.292,8.888 4.76,3.268 8.944,7.198 12.312,12.044 3.197,4.6 5.485,9.537 6.978,14.845 2.282,8.157 2.616,16.52 1.641,24.892 -1.687,14.539 -7.918,26.708 -19.965,35.307 -4.138,2.962 -8.862,5.141 -13.807,6.767 -6.487,2.13 -13.164,2.858 -19.896,3.404 -0.61,0.049 -1.256,0.184 -1.726,-0.723 0.382,-1.297 1.759,-1.559 2.785,-2.008 6.247,-2.798 10.956,-7.428 15.324,-12.532 4.153,-4.85 6.805,-10.533 9.287,-16.327 0.446,-1.035 0.385,-2.285 0.746,-3.368 1.873,-5.617 2.561,-11.389 2.573,-17.297 0.012,-6.889 -0.722,-13.574 -2.573,-20.268 -2.217,-8.008 -6.118,-14.96 -11.521,-21.008 -3.022,-3.384 -6.526,-6.421 -10.564,-8.8 -1.52,-0.9 -3.655,-1.382 -4.492,-3.786 z"
   id="path4" />
	<path
   fill-rule="evenodd"
   clip-rule="evenodd"
   fill="#689acc"
   d="m 38.681,112.651 c 9.068,0 17.744,0 26.642,0 0,18.856 0,37.591 0,56.605 -8.792,0 -17.614,0 -26.642,0 0,-18.795 0,-37.512 0,-56.605 z"
   id="path5" />
	<path
   fill-rule="evenodd"
   clip-rule="evenodd"
   fill="#696969"
   d="m 96.268,169.73 c -8.401,-0.078 -16.51,0.177 -24.768,-0.182 0,-19.052 0,-37.696 0,-56.302 1.801,-0.899 21.871,-1.227 24.768,-0.396 0,18.809 0,37.661 0,56.88 z"
   id="path6" />
	<path
   fill-rule="evenodd"
   clip-rule="evenodd"
   fill="none"
   d="m 33.199,79.259 c 0,-0.598 0,-1.479 0,-2.361 0,-15.864 0,-31.732 0,-47.596 0,-3.448 1.536,-4.971 5.045,-4.971 9.793,-0.003 19.602,-0.255 29.394,0.085 6.796,0.234 13.67,0.776 19.987,3.72 5.839,2.729 10.142,6.982 12.475,13.161 2.63,6.918 2.673,14.101 1.013,20.999 -2.227,9.286 -8.416,15.249 -17.848,17.922 -4.718,1.338 -9.493,1.214 -14.235,1.779 -9.844,1.168 -19.747,0.194 -29.61,0.588 -2.717,0.112 -4.643,-0.789 -6.221,-3.326 z m 5.387,-49.417 c -0.74,2.989 -0.613,44.735 0.048,46.604 3.004,0.689 25.242,0.5 26.974,-0.237 0.68,-3.969 0.385,-44.538 -0.397,-46.368 -8.807,10e-4 -17.659,10e-4 -26.625,10e-4 z m 32.663,46.167 c 0.585,0.173 0.916,0.361 1.237,0.358 5.794,-0.045 11.368,-1.032 16.225,-4.388 3.374,-2.33 5.555,-5.556 6.783,-9.585 1.496,-4.925 1.271,-9.896 0.755,-14.827 -0.458,-4.394 -2.309,-8.4 -5.803,-11.392 -5.363,-4.585 -11.844,-5.699 -18.598,-5.972 -0.142,0 -0.288,0.182 -0.6,0.391 10e-4,15 10e-4,30.1 10e-4,45.415 z"
   id="path7" />
	<path
   fill-rule="evenodd"
   clip-rule="evenodd"
   fill="#689acc"
   d="m 38.586,29.842 c 8.965,0 17.818,0 26.625,0 0.783,1.83 1.078,42.398 0.397,46.368 -1.732,0.737 -23.969,0.926 -26.974,0.237 -0.66,-1.87 -0.788,-43.616 -0.048,-46.605 z"
   id="path8" />
	<path
   fill-rule="evenodd"
   clip-rule="evenodd"
   fill="#696969"
   d="m 71.249,76.009 c 0,-15.315 0,-30.416 0,-45.415 0.312,-0.209 0.458,-0.391 0.6,-0.391 6.754,0.273 13.235,1.387 18.598,5.972 3.495,2.992 5.345,6.998 5.803,11.392 0.516,4.931 0.74,9.901 -0.755,14.827 -1.229,4.029 -3.41,7.255 -6.783,9.585 -4.857,3.356 -10.431,4.343 -16.225,4.388 -0.322,0.003 -0.653,-0.185 -1.238,-0.358 z"
   id="path9" />
</g><g
     id="g17"
     transform="matrix(0.47058791,0,0,0.47058791,-5.2941209e-4,2.8967521e-4)">
		<path
   fill="#1b3e6c"
   d="m 107.333,138.473 v -26.127 h 11.779 c 3.049,0 5.365,0.867 6.951,2.599 1.39,1.488 2.085,3.416 2.085,5.781 0,2.367 -0.695,4.293 -2.085,5.782 -1.585,1.731 -3.902,2.598 -6.951,2.598 h -6.036 v 9.367 z m 5.743,-21.662 v 7.83 h 4.463 c 1.561,0 2.731,-0.231 3.513,-0.695 1.024,-0.634 1.536,-1.706 1.536,-3.22 0,-1.513 -0.512,-2.586 -1.536,-3.22 -0.781,-0.463 -1.952,-0.695 -3.513,-0.695 z"
   id="path10" />
		<path
   fill="#1b3e6c"
   d="m 129.469,138.473 9.914,-26.127 h 5.89 l 9.767,26.127 h -5.962 l -1.976,-5.817 h -9.768 l -2.048,5.817 z m 12.767,-19.687 -3.402,9.588 h 6.768 l -3.292,-9.588 z"
   id="path11" />
		<path
   fill="#1b3e6c"
   d="m 160.052,138.473 v -26.127 h 14.084 c 2.292,0 4.158,0.708 5.597,2.123 1.366,1.366 2.049,3.062 2.049,5.087 0,3.244 -1.378,5.427 -4.133,6.549 v 0.074 c 2.292,0.585 3.561,2.621 3.805,6.11 0.073,1.049 0.146,2.099 0.219,3.146 0.146,1.414 0.438,2.428 0.878,3.037 h -5.744 c -0.269,-0.659 -0.476,-1.646 -0.622,-2.964 -0.098,-1.099 -0.195,-2.195 -0.292,-3.294 -0.195,-1.413 -0.616,-2.427 -1.262,-3.036 -0.647,-0.609 -1.677,-0.915 -3.091,-0.915 h -5.744 v 10.209 h -5.744 z m 5.743,-21.662 v 7.354 h 6.292 c 2.634,0 3.951,-1.243 3.951,-3.732 0,-2.414 -1.317,-3.622 -3.951,-3.622 z"
   id="path12" />
		<path
   fill="#1b3e6c"
   d="m 186.999,138.473 9.914,-26.127 h 5.89 l 9.767,26.127 h -5.962 l -1.976,-5.817 h -9.768 l -2.049,5.817 z m 12.767,-19.687 -3.402,9.588 h 6.768 l -3.292,-9.588 z"
   id="path13" />
		<path
   fill="#1b3e6c"
   d="m 217.581,138.473 v -26.127 h 11.27 c 3.536,0 6.352,1.074 8.449,3.221 2.27,2.268 3.402,5.501 3.402,9.696 0,3.952 -0.976,7.1 -2.927,9.441 -2.097,2.512 -5.073,3.769 -8.925,3.769 z m 5.744,-21.297 v 16.467 h 5.122 c 1.854,0 3.354,-0.585 4.5,-1.756 1.34,-1.366 2.012,-3.391 2.012,-6.074 0,-2.806 -0.536,-4.903 -1.609,-6.295 -1.219,-1.561 -3.196,-2.342 -5.927,-2.342 z"
   id="path14" />
		<path
   fill="#1b3e6c"
   d="m 247.29,138.473 v -26.127 h 5.744 v 26.127 z"
   id="path15" />
		<path
   fill="#1b3e6c"
   d="m 280.183,138.473 -0.586,-2.964 c -1.854,2.392 -4.244,3.586 -7.171,3.586 -3.926,0 -7.073,-1.317 -9.438,-3.952 -2.269,-2.512 -3.401,-5.721 -3.401,-9.623 0,-4.001 1.133,-7.27 3.401,-9.807 2.341,-2.659 5.488,-3.989 9.438,-3.989 2.805,0 5.231,0.794 7.28,2.38 2.194,1.707 3.439,3.987 3.732,6.842 h -5.487 c -0.318,-1.415 -0.97,-2.5 -1.957,-3.257 -0.987,-0.756 -2.178,-1.134 -3.568,-1.134 -2.413,0 -4.242,0.927 -5.487,2.781 -1.073,1.586 -1.609,3.646 -1.609,6.184 0,2.44 0.536,4.439 1.609,6.001 1.269,1.83 3.098,2.744 5.487,2.744 3.807,0 5.878,-1.878 6.22,-5.635 h -5.779 v -4.281 h 10.974 v 14.124 z"
   id="path16" />
		<path
   fill="#1b3e6c"
   d="m 291.222,138.473 v -26.127 h 8.086 l 6.108,17.968 h 0.073 l 5.78,-17.968 h 8.085 v 26.127 h -5.378 v -18.515 h -0.073 l -6.402,18.515 h -4.426 l -6.402,-18.333 h -0.072 v 18.333 z"
   id="path17" />
	</g><g
     id="g20"
     transform="matrix(0.47058791,0,0,0.47058791,-5.2941209e-4,2.8967521e-4)">
		<path
   fill="#689acc"
   d="m 339.683,138.473 v -26.127 h 11.78 c 3.048,0 5.364,0.867 6.95,2.599 1.391,1.488 2.085,3.416 2.085,5.781 0,2.367 -0.694,4.293 -2.085,5.782 -1.586,1.731 -3.902,2.598 -6.95,2.598 h -6.036 v 9.367 z m 5.744,-21.662 v 7.83 h 4.463 c 1.561,0 2.731,-0.231 3.512,-0.695 1.023,-0.634 1.536,-1.706 1.536,-3.22 0,-1.513 -0.513,-2.586 -1.536,-3.22 -0.78,-0.463 -1.951,-0.695 -3.512,-0.695 z"
   id="path18" />
		<path
   fill="#689acc"
   d="m 366.121,138.473 v -26.127 h 19.535 v 4.83 h -13.791 v 5.6 h 12.657 v 4.464 h -12.657 v 6.403 h 14.084 v 4.83 z"
   id="path19" />
		<path
   fill="#689acc"
   d="m 398.427,138.473 v -21.297 h -7.829 v -4.83 H 412 v 4.83 h -7.828 v 21.297 z"
   id="path20" />
	</g><g
     id="g33"
     transform="matrix(0.47058791,0,0,0.47058791,-5.2941209e-4,2.8967521e-4)">
		<path
   fill="#696969"
   d="m 107.334,169.118 v -26.126 h 11.779 c 3.048,0 5.365,0.866 6.951,2.598 1.391,1.487 2.085,3.416 2.085,5.781 0,2.367 -0.695,4.294 -2.085,5.782 -1.585,1.731 -3.902,2.598 -6.951,2.598 h -6.036 v 9.367 z m 5.743,-21.663 v 7.831 h 4.463 c 1.561,0 2.731,-0.23 3.513,-0.695 1.024,-0.634 1.536,-1.707 1.536,-3.22 0,-1.513 -0.512,-2.586 -1.536,-3.221 -0.781,-0.463 -1.952,-0.695 -3.513,-0.695 z"
   id="path21" />
		<path
   fill="#696969"
   d="m 131.064,169.118 v -26.126 h 14.084 c 2.292,0 4.158,0.708 5.597,2.121 1.366,1.366 2.049,3.063 2.049,5.087 0,3.245 -1.378,5.429 -4.134,6.551 v 0.072 c 2.292,0.586 3.561,2.623 3.805,6.11 0.073,1.05 0.146,2.1 0.219,3.146 0.146,1.416 0.439,2.429 0.878,3.038 h -5.744 c -0.268,-0.658 -0.475,-1.646 -0.622,-2.964 -0.098,-1.098 -0.195,-2.195 -0.292,-3.293 -0.196,-1.415 -0.617,-2.428 -1.263,-3.038 -0.646,-0.609 -1.678,-0.915 -3.091,-0.915 h -5.744 v 10.21 h -5.742 z m 5.744,-21.663 v 7.356 h 6.292 c 2.634,0 3.951,-1.244 3.951,-3.733 0,-2.415 -1.317,-3.623 -3.951,-3.623 z"
   id="path22" />
		<path
   fill="#696969"
   d="m 155.877,156.165 c 0,-4.001 1.135,-7.27 3.403,-9.807 2.34,-2.658 5.487,-3.988 9.438,-3.988 3.951,0 7.097,1.33 9.438,3.988 2.269,2.537 3.402,5.806 3.402,9.807 0,3.902 -1.134,7.11 -3.402,9.623 -2.366,2.635 -5.512,3.952 -9.438,3.952 -3.927,0 -7.073,-1.317 -9.438,-3.952 -2.268,-2.513 -3.403,-5.721 -3.403,-9.623 z m 5.744,0 c 0,2.439 0.537,4.439 1.61,6 1.268,1.83 3.097,2.745 5.488,2.745 2.39,0 4.219,-0.915 5.487,-2.745 1.073,-1.561 1.609,-3.561 1.609,-6 0,-2.537 -0.536,-4.599 -1.609,-6.185 -1.244,-1.854 -3.073,-2.781 -5.487,-2.781 -2.415,0 -4.244,0.928 -5.488,2.781 -1.073,1.586 -1.61,3.648 -1.61,6.185 z"
   id="path23" />
		<path
   fill="#696969"
   d="M 185.335,169.118 V 142.992 H 203.7 v 4.829 h -12.622 v 6.038 h 10.938 v 4.465 h -10.938 v 10.794 z"
   id="path24" />
		<path
   fill="#696969"
   d="m 206.615,169.118 v -26.126 h 19.533 v 4.829 h -13.79 v 5.599 h 12.655 v 4.464 h -12.655 v 6.405 h 14.083 v 4.829 z"
   id="path25" />
		<path
   fill="#696969"
   d="m 228.622,160.446 h 5.561 c 0,1.634 0.585,2.879 1.757,3.732 0.999,0.731 2.341,1.098 4.024,1.098 1.316,0 2.413,-0.208 3.292,-0.622 1.195,-0.562 1.793,-1.438 1.793,-2.635 0,-1.488 -1.342,-2.61 -4.025,-3.367 -4.633,-1.316 -7.134,-2.073 -7.5,-2.268 -2.683,-1.294 -4.023,-3.331 -4.023,-6.11 0,-2.514 1.037,-4.502 3.11,-5.965 1.853,-1.294 4.072,-1.939 6.657,-1.939 3.001,0 5.428,0.646 7.28,1.939 2.122,1.488 3.183,3.646 3.183,6.477 h -5.56 c -0.147,-2.636 -1.867,-3.953 -5.159,-3.953 -1.049,0 -1.939,0.221 -2.67,0.659 -0.854,0.537 -1.28,1.307 -1.28,2.306 0,0.951 0.476,1.646 1.427,2.086 0.731,0.342 2.853,0.964 6.365,1.865 2.049,0.512 3.572,1.099 4.572,1.758 2.122,1.366 3.183,3.317 3.183,5.854 0,2.487 -0.927,4.488 -2.779,6 -1.952,1.587 -4.646,2.379 -8.086,2.379 -3.146,0 -5.731,-0.744 -7.755,-2.232 -2.269,-1.684 -3.39,-4.036 -3.367,-7.062 z"
   id="path26" />
		<path
   fill="#696969"
   d="m 252.649,160.446 h 5.561 c 0,1.634 0.585,2.879 1.756,3.732 0.999,0.731 2.341,1.098 4.024,1.098 1.316,0 2.414,-0.208 3.292,-0.622 1.195,-0.562 1.793,-1.438 1.793,-2.635 0,-1.488 -1.341,-2.61 -4.024,-3.367 -4.634,-1.316 -7.135,-2.073 -7.5,-2.268 -2.684,-1.294 -4.024,-3.331 -4.024,-6.11 0,-2.514 1.037,-4.502 3.11,-5.965 1.853,-1.294 4.072,-1.939 6.659,-1.939 2.999,0 5.426,0.646 7.278,1.939 2.123,1.488 3.183,3.646 3.183,6.477 h -5.56 c -0.146,-2.636 -1.867,-3.953 -5.158,-3.953 -1.05,0 -1.939,0.221 -2.671,0.659 -0.854,0.537 -1.28,1.307 -1.28,2.306 0,0.951 0.476,1.646 1.427,2.086 0.731,0.342 2.853,0.964 6.365,1.865 2.049,0.512 3.572,1.099 4.573,1.758 2.121,1.366 3.183,3.317 3.183,5.854 0,2.487 -0.928,4.488 -2.779,6 -1.953,1.587 -4.646,2.379 -8.087,2.379 -3.145,0 -5.731,-0.744 -7.754,-2.232 -2.27,-1.684 -3.391,-4.036 -3.367,-7.062 z"
   id="path27" />
		<path
   fill="#696969"
   d="m 278.216,169.118 v -26.126 h 5.744 v 26.126 z"
   id="path28" />
		<path
   fill="#696969"
   d="m 287.805,156.165 c 0,-4.001 1.134,-7.27 3.402,-9.807 2.341,-2.658 5.488,-3.988 9.438,-3.988 3.951,0 7.098,1.33 9.439,3.988 2.269,2.537 3.4,5.806 3.4,9.807 0,3.902 -1.132,7.11 -3.4,9.623 -2.367,2.635 -5.513,3.952 -9.439,3.952 -3.926,0 -7.073,-1.317 -9.438,-3.952 -2.269,-2.513 -3.402,-5.721 -3.402,-9.623 z m 5.743,0 c 0,2.439 0.535,4.439 1.609,6 1.268,1.83 3.097,2.745 5.487,2.745 2.39,0 4.221,-0.915 5.488,-2.745 1.073,-1.561 1.609,-3.561 1.609,-6 0,-2.537 -0.536,-4.599 -1.609,-6.185 -1.244,-1.854 -3.073,-2.781 -5.488,-2.781 -2.414,0 -4.243,0.928 -5.487,2.781 -1.074,1.586 -1.609,3.648 -1.609,6.185 z"
   id="path29" />
		<path
   fill="#696969"
   d="m 317.261,169.118 v -26.126 h 5.733 l 10.948,17.527 v -17.527 h 5.379 v 26.126 h -5.771 l -10.912,-17.49 v 17.49 z"
   id="path30" />
		<path
   fill="#696969"
   d="m 341.625,169.118 9.914,-26.126 h 5.89 l 9.768,26.126 h -5.962 l -1.976,-5.818 h -9.769 l -2.048,5.818 z m 12.768,-19.686 -3.402,9.587 h 6.768 l -3.292,-9.587 z"
   id="path31" />
		<path
   fill="#696969"
   d="m 369.501,169.118 v -26.126 h 5.744 v 21.297 h 12.731 v 4.829 z"
   id="path32" />
		<path
   fill="#696969"
   d="m 389.68,160.446 h 5.561 c 0,1.634 0.586,2.879 1.758,3.732 0.998,0.731 2.341,1.098 4.024,1.098 1.316,0 2.413,-0.208 3.292,-0.622 1.194,-0.562 1.792,-1.438 1.792,-2.635 0,-1.488 -1.341,-2.61 -4.024,-3.367 -4.633,-1.316 -7.134,-2.073 -7.5,-2.268 -2.683,-1.294 -4.023,-3.331 -4.023,-6.11 0,-2.514 1.037,-4.502 3.11,-5.965 1.853,-1.294 4.071,-1.939 6.657,-1.939 3,0 5.428,0.646 7.279,1.939 2.123,1.488 3.184,3.646 3.184,6.477 h -5.561 c -0.146,-2.636 -1.866,-3.953 -5.158,-3.953 -1.049,0 -1.94,0.221 -2.67,0.659 -0.855,0.537 -1.28,1.307 -1.28,2.306 0,0.951 0.475,1.646 1.426,2.086 0.73,0.342 2.854,0.964 6.366,1.865 2.047,0.512 3.572,1.099 4.572,1.758 2.121,1.366 3.183,3.317 3.183,5.854 0,2.487 -0.927,4.488 -2.78,6 -1.953,1.587 -4.646,2.379 -8.085,2.379 -3.146,0 -5.732,-0.744 -7.756,-2.232 -2.269,-1.684 -3.39,-4.036 -3.367,-7.062 z"
   id="path33" />
	</g></g>
</g>
</svg>
