<?xml version="1.0" encoding="UTF-8" standalone="no"?>
<!-- Created with Inkscape (http://www.inkscape.org/) -->

<svg
   width="50"
   height="50"
   viewBox="0 0 13.229166 13.229167"
   version="1.1"
   id="svg1"
   xmlns="http://www.w3.org/2000/svg"
   xmlns:svg="http://www.w3.org/2000/svg">
  <defs
     id="defs1">
    <clipPath
       clipPathUnits="userSpaceOnUse"
       id="clipPath539">
      <path
         d="M 0,0 H 1921 V 2242 H 0 Z"
         id="path539" />
    </clipPath>
  </defs>
  <g
     id="layer1"
     transform="translate(-101.07083,-144.72708)">
    <g
       id="g540"
       transform="matrix(0.26458333,0,0,0.26458333,-297.32357,87.546038)">
      <path
         d="m 1145.027,183.414 c 1.567,0 2.903,-0.543 3.993,-1.633 1.101,-1.09 1.656,-2.41 1.656,-3.949 0,-1.539 -0.555,-2.859 -1.656,-3.949 -1.09,-1.09 -2.426,-1.633 -3.993,-1.633 -1.582,0 -2.929,0.543 -4.035,1.633 -1.105,1.09 -1.66,2.41 -1.66,3.949 0,1.539 0.555,2.859 1.66,3.949 1.106,1.09 2.453,1.633 4.035,1.633 m 12.309,7.965 -7.711,-7.59 c -0.594,0.492 -1.285,0.879 -2.074,1.16 -0.789,0.278 -1.621,0.418 -2.508,0.418 -2.152,0 -3.969,-0.734 -5.457,-2.199 -1.488,-1.469 -2.234,-3.246 -2.234,-5.336 0,-2.086 0.746,-3.867 2.234,-5.336 1.492,-1.465 3.297,-2.199 5.422,-2.199 2.133,0 3.933,0.734 5.418,2.199 1.488,1.469 2.222,3.25 2.222,5.34 0,0.844 -0.132,1.652 -0.41,2.426 -0.277,0.777 -0.683,1.484 -1.207,2.14 l 7.731,7.575 z"
         style="fill:#5f6062;fill-opacity:1;fill-rule:nonzero;stroke:none"
         transform="scale(1.3333333)"
         clip-path="url(#clipPath539)"
         id="path540" />
    </g>
  </g>
</svg>
