<?xml version="1.0" encoding="utf-8"?>
<!-- Generator: Adobe Illustrator 27.5.0, SVG Export Plug-In . SVG Version: 6.00 Build 0)  -->
<svg version="1.1" xmlns="http://www.w3.org/2000/svg" xmlns:xlink="http://www.w3.org/1999/xlink" x="0px" y="0px"
	 viewBox="0 0 500 500" style="enable-background:new 0 0 500 500;" xml:space="preserve">
<g id="BACKGROUND">
</g>
<g id="OBJECTS">
	<g>
		<g>
			<g>
				<path d="M99.321,81.879c0,2.087-1.328,3.795-3.795,3.795c-2.277,0-3.795-1.708-3.795-3.606c0-2.088,1.518-3.985,3.795-3.985
					S99.321,79.792,99.321,81.879z"/>
			</g>
			<g>
				<rect x="91.73" y="87.572" width="7.591" height="24.67"/>
			</g>
			<g>
				<path d="M117.539,87.952c-3.985,0-6.262,2.277-7.211,3.795h-0.19l-0.38-3.226h-6.832c0,2.088,0.19,4.554,0.19,7.401v16.32h7.591
					V98.769c0-0.759,0-1.328,0.19-1.898c0.569-1.328,1.518-3.036,3.605-3.036c2.657,0,3.796,2.277,3.796,5.314v13.094h7.591V98.2
					C125.889,91.178,122.283,87.952,117.539,87.952z"/>
			</g>
		</g>
		<path style="fill:none;stroke:#000000;stroke-width:4;stroke-linecap:round;stroke-linejoin:round;stroke-miterlimit:10;" d="
			M130.021,128.988H87.598c-6.966,0-12.613-5.647-12.613-12.613V73.952c0-6.966,5.647-12.613,12.613-12.613h42.423
			c6.966,0,12.613,5.647,12.613,12.613v42.423C142.634,123.341,136.987,128.988,130.021,128.988z"/>
	</g>
	<g>
		<g>
			<path d="M117.23,194.107c0.019,0.102,0.026,0.205,0.019,0.309C117.272,194.313,117.272,194.209,117.23,194.107z"/>
			<path d="M109.529,177.274c-21.74,0-22.121,1.933-22.121,17.033c0,15.1,0.381,17.033,22.121,17.033s22.121-1.933,22.121-17.033
				C131.65,179.208,131.27,177.274,109.529,177.274z M116.578,195.421l-9.982,4.825c-0.803,0.388-1.735-0.197-1.735-1.088v-9.43
				c0-0.882,0.914-1.467,1.715-1.098l9.982,4.605c0.387,0.178,0.605,0.512,0.672,0.872c0.042,0.102,0.042,0.206,0.019,0.309
				C117.222,194.821,117.004,195.215,116.578,195.421z"/>
		</g>
		<path style="fill:none;stroke:#000000;stroke-width:4;stroke-linecap:round;stroke-linejoin:round;stroke-miterlimit:10;" d="
			M130.021,228.132H87.598c-6.966,0-12.613-5.647-12.613-12.613v-42.423c0-6.966,5.647-12.613,12.613-12.613h42.423
			c6.966,0,12.613,5.647,12.613,12.613v42.423C142.634,222.485,136.987,228.132,130.021,228.132z"/>
	</g>
	<g>
		<g>
			<path d="M267.225,186.163c-0.779-6.002-4.346-10.038-9.914-12.257c-4.273-1.703-8.653-1.589-13.021-0.335
				c-3.117,0.896-5.773,2.554-7.87,5.053c-2.157,2.571-3.33,5.549-3.647,8.882c-0.341,3.582,0.521,6.837,2.624,9.757
				c0.685,0.951,1.544,1.716,2.586,2.263c0.701,0.368,0.889,0.28,1.077-0.479c0.175-0.707,0.31-1.427,0.535-2.118
				c0.229-0.702,0.207-1.302-0.328-1.866c-0.215-0.226-0.348-0.535-0.494-0.819c-2.456-4.749-1.16-10.93,3.136-14.243
				c3.979-3.069,8.429-3.514,13.047-1.699c3.178,1.249,5.253,3.671,6.038,6.99c0.956,4.041,0.422,7.967-1.648,11.592
				c-1.376,2.41-3.398,4-6.296,4.173c-2.147,0.128-4.105-1.172-4.476-3.342c-0.135-0.791,0.011-1.559,0.229-2.314
				c0.553-1.911,1.125-3.817,1.67-5.731c0.298-1.046,0.473-2.113,0.404-3.21c-0.142-2.289-1.985-3.686-4.215-3.16
				c-1.538,0.363-2.535,1.402-3.188,2.771c-1.136,2.382-1.023,4.82-0.184,7.258c0.122,0.356,0.147,0.676,0.062,1.034
				c-0.804,3.369-1.526,6.761-2.419,10.106c-0.864,3.235-1.249,6.488-0.846,9.81c0.061,0.507,0.361,1.407,0.361,1.407l1.412,0.299
				c0.041-0.053,0.248-0.431,0.45-0.826c1.563-3.07,2.819-5.296,3.463-8.273c0.304-1.405,0.717-2.787,1.09-4.177
				c0.039-0.145,0.017-0.363,0.193-0.41c0.199-0.053,0.243,0.174,0.328,0.293c0.41,0.574,0.928,1.028,1.519,1.402
				c1.57,0.994,3.285,1.361,5.135,1.256c3.175-0.181,5.92-1.363,8.156-3.592C266.501,197.367,267.988,192.034,267.225,186.163z"/>
		</g>
		<path style="fill:none;stroke:#000000;stroke-width:4;stroke-linecap:round;stroke-linejoin:round;stroke-miterlimit:10;" d="
			M271.27,228.132h-42.423c-6.966,0-12.613-5.647-12.613-12.613v-42.423c0-6.966,5.647-12.613,12.613-12.613h42.423
			c6.966,0,12.613,5.647,12.613,12.613v42.423C283.883,222.485,278.236,228.132,271.27,228.132z"/>
	</g>
	<g>
		<g>
			<path d="M412.565,207.118c-1.931-1.257-3.276-1.959-4.406-2.916c-1.132-0.96-2.16-2.093-3.04-3.293
				c-2.697-3.679-3.004-6.533,2.077-8.177c0.431-0.139,0.857-0.398,0.549-1c-4.977,0.109-5.089-0.012-5.047-5.217
				c0.026-3.236,0.181-6.462-2.215-9.167c-3.181-3.59-8.966-5.005-14.019-3.263c-4.473,1.543-7.06,5.441-7.118,10.765
				c-0.014,1.27-0.034,2.547,0.078,3.808c0.223,2.498-0.954,3.351-3.307,3.1c-0.523-0.056-1.34-0.749-1.654,0.374
				c5.625,3.3,5.892,5.067,1.711,10.006c-1.647,1.945-3.824,3.203-5.999,5.034c3.327-0.125,4.269,3.893,7.349,3.73
				c3.073-0.163,5.61,0.854,8.062,2.555c3.487,2.419,7.129,2.337,10.75,0.236c1.594-0.924,3.123-2.616,4.902-2.389
				C405.698,211.874,408.281,208.305,412.565,207.118z"/>
		</g>
		<path style="fill:none;stroke:#000000;stroke-width:4;stroke-linecap:round;stroke-linejoin:round;stroke-miterlimit:10;" d="
			M412.345,228.132h-42.423c-6.966,0-12.613-5.647-12.613-12.613v-42.423c0-6.966,5.647-12.613,12.613-12.613h42.423
			c6.966,0,12.613,5.647,12.613,12.613v42.423C424.957,222.485,419.31,228.132,412.345,228.132z"/>
	</g>
	<g>
		<g>
			<path d="M108.808,270.422c-12.865,0-23.294,10.429-23.291,23.296c0,12.862,10.429,23.291,23.291,23.291
				c12.867,0,23.294-10.429,23.294-23.291C132.102,280.851,121.675,270.422,108.808,270.422z M124.174,281.078
				c2.788,3.393,4.476,7.72,4.525,12.437c-0.223-0.046-6.988-1.514-13.857-0.648c-0.142-0.339-0.281-0.686-0.431-1.028
				c-0.418-0.975-0.858-1.939-1.324-2.884C120.936,285.745,124.129,281.137,124.174,281.078z M108.808,273.822
				c5.038,0,9.634,1.881,13.138,4.965c-0.056,0.081-2.889,4.393-10.388,7.201c-3.4-6.241-7.135-11.201-7.439-11.606
				C105.623,274.02,107.19,273.822,108.808,273.822z M104.043,274.402l-0.003,0.005c0,0-0.02,0-0.035,0.005
				C104.005,274.412,104.026,274.407,104.043,274.402z M100.321,275.721c0.268,0.367,3.947,5.352,7.386,11.464
				c-9.55,2.537-17.845,2.438-18.366,2.428C90.634,283.456,94.774,278.344,100.321,275.721z M88.915,293.718
				c0-0.213,0.01-0.42,0.018-0.633c0.347,0.01,10.176,0.233,20.42-2.836c0.57,1.117,1.114,2.251,1.613,3.383
				c-0.261,0.076-0.524,0.154-0.782,0.238C99.45,297.344,94.007,307,94.007,307l0.013,0.015
				C90.847,303.493,88.915,298.83,88.915,293.718z M108.806,313.606c-4.613,0-8.846-1.582-12.224-4.218v0.01
				c0,0-0.182-0.137-0.451-0.352c0.147,0.124,0.304,0.228,0.451,0.342c0.078-0.167,3.935-8.348,15.609-12.416
				c0.046-0.015,0.089-0.03,0.129-0.046c2.8,7.269,3.957,13.363,4.251,15.108C114.186,313.046,111.561,313.606,108.806,313.606z
				 M119.923,310.213c-0.203-1.188-1.261-7.026-3.871-14.207c6.431-1.028,12.001,0.737,12.396,0.863
				C127.565,302.415,124.39,307.198,119.923,310.213z"/>
		</g>
		<path style="fill:none;stroke:#000000;stroke-width:4;stroke-linecap:round;stroke-linejoin:round;stroke-miterlimit:10;" d="
			M130.021,327.54H87.598c-6.966,0-12.613-5.647-12.613-12.613v-42.423c0-6.966,5.647-12.613,12.613-12.613h42.423
			c6.966,0,12.613,5.647,12.613,12.613v42.423C142.634,321.893,136.987,327.54,130.021,327.54z"/>
	</g>
	<g>
		<g>
			<path d="M250.059,269.707c-11.404,0-20.647,9.138-20.647,20.407c0,11.27,9.243,20.407,20.647,20.407v7.202
				c8.086-4.014,20.647-12.736,20.647-27.61C270.706,278.845,261.463,269.707,250.059,269.707z M247.658,293.094
				c0,3.188-2.451,5.815-5.57,6.093c-0.295,0.026-0.547-0.211-0.547-0.507v-2.046c0-0.255,0.19-0.466,0.442-0.504
				c1.275-0.182,2.25-1.169,2.514-2.415h-4.684c-0.97,0-1.757-0.788-1.757-1.757v-6.089c0-0.97,0.788-1.757,1.757-1.757h6.089
				c0.97,0,1.757,0.788,1.757,1.757V293.094z M262.063,293.094c0,3.188-2.451,5.815-5.57,6.093
				c-0.295,0.026-0.547-0.211-0.547-0.507v-2.046c0-0.255,0.19-0.466,0.442-0.504c1.275-0.185,2.25-1.169,2.514-2.415h-4.684
				c-0.97,0-1.757-0.788-1.757-1.757v-6.089c0-0.97,0.787-1.757,1.757-1.757h6.088c0.97,0,1.757,0.788,1.757,1.757V293.094z"/>
		</g>
		<path style="fill:none;stroke:#000000;stroke-width:4;stroke-linecap:round;stroke-linejoin:round;stroke-miterlimit:10;" d="
			M271.27,327.54h-42.423c-6.966,0-12.613-5.647-12.613-12.613v-42.423c0-6.966,5.647-12.613,12.613-12.613h42.423
			c6.966,0,12.613,5.647,12.613,12.613v42.423C283.883,321.893,278.236,327.54,271.27,327.54z"/>
	</g>
	<g>
		<g>
			<g>
				<path d="M105.041,391.451c0,0,3.703-0.288,3.703-4.812c0-4.53-3.029-6.734-6.869-6.734h-12.63v25.296h12.63
					c0,0,7.712,0.252,7.712-7.468C109.585,397.731,109.921,391.451,105.041,391.451z M94.81,384.399h7.064c0,0,1.718,0,1.718,2.63
					c0,2.634-1.01,3.016-2.157,3.016H94.81V384.399z M101.516,400.704H94.81v-6.761h7.064c0,0,2.56-0.035,2.56,3.474
					C104.434,400.375,102.522,400.682,101.516,400.704z"/>
			</g>
			<g>
				<path d="M119.869,386.338c-9.336,0-9.329,9.72-9.329,9.72s-0.638,9.669,9.329,9.669c0,0,8.303,0.497,8.303-6.726h-4.27
					c0,0,0.141,2.722-3.89,2.722c0,0-4.274,0.298-4.274-4.403h12.57C128.309,397.318,129.694,386.338,119.869,386.338z
					 M123.667,393.943h-7.973c0,0,0.521-3.898,4.27-3.898C123.714,390.044,123.667,393.943,123.667,393.943z"/>
			</g>
			<g>
				<rect x="114.646" y="381.391" width="10.014" height="3.119"/>
			</g>
		</g>
		<path style="fill:none;stroke:#000000;stroke-width:4;stroke-linecap:round;stroke-linejoin:round;stroke-miterlimit:10;" d="
			M130.021,426.644H87.598c-6.966,0-12.613-5.647-12.613-12.613v-42.423c0-6.966,5.647-12.613,12.613-12.613h42.423
			c6.966,0,12.613,5.647,12.613,12.613v42.423C142.634,420.997,136.987,426.644,130.021,426.644z"/>
	</g>
	<g>
		<g>
			<path d="M257.186,391.185c-1.096,0.635-1.834,0.533-2.698-0.363c-2.239-2.322-4.571-4.554-6.818-6.868
				c-0.755-0.778-1.291-0.826-2.041,0.008c-5.343,5.94-10.717,11.853-16.081,17.774c0.054,0.079,0.108,0.158,0.162,0.236
				c4.453-2.461,8.938-4.868,13.341-7.416c1.335-0.773,2.138-0.571,3.139,0.496c2.118,2.258,4.37,4.389,6.542,6.596
				c0.701,0.712,1.252,0.956,2.055,0.06c3.788-4.225,7.631-8.401,11.444-12.604c1.359-1.498,2.69-3.022,4.338-4.876
				c-1.497,0.152-2.257,0.767-3.071,1.214C264.049,387.336,260.59,389.213,257.186,391.185z"/>
		</g>
		<path style="fill:none;stroke:#000000;stroke-width:4;stroke-linecap:round;stroke-linejoin:round;stroke-miterlimit:10;" d="
			M271.27,426.644h-42.423c-6.966,0-12.613-5.647-12.613-12.613v-42.423c0-6.966,5.647-12.613,12.613-12.613h42.423
			c6.966,0,12.613,5.647,12.613,12.613v42.423C283.883,420.997,278.236,426.644,271.27,426.644z"/>
	</g>
	<g>
		<g>
			<path style="fill:none;stroke:#000000;stroke-width:3;stroke-linecap:round;stroke-linejoin:round;stroke-miterlimit:10;" d="
				M381.065,409.566l0.632,0.375c3.085,1.831,6.592,2.799,10.142,2.799c10.984,0,19.92-8.937,19.92-19.92
				c0-10.984-8.936-19.92-19.92-19.92c-10.984,0-19.92,8.936-19.92,19.92c0,3.875,1.125,7.642,3.253,10.892l0.398,0.608
				l-2.529,8.192L381.065,409.566z"/>
		</g>
		<path d="M383.436,381.3c-0.445,0.151-0.818,0.416-1.37,0.99c-1.22,1.277-1.794,2.612-1.873,4.405
			c-0.093,2.059,0.71,4.333,2.525,7.139c3.035,4.685,6.084,7.433,10.117,9.112c2.066,0.861,3.415,1.306,4.305,1.435
			c0.667,0.086,1.987-0.108,2.805-0.423c0.739-0.287,1.772-0.961,2.232-1.464c0.703-0.775,1.313-2.497,1.313-3.724
			c0-0.509-0.014-0.574-0.194-0.775c-0.366-0.402-4.915-2.777-5.453-2.848c-0.488-0.065-0.681,0.072-1.485,1.012
			c-1.248,1.457-1.636,1.837-1.858,1.837c-0.258,0-1.987-0.868-2.813-1.413c-2.016-1.334-3.695-3.164-5.008-5.489
			c-0.108-0.187-0.194-0.366-0.194-0.409s0.23-0.33,0.509-0.631c0.674-0.739,0.897-1.076,1.184-1.772
			c0.33-0.782,0.316-0.99-0.122-2.174c-0.631-1.722-0.832-2.26-1.177-3.186c-0.359-0.961-0.631-1.385-0.997-1.536
			C385.546,381.242,383.788,381.185,383.436,381.3z"/>
		<path style="fill:none;stroke:#000000;stroke-width:4;stroke-linecap:round;stroke-linejoin:round;stroke-miterlimit:10;" d="
			M412.345,426.644h-42.423c-6.966,0-12.613-5.647-12.613-12.613v-42.423c0-6.966,5.647-12.613,12.613-12.613h42.423
			c6.966,0,12.613,5.647,12.613,12.613v42.423C424.957,420.997,419.31,426.644,412.345,426.644z"/>
	</g>
	<g>
		<g>
			<g>
				<path d="M229.266,108.271c4.574,0.401,8.58-0.689,12.286-3.339c-0.803-0.204-1.483-0.342-2.142-0.55
					c-2.483-0.783-4.208-2.425-5.283-4.768c-0.332-0.723-0.259-0.781,0.53-0.768c0.815,0.013,1.645,0.132,2.614-0.234
					c-1.485-0.426-2.67-1.082-3.675-2.02c-1.613-1.504-2.569-3.354-2.737-5.571c-0.068-0.895,0.046-0.957,0.844-0.593
					c0.781,0.356,1.589,0.589,2.569,0.595c-0.611-0.701-1.272-1.21-1.743-1.893c-1.87-2.713-2.187-5.584-0.897-8.62
					c0.344-0.808,0.481-0.839,1.064-0.184c2.862,3.215,6.294,5.576,10.366,6.991c1.796,0.624,3.643,1.03,5.533,1.223
					c0.971,0.099,1.054-0.005,0.942-0.955c-0.398-3.386,1.518-6.928,4.622-8.544c3.11-1.619,7.096-1.159,9.625,1.155
					c0.493,0.451,0.963,0.549,1.582,0.379c1.321-0.363,2.595-0.831,3.807-1.471c0.186-0.099,0.351-0.303,0.705-0.173
					c-0.58,1.812-1.727,3.193-3.18,4.384c1.43-0.17,2.767-0.582,4.151-1.123c0.031,0.477-0.25,0.718-0.449,0.975
					c-0.852,1.103-1.799,2.122-2.923,2.949c-0.526,0.387-0.705,0.832-0.695,1.474c0.087,5.696-1.741,10.777-5.147,15.28
					c-4.047,5.35-9.482,8.368-16.125,9.175c-5.486,0.666-10.65-0.373-15.456-3.127c-0.175-0.1-0.345-0.211-0.51-0.326
					C229.486,108.554,229.448,108.485,229.266,108.271z"/>
			</g>
		</g>
		<path style="fill:none;stroke:#000000;stroke-width:4;stroke-linecap:round;stroke-linejoin:round;stroke-miterlimit:10;" d="
			M271.27,128.988h-42.423c-6.966,0-12.613-5.647-12.613-12.613V73.952c0-6.966,5.647-12.613,12.613-12.613h42.423
			c6.966,0,12.613,5.647,12.613,12.613v42.423C283.883,123.341,278.236,128.988,271.27,128.988z"/>
	</g>
	<g>
		<g>
			<g>
				<path d="M369.823,85.358c0.374-1.948,0.722-3.903,1.784-5.636c2.421-3.952,6.207-5.468,10.573-5.575
					c5.953-0.146,11.915-0.142,17.868,0.002c4.042,0.098,7.639,1.43,10.101,4.932c1.584,2.255,2.175,4.838,2.215,7.507
					c0.086,5.722,0.127,11.448-0.005,17.168c-0.106,4.607-1.708,8.538-6.021,10.88c-1.992,1.082-4.177,1.552-6.405,1.577
					c-5.878,0.067-11.759,0.125-17.635-0.009c-4.409-0.101-8.24-1.589-10.689-5.582c-1.063-1.732-1.41-3.687-1.784-5.636
					C369.823,98.445,369.823,91.901,369.823,85.358z M391.149,78.181c-2.92,0-5.841-0.056-8.76,0.013
					c-4.56,0.107-7.364,2.243-8.194,6.17c-0.176,0.834-0.307,1.695-0.311,2.544c-0.027,5.528-0.101,11.059,0.012,16.585
					c0.112,5.499,2.892,8.441,8.197,8.636c5.991,0.22,11.993,0.202,17.985,0.004c4.419-0.146,7.045-2.273,7.89-6.092
					c0.151-0.682,0.294-1.383,0.297-2.076c0.033-6.303,0.378-12.613-0.191-18.905c-0.337-3.727-2.834-6.161-6.547-6.67
					C398.079,77.915,394.608,78.252,391.149,78.181z"/>
			</g>
			<g>
				<path d="M402.131,95.244c-0.018,5.939-4.946,10.82-10.997,10.893c-6.07,0.073-11.106-4.938-11.088-11.035
					c0.018-5.993,5.132-11.006,11.113-10.893C397.296,84.326,402.149,89.206,402.131,95.244z M398.037,95.19
					c0.006-3.78-3.105-6.876-6.931-6.896c-3.801-0.02-6.959,3.091-6.965,6.862c-0.006,3.78,3.106,6.876,6.931,6.896
					C394.872,102.072,398.03,98.96,398.037,95.19z"/>
			</g>
			<g>
				<path d="M402.431,81.326c1.464-0.019,2.703,1.194,2.695,2.638c-0.008,1.385-1.195,2.571-2.614,2.612
					c-1.46,0.042-2.725-1.149-2.751-2.588C399.734,82.533,400.927,81.345,402.431,81.326z"/>
			</g>
		</g>
		<path style="fill:none;stroke:#000000;stroke-width:4;stroke-linecap:round;stroke-linejoin:round;stroke-miterlimit:10;" d="
			M412.345,128.988h-42.423c-6.966,0-12.613-5.647-12.613-12.613V73.952c0-6.966,5.647-12.613,12.613-12.613h42.423
			c6.966,0,12.613,5.647,12.613,12.613v42.423C424.957,123.341,419.31,128.988,412.345,128.988z"/>
	</g>
	<g>
		<path style="fill:none;stroke:#000000;stroke-width:4;stroke-linecap:round;stroke-linejoin:round;stroke-miterlimit:10;" d="
			M412.345,327.54h-42.423c-6.966,0-12.613-5.647-12.613-12.613v-42.423c0-6.966,5.647-12.613,12.613-12.613h42.423
			c6.966,0,12.613,5.647,12.613,12.613v42.423C424.957,321.893,419.31,327.54,412.345,327.54z"/>
		<g>
			<path d="M398.668,279.096h3.767v-8.199l-5.674-0.006c-8.038,0-11.853,4.784-11.853,11.595v6.452h-6.294v7.79h6.294v19.812h9.442
				v-19.812h6.295l1.788-7.786h-8.082v-5.319C394.349,281.444,395.539,279.096,398.668,279.096z"/>
		</g>
	</g>
</g>
<g id="DESIGNED_BY_FREEPIK">
	<g>
		<g id="XMLID_24_">
			<g id="XMLID_209_">
				<path id="XMLID_277_" style="fill:#1D262D;" d="M260.104,465.465c-0.432,0.443-0.803,0.931-1.108,1.453l-0.465-0.241
					c-0.067-0.298-0.349-0.503-0.659-0.466c-0.331,0.039-0.568,0.339-0.529,0.67c0.039,0.331,0.339,0.568,0.67,0.529
					c0.065-0.008,0.127-0.026,0.183-0.052l0.452,0.234c-0.251,0.554-0.433,1.139-0.539,1.744l0.747,0.132
					c0.23-1.306,0.85-2.507,1.792-3.473L260.104,465.465z"/>
				<path id="XMLID_265_" style="fill:#1D262D;" d="M265.592,463.163c-0.171,0-0.341,0.006-0.51,0.017l-0.074-0.626
					c0.188-0.149,0.296-0.389,0.266-0.645c-0.046-0.393-0.402-0.674-0.795-0.628c-0.393,0.046-0.674,0.402-0.628,0.795
					c0.03,0.254,0.189,0.461,0.405,0.564l0.073,0.624c-0.714,0.116-1.403,0.332-2.06,0.646l0.327,0.684
					c0.934-0.447,1.942-0.673,2.995-0.673c0.496,0,0.993,0.053,1.475,0.158l0.161-0.741
					C266.692,463.222,266.142,463.163,265.592,463.163z"/>
				<path id="XMLID_264_" style="fill:#1D262D;" d="M272.194,465.711c0.331-0.04,0.566-0.341,0.526-0.672
					c-0.04-0.331-0.341-0.566-0.672-0.526c-0.309,0.038-0.535,0.304-0.53,0.609l-0.416,0.363c-0.418-0.43-0.89-0.813-1.408-1.139
					l-0.404,0.641c1.134,0.715,2.021,1.726,2.563,2.925l0.691-0.313c-0.251-0.554-0.568-1.072-0.942-1.545l0.402-0.351
					C272.065,465.716,272.129,465.719,272.194,465.711z"/>
				<path id="XMLID_263_" style="fill:#1D262D;" d="M265.044,473.372c-0.386,0.023-0.775,0.035-1.157,0.035
					c-0.88,0-1.733-0.061-2.478-0.179c-0.39-0.062-0.846-0.155-1.27-0.292c1.046,1.861,3.069,3.125,5.388,3.125
					c2.855,0,5.262-1.916,5.95-4.504c-0.682,0.449-1.505,0.825-2.459,1.123C267.839,473.047,266.464,473.286,265.044,473.372z"/>
				<path id="XMLID_210_" style="fill:#1D262D;" d="M265.592,464.68c-3.352,0-6.08,2.666-6.08,5.943
					c0,0.426,0.046,0.849,0.137,1.261c0.673,0.483,2.706,0.89,5.348,0.731c2.879-0.173,5.297-0.957,6.672-2.159
					c-0.005-0.195-0.021-0.39-0.045-0.582C271.244,466.913,268.65,464.68,265.592,464.68z M263.432,471.194
					c-1.02,0-1.85-0.83-1.85-1.85c0-1.02,0.83-1.85,1.85-1.85c1.02,0,1.85,0.83,1.85,1.85
					C265.282,470.365,264.452,471.194,263.432,471.194z M268.17,470.286c-0.75,0-1.36-0.61-1.36-1.36s0.61-1.361,1.36-1.361
					c0.75,0,1.361,0.61,1.361,1.361S268.92,470.286,268.17,470.286z"/>
			</g>
			<path id="XMLID_183_" style="fill:#1D262D;" d="M281.595,466.547c-0.295-0.116-0.805-0.309-1.382-0.237
				c-0.551,0.069-0.844,0.341-0.844,1.007v0.866h2.228v1.717h-2.228v5.455h-1.932v-5.455h-1.34v-1.717h1.34v-0.888
				c0-1.68,0.896-2.783,2.568-2.783c0.643,0,1.157,0.122,1.59,0.308L281.595,466.547z"/>
			<path id="XMLID_173_" style="fill:#1D262D;" d="M286.298,469.879c-0.177-0.03-0.358-0.046-0.526-0.046
				c-0.896,0-1.51,0.548-1.51,1.614v3.908h-1.932v-7.172h1.873v0.785c0.451-0.673,1.14-0.977,2.021-0.977
				c0.414,0,0.848,0.128,1.094,0.337L286.298,469.879z"/>
			<path id="XMLID_138_" style="fill:#1D262D;" d="M293.965,471.757c0,0.222-0.015,0.489-0.037,0.651h-5.085
				c0.207,1.036,0.933,1.488,1.843,1.488c0.622,0,1.295-0.252,1.813-0.688l1.132,1.243c-0.814,0.748-1.85,1.088-3.057,1.088
				c-2.198,0-3.723-1.495-3.723-3.753c0-2.258,1.48-3.797,3.627-3.797C292.544,467.99,293.958,469.522,293.965,471.757z
				 M288.851,471.091h3.175c-0.177-0.918-0.733-1.436-1.562-1.436C289.554,469.655,289.021,470.203,288.851,471.091z"/>
			<path id="XMLID_69_" style="fill:#1D262D;" d="M301.618,471.757c0,0.222-0.015,0.489-0.037,0.651h-5.085
				c0.207,1.036,0.933,1.488,1.843,1.488c0.622,0,1.295-0.252,1.813-0.688l1.132,1.243c-0.814,0.748-1.85,1.088-3.057,1.088
				c-2.198,0-3.723-1.495-3.723-3.753c0-2.258,1.48-3.797,3.627-3.797C300.197,467.99,301.611,469.522,301.618,471.757z
				 M296.504,471.091h3.175c-0.178-0.918-0.733-1.436-1.562-1.436C297.207,469.655,296.674,470.203,296.504,471.091z"/>
			<path id="XMLID_325_" style="fill:#1D262D;" d="M309.964,471.764c0,2.154-1.495,3.775-3.471,3.775
				c-0.962,0-1.643-0.378-2.109-0.933v3.708h-1.924v-10.133h1.887v0.792c0.466-0.585,1.155-0.984,2.139-0.984
				C308.469,467.99,309.964,469.61,309.964,471.764z M304.287,471.764c0,1.132,0.747,1.976,1.843,1.976
				c1.14,0,1.85-0.881,1.85-1.976c0-1.095-0.71-1.976-1.85-1.976C305.035,469.788,304.287,470.632,304.287,471.764z"/>
			<path id="XMLID_35_" style="fill:#1D262D;" d="M313.068,465.836c0,0.696-0.54,1.229-1.236,1.229
				c-0.696,0-1.229-0.533-1.229-1.229c0-0.696,0.533-1.243,1.229-1.243C312.527,464.592,313.068,465.14,313.068,465.836z
				 M312.809,475.354h-1.932v-7.172h1.932V475.354z"/>
			<path id="XMLID_25_" style="fill:#1D262D;" d="M316.032,470.736l2.701-2.554h2.368l-3.479,3.375l3.501,3.797h-2.376l-2.716-2.901
				v2.901H314.1v-10.658h1.932V470.736z"/>
		</g>
		<g>
			<path style="fill:#1D262D;" d="M184.412,475.289v-1.055c-0.527,0.718-1.391,1.23-2.387,1.23c-1.846,0-3.149-1.406-3.149-3.706
				c0-2.256,1.289-3.721,3.149-3.721c0.952,0,1.816,0.469,2.387,1.245v-3.765h1.099v9.77H184.412z M184.412,473.37v-3.208
				c-0.395-0.615-1.245-1.143-2.124-1.143c-1.421,0-2.27,1.172-2.27,2.739c0,1.567,0.85,2.724,2.27,2.724
				C183.168,474.483,184.017,473.986,184.412,473.37z"/>
			<path style="fill:#1D262D;" d="M186.932,471.744c0-2.051,1.465-3.706,3.486-3.706c2.139,0,3.398,1.67,3.398,3.794v0.279h-5.727
				c0.088,1.333,1.025,2.446,2.549,2.446c0.805,0,1.626-0.322,2.182-0.894l0.527,0.718c-0.703,0.703-1.655,1.084-2.812,1.084
				C188.44,475.465,186.932,473.956,186.932,471.744z M190.403,468.947c-1.509,0-2.256,1.274-2.314,2.358h4.643
				C192.718,470.25,192.015,468.947,190.403,468.947z"/>
			<path style="fill:#1D262D;" d="M194.607,474.351l0.571-0.791c0.469,0.542,1.362,1.011,2.329,1.011c1.084,0,1.67-0.513,1.67-1.216
				c0-1.714-4.38-0.659-4.38-3.281c0-1.098,0.952-2.036,2.636-2.036c1.201,0,2.051,0.454,2.622,1.026l-0.513,0.762
				c-0.424-0.513-1.201-0.894-2.109-0.894c-0.967,0-1.567,0.483-1.567,1.113c0,1.552,4.38,0.527,4.38,3.281
				c0,1.187-0.952,2.138-2.783,2.138C196.306,475.465,195.325,475.113,194.607,474.351z"/>
			<path style="fill:#1D262D;" d="M201.477,466.471c0-0.41,0.337-0.747,0.732-0.747c0.41,0,0.747,0.337,0.747,0.747
				c0,0.41-0.337,0.732-0.747,0.732C201.814,467.203,201.477,466.881,201.477,466.471z M201.667,475.289v-7.075h1.099v7.075H201.667
				z"/>
			<path style="fill:#1D262D;" d="M204.582,477.105l0.556-0.82c0.586,0.703,1.289,0.967,2.3,0.967c1.172,0,2.27-0.571,2.27-2.124
				v-1.011c-0.513,0.718-1.377,1.26-2.373,1.26c-1.845,0-3.149-1.377-3.149-3.662c0-2.27,1.289-3.677,3.149-3.677
				c0.952,0,1.802,0.469,2.373,1.245v-1.069h1.098v6.87c0,2.344-1.641,3.076-3.369,3.076
				C206.237,478.16,205.417,477.926,204.582,477.105z M209.709,473.253v-3.091c-0.381-0.615-1.23-1.143-2.109-1.143
				c-1.421,0-2.27,1.128-2.27,2.695c0,1.553,0.849,2.695,2.27,2.695C208.478,474.41,209.328,473.868,209.709,473.253z"/>
			<path style="fill:#1D262D;" d="M217.413,475.289v-4.629c0-1.245-0.63-1.641-1.582-1.641c-0.865,0-1.685,0.527-2.095,1.099v5.17
				h-1.099v-7.075h1.099v1.025c0.498-0.586,1.465-1.201,2.519-1.201c1.48,0,2.256,0.747,2.256,2.285v4.966H217.413z"/>
			<path style="fill:#1D262D;" d="M219.932,471.744c0-2.051,1.465-3.706,3.486-3.706c2.139,0,3.398,1.67,3.398,3.794v0.279h-5.727
				c0.088,1.333,1.025,2.446,2.549,2.446c0.806,0,1.626-0.322,2.183-0.894l0.527,0.718c-0.703,0.703-1.655,1.084-2.812,1.084
				C221.441,475.465,219.932,473.956,219.932,471.744z M223.404,468.947c-1.509,0-2.256,1.274-2.314,2.358h4.643
				C225.718,470.25,225.015,468.947,223.404,468.947z"/>
			<path style="fill:#1D262D;" d="M233.35,475.289v-1.055c-0.527,0.718-1.392,1.23-2.388,1.23c-1.846,0-3.149-1.406-3.149-3.706
				c0-2.256,1.289-3.721,3.149-3.721c0.952,0,1.817,0.469,2.388,1.245v-3.765h1.098v9.77H233.35z M233.35,473.37v-3.208
				c-0.396-0.615-1.245-1.143-2.124-1.143c-1.421,0-2.27,1.172-2.27,2.739c0,1.567,0.849,2.724,2.27,2.724
				C232.105,474.483,232.954,473.986,233.35,473.37z"/>
			<path style="fill:#1D262D;" d="M239.692,475.289v-9.77h1.098v3.765c0.572-0.776,1.421-1.245,2.388-1.245
				c1.845,0,3.149,1.465,3.149,3.721c0,2.299-1.304,3.706-3.149,3.706c-0.996,0-1.86-0.513-2.388-1.23v1.055H239.692z
				 M242.9,474.483c1.436,0,2.285-1.157,2.285-2.724c0-1.568-0.85-2.739-2.285-2.739c-0.864,0-1.728,0.527-2.109,1.143v3.208
				C241.171,473.986,242.036,474.483,242.9,474.483z"/>
			<path style="fill:#1D262D;" d="M247.528,477.061c0.161,0.073,0.425,0.117,0.601,0.117c0.483,0,0.805-0.161,1.055-0.747
				l0.469-1.069l-2.959-7.148h1.187l2.358,5.8l2.344-5.8h1.201l-3.545,8.51c-0.425,1.025-1.143,1.421-2.08,1.435
				c-0.234,0-0.601-0.044-0.806-0.103L247.528,477.061z"/>
		</g>
	</g>
</g>
</svg>
