<?xml version="1.0" encoding="UTF-8" standalone="no"?>
<!-- Created with Inkscape (http://www.inkscape.org/) -->

<svg
   width="127.92799"
   height="121.52533"
   viewBox="0 0 127.92799 121.52533"
   version="1.1"
   id="svg1"
   sodipodi:docname="icons.svg"
   inkscape:version="1.3.2 (1:1.3.2+202311252150+091e20ef0f)"
   xmlns:inkscape="http://www.inkscape.org/namespaces/inkscape"
   xmlns:sodipodi="http://sodipodi.sourceforge.net/DTD/sodipodi-0.dtd"
   xmlns="http://www.w3.org/2000/svg"
   xmlns:svg="http://www.w3.org/2000/svg">
  <sodipodi:namedview
     id="namedview1"
     pagecolor="#806d42"
     bordercolor="#999999"
     borderopacity="1"
     inkscape:showpageshadow="2"
     inkscape:pageopacity="0"
     inkscape:pagecheckerboard="0"
     inkscape:deskcolor="#d1d1d1"
     inkscape:zoom="4.2992936"
     inkscape:cx="63.963997"
     inkscape:cy="60.823946"
     inkscape:window-width="1600"
     inkscape:window-height="773"
     inkscape:window-x="0"
     inkscape:window-y="0"
     inkscape:window-maximized="1"
     inkscape:current-layer="layer1" />
  <defs
     id="defs1">
    <clipPath
       clipPathUnits="userSpaceOnUse"
       id="clipPath335">
      <path
         d="M 0,0 H 1921 V 2242 H 0 Z"
         id="path335" />
    </clipPath>
    <clipPath
       clipPathUnits="userSpaceOnUse"
       id="clipPath236">
      <path
         d="M 0,0 H 1921 V 2242 H 0 Z"
         id="path236" />
    </clipPath>
    <clipPath
       clipPathUnits="userSpaceOnUse"
       id="clipPath238">
      <path
         d="M 0,0 H 1921 V 2242 H 0 Z"
         id="path238" />
    </clipPath>
    <clipPath
       clipPathUnits="userSpaceOnUse"
       id="clipPath234">
      <path
         d="M 0,0 H 1921 V 2242 H 0 Z"
         id="path234" />
    </clipPath>
    <clipPath
       clipPathUnits="userSpaceOnUse"
       id="clipPath232">
      <path
         d="M 0,0 H 1921 V 2242 H 0 Z"
         id="path232" />
    </clipPath>
    <clipPath
       clipPathUnits="userSpaceOnUse"
       id="clipPath143">
      <path
         d="M 0,0 H 1921 V 2242 H 0 Z"
         id="path143" />
    </clipPath>
    <clipPath
       clipPathUnits="userSpaceOnUse"
       id="clipPath426">
      <path
         d="M 0,0 H 1921 V 2242 H 0 Z"
         id="path426" />
    </clipPath>
    <clipPath
       clipPathUnits="userSpaceOnUse"
       id="clipPath428">
      <path
         d="M 0,0 H 1921 V 2242 H 0 Z"
         id="path428" />
    </clipPath>
    <clipPath
       clipPathUnits="userSpaceOnUse"
       id="clipPath430">
      <path
         d="M 0,0 H 1921 V 2242 H 0 Z"
         id="path430" />
    </clipPath>
    <clipPath
       clipPathUnits="userSpaceOnUse"
       id="clipPath432">
      <path
         d="M 0,0 H 1921 V 2242 H 0 Z"
         id="path432" />
    </clipPath>
    <clipPath
       clipPathUnits="userSpaceOnUse"
       id="clipPath434">
      <path
         d="M 0,0 H 1921 V 2242 H 0 Z"
         id="path434" />
    </clipPath>
    <clipPath
       clipPathUnits="userSpaceOnUse"
       id="clipPath436">
      <path
         d="M 0,0 H 1921 V 2242 H 0 Z"
         id="path436" />
    </clipPath>
    <clipPath
       clipPathUnits="userSpaceOnUse"
       id="clipPath438">
      <path
         d="M 0,0 H 1921 V 2242 H 0 Z"
         id="path438" />
    </clipPath>
    <clipPath
       clipPathUnits="userSpaceOnUse"
       id="clipPath440">
      <path
         d="M 0,0 H 1921 V 2242 H 0 Z"
         id="path440" />
    </clipPath>
    <clipPath
       clipPathUnits="userSpaceOnUse"
       id="clipPath442">
      <path
         d="M 0,0 H 1921 V 2242 H 0 Z"
         id="path442" />
    </clipPath>
    <clipPath
       clipPathUnits="userSpaceOnUse"
       id="clipPath444">
      <path
         d="M 0,0 H 1921 V 2242 H 0 Z"
         id="path444" />
    </clipPath>
    <clipPath
       clipPathUnits="userSpaceOnUse"
       id="clipPath539">
      <path
         d="M 0,0 H 1921 V 2242 H 0 Z"
         id="path539" />
    </clipPath>
  </defs>
  <g
     id="layer1"
     transform="translate(-331.74829,-542.82329)">
    <g
       id="g336"
       style="display:none"
       transform="matrix(1.0005171,0,0,0.99393069,-454.09898,-1062.5966)"
       inkscape:label="bird-icon"
       sodipodi:insensitive="true">
      <path
         d="m 615.918,1286.957 c 0,-0.016 0.008,-0.023 0.008,-0.035 -0.051,-0.059 -0.098,-0.113 -0.149,-0.18 -0.078,-0.109 -0.117,-0.246 -0.097,-0.379 0.554,-3.984 1.781,-6.687 3.722,-8.261 -2.543,-1.477 -4.964,-2.516 -7.535,-3.223 l -2.617,9.601 c 2.418,1.059 5.094,2.309 6.641,3.047 0,-0.191 0.007,-0.39 0.027,-0.57 m 38.156,5.922 -8.047,-3.266 c -0.011,0 -0.019,-0.011 -0.035,-0.015 -0.008,0 -0.015,0 -0.023,0 -2.883,-1.578 -5.813,-2.961 -7.676,-2.348 -0.711,0.238 -1.238,0.754 -1.625,1.586 -1.356,1.996 -2.137,4.215 -2.5,7.055 -0.016,0.133 -0.086,0.258 -0.195,0.347 -0.344,0.27 -0.711,0.407 -1.078,0.465 0.011,0.153 0.039,0.297 0.07,0.438 l 5.312,3.515 30.621,-0.558 -14.824,-7.215 z m -38.523,-70.973 c 0.652,0 1.179,-0.527 1.179,-1.176 0,-0.648 -0.527,-1.175 -1.179,-1.175 -0.649,0 -1.176,0.527 -1.176,1.175 0,0.649 0.527,1.176 1.176,1.176 m 7.508,55.653 c 0.269,-0.153 0.613,-0.059 0.773,0.207 0.156,0.269 0.063,0.609 -0.203,0.773 -2.027,1.184 -3.379,2.469 -4.129,3.961 0.055,0.059 0.102,0.137 0.129,0.219 0.16,0.601 0.348,0.761 0.418,0.801 0.008,0 0.027,0.019 0.051,0.023 1.593,-2.539 3.23,-3.961 5.004,-4.359 1.429,-0.309 2.953,0.058 4.523,1.105 l 2.441,1.141 c -0.148,-0.371 -0.527,-1.055 -1.484,-2.219 -0.016,-0.02 -0.02,-0.047 -0.035,-0.063 -0.828,-0.347 -1.555,-0.988 -1.965,-1.394 -0.043,0 -0.086,0 -0.125,-0.012 -3.266,-0.93 -5.766,-0.785 -7.648,0.442 -2.075,1.351 -3.434,4.121 -4.047,8.234 0.32,0.379 0.64,0.566 1,0.648 -0.676,-5.257 2.449,-7.839 5.297,-9.507 m -15.141,-49.102 c 0.02,0.043 0.047,0.082 0.062,0.125 0.047,-0.332 0.094,-0.648 0.149,-0.937 -0.156,0.117 -0.313,0.234 -0.469,0.332 0.098,0.175 0.18,0.332 0.258,0.48 m 27.531,10.313 c -0.031,1.375 -0.297,2.593 -0.812,3.679 -0.129,0.274 -0.453,0.391 -0.731,0.278 -0.054,-0.028 -0.105,-0.055 -0.144,-0.09 -0.254,-0.203 -2.524,-1.891 -2.754,-2.028 -0.594,-0.32 -1.309,-0.379 -1.805,-0.152 -0.336,0.152 -0.555,0.434 -0.644,0.84 -0.129,0.539 -0.02,1.137 0.093,1.773 l 0.047,0.258 c 0.528,3.039 0.731,7.125 -1.285,9.344 -0.707,0.773 -1.402,0.969 -2.055,1.027 1.172,3.332 2.301,6.496 6.016,7.863 -0.727,-1.05 -1.301,-2.207 -1.496,-3.445 0.648,1.688 1.941,2.922 3.293,4.004 l 0.133,0.106 c 2.468,1.992 5.203,4.171 7.027,4.761 -0.699,-0.797 -1.277,-1.691 -1.621,-2.656 0.844,1.254 2.031,2.164 3.316,2.801 h 0.008 c 1.336,0.781 3.02,1.762 4.274,2.164 -0.469,-0.727 -0.793,-1.516 -1.047,-2.293 0.707,1.055 1.586,2.031 2.609,2.519 l 1.359,0.567 c 2.856,1.195 6.407,2.68 7.528,2.047 0.078,-0.047 0.168,-0.125 0.234,-0.27 -1.035,-0.648 -1.762,-1.637 -2.164,-2.66 0.777,0.977 1.813,1.684 2.91,1.859 0.696,0.028 1.45,0.075 2.203,0.129 1.7,0.117 4.539,0.313 4.871,-0.187 0.012,-0.028 0,-0.125 -0.074,-0.289 -3.5,-3.821 -7.179,-8.34 -10.894,-13.188 -7.672,-9.273 -16.156,-19.121 -18.395,-18.761 m -0.054,-1.594 c 0.019,0.179 0.015,0.344 0.027,0.519 1.82,0 4.902,2.641 9.195,7.328 -1.84,-2.57 -3.66,-5.148 -5.441,-7.687 -1.281,0.207 -2.535,0.148 -3.781,-0.16 m -21.825,-16.504 c 0,1.066 0.891,1.949 1.981,1.949 1.094,0 1.984,-0.883 1.984,-1.949 0,-1.07 -0.89,-1.953 -1.984,-1.953 -1.09,0 -1.981,0.883 -1.981,1.953 m -3.879,18.289 c 1.36,-4.527 1.016,-5.52 0.118,-7.328 -0.254,-0.52 -0.547,-1.113 -0.832,-1.934 0.211,-1.89 0.617,-4.461 1.761,-5.531 0.149,-0.141 0.211,-0.352 0.16,-0.551 -0.468,-1.855 -1.421,-3.797 -2.945,-6.07 1.512,-3.215 5.008,-4.328 10.414,-3.293 5.383,1.027 10.258,3.758 13.727,7.68 1.859,2.097 3.156,4.347 3.863,6.668 0.836,2.753 1.734,5.398 3.461,7.558 -1.535,0.301 -3.02,0.199 -4.508,-0.305 -0.183,-0.062 -0.39,-0.031 -0.539,0.102 -0.152,0.125 -0.226,0.32 -0.195,0.516 0.281,1.863 0.195,3.437 -0.262,4.777 -0.918,-0.797 -2.336,-1.621 -2.359,-1.637 -0.914,-0.488 -1.993,-0.558 -2.813,-0.187 -0.66,0.297 -1.101,0.851 -1.273,1.597 -0.18,0.774 -0.047,1.516 0.082,2.235 l 0.043,0.254 c 0.398,2.285 0.797,6.418 -1.008,8.394 -0.582,0.637 -1.082,0.664 -1.77,0.68 -0.132,-0.074 -0.296,-0.094 -0.453,-0.039 -0.043,0.012 -0.07,0.039 -0.105,0.062 -0.344,0.02 -0.707,0.067 -1.102,0.207 -0.379,0.133 -0.644,0.407 -0.808,0.598 -0.629,0.742 -0.989,1.68 -1.008,2.637 l -0.004,0.125 c 0,0.133 -0.004,0.254 -0.027,0.328 -0.297,0.883 -2.692,0.719 -4.293,0.262 -0.235,-0.059 -0.473,0.019 -0.614,0.207 -0.136,0.195 -0.14,0.453 -0.007,0.648 0.511,0.742 0.707,1.703 0.89,2.629 0.133,0.637 0.266,1.293 0.215,1.918 -0.027,0.355 -0.18,0.918 -0.27,1.144 -0.156,-0.16 -0.355,-0.437 -0.445,-0.558 -0.086,-0.113 -0.16,-0.215 -0.215,-0.277 l -0.511,-0.59 c -0.524,-0.602 -1.055,-1.203 -1.567,-1.825 -1.117,-1.339 -2.535,-3.148 -3.601,-5.203 -2.262,-4.343 -2.664,-9.714 -1.203,-15.898 z m -2.398,-20.379 c -3.563,4.348 -4.18,7.723 -1.918,11.539 -0.105,-0.851 -0.105,-1.668 0.008,-2.43 0.027,-0.183 0.148,-0.343 0.312,-0.421 0.164,-0.082 0.364,-0.075 0.524,0.019 0.437,0.242 1.691,-0.902 2.101,-1.277 0.071,-0.063 0.153,-0.11 0.239,-0.129 0.308,-0.988 0.691,-1.731 1.171,-2.278 -0.429,-1.539 -1.218,-3.156 -2.437,-5.023 m 27.355,65.477 -2.382,-1.297 -3.196,-1.496 c -1.398,-0.926 -2.601,-1.231 -3.73,-0.985 -1.508,0.328 -2.953,1.668 -4.426,4.074 -0.074,0.125 -0.191,0.211 -0.32,0.247 -0.149,0.05 -0.301,0.074 -0.442,0.074 -0.054,0 -0.101,-0.016 -0.152,-0.024 -0.098,0.77 0.23,1.125 0.555,1.356 0.226,0.156 0.304,0.449 0.191,0.703 -0.094,0.199 -0.297,0.32 -0.508,0.32 -0.05,0 -0.101,-0.01 -0.152,-0.019 -0.633,-0.18 -1.024,-0.532 -1.277,-0.938 0.023,0.477 0.078,0.973 0.175,1.488 0.032,0.165 -0.011,0.329 -0.113,0.461 -0.105,0.129 -0.262,0.207 -0.422,0.207 h -0.144 c -0.149,0 -0.317,0 -0.481,-0.027 0.106,0.746 0.516,1.254 1.289,1.586 0.149,-0.039 0.301,-0.031 0.438,0.055 l 0.66,0.402 c 3.766,2.27 7.621,4.586 9.902,5.867 -0.066,-0.566 0.09,-1.343 0.41,-2.347 -0.07,-0.012 -0.14,-0.02 -0.203,-0.051 -0.91,-0.578 -1.761,-1.684 -0.789,-3.692 -0.008,-0.035 -0.027,-0.062 -0.043,-0.101 -0.035,-0.082 -0.043,-0.172 -0.031,-0.262 0.231,-1.863 2.336,-3.726 5.191,-5.601 m 33.02,-9.446 c 0.77,0.492 1.559,0.957 2.344,1.434 -1.403,-1.289 -2.86,-2.746 -4.348,-4.332 -0.258,0.316 -0.66,0.515 -1.223,0.629 1.036,0.797 2.118,1.554 3.227,2.269 m -35.5,21.571 c 0.012,0 0.016,0.01 0.023,0.011 0.297,0 0.539,-0.05 0.762,-0.175 0.422,-3.086 1.309,-5.524 2.766,-7.661 0.492,-1.086 1.301,-1.859 2.351,-2.207 2.004,-0.652 4.578,0.239 7.785,1.891 -0.398,-0.758 -1.039,-1.66 -1.996,-2.801 -0.015,-0.027 -0.031,-0.058 -0.047,-0.09 -0.062,-0.054 -0.121,-0.113 -0.156,-0.191 -0.742,-1.488 -2.105,-2.324 -4.133,-2.539 -0.914,0.523 -1.972,1.133 -3.046,1.797 -0.008,0.051 -0.016,0.109 -0.047,0.16 -0.106,0.191 -0.301,0.297 -0.496,0.297 -0.039,0 -0.09,-0.024 -0.129,-0.035 -2.52,1.609 -4.903,3.457 -5.211,5.019 0.254,0.625 0.492,0.809 0.617,0.86 0.047,0.015 0.184,0.074 0.48,-0.063 0.036,-0.016 0.075,-0.016 0.106,-0.023 0.086,-0.211 0.172,-0.407 0.262,-0.625 0.367,-0.887 0.742,-1.793 1.093,-2.696 0.114,-0.289 0.438,-0.429 0.727,-0.32 0.289,0.109 0.437,0.434 0.316,0.727 -0.351,0.91 -0.73,1.828 -1.105,2.722 -0.867,2.09 -2.035,4.895 -1.895,5.75 0.371,0.121 0.684,0.184 0.953,0.192 0.008,0.01 0.016,0 0.02,0 m -1.398,-4.629 c -0.204,0.332 -0.161,0.609 0.144,1.097 0.117,-0.308 0.246,-0.636 0.387,-0.984 -0.18,-0.012 -0.36,-0.035 -0.528,-0.106 0,0 0,-0.01 -0.003,-0.01 m 36.621,-16.453 c -1.571,-0.786 -3.125,-1.614 -4.614,-2.622 -0.007,0 -0.011,-0.011 -0.023,-0.015 -0.816,0 -1.777,-0.067 -2.891,-0.141 -0.601,-0.043 -1.207,-0.082 -1.785,-0.105 -0.019,0.047 -0.043,0.086 -0.066,0.129 0.05,0.015 0.109,0.031 0.16,0.054 l 10.328,3.243 c -0.371,-0.188 -0.742,-0.364 -1.109,-0.543 m -48.77,-12.829 c 0.063,-0.785 -0.086,-1.515 -0.23,-2.234 -0.125,-0.613 -0.258,-1.273 -0.5,-1.922 1.5,0.258 3.929,0.391 4.484,-1.234 0.082,-0.246 0.086,-0.485 0.09,-0.789 0.015,-0.699 0.285,-1.403 0.742,-1.93 0.125,-0.148 0.234,-0.242 0.32,-0.269 0.223,-0.079 0.442,-0.118 0.661,-0.137 l 0.097,0.289 c 1.363,3.871 2.774,7.879 8.289,9.043 l 0.028,0.023 c 3.527,2.836 6.878,5.539 9.058,5.117 2.445,1.422 4.434,2.485 5.824,2.383 0.039,0.016 0.075,0.024 0.114,0.028 l 1.191,0.496 c 2.875,1.203 5.445,2.277 7.203,2.277 0.387,0 0.723,-0.074 1.024,-0.187 0.007,0 0.007,0 0.007,0 l 0.457,0.145 10.071,24.609 -6.481,-3.156 c -1.562,-1.656 -3.015,-3.437 -4.175,-5.426 0.593,1.555 1.371,3.047 2.25,4.485 l -3.055,-1.492 c -0.016,-0.016 -0.02,-0.036 -0.035,-0.051 -1.575,-1.403 -3.309,-3.028 -4.989,-4.61 -1.015,-0.953 -2.031,-1.914 -3.019,-2.828 -0.078,-0.074 -0.176,-0.121 -0.285,-0.14 l -3.239,-0.551 c -0.957,-1.703 -2.625,-2.672 -4.961,-2.91 -0.074,-0.016 -0.152,-0.028 -0.238,-0.016 -0.191,-0.016 -0.379,-0.035 -0.578,-0.039 -1.805,-0.02 -3.691,-0.988 -5.949,-3.062 -0.184,-0.172 -0.461,-0.204 -0.672,-0.063 -0.953,0.578 -2.566,-0.914 -3.07,-1.508 -4.926,-5.332 -10.305,-11.461 -10.719,-12.469 -0.004,-0.128 -0.055,-0.242 -0.133,-0.339 0.344,-0.641 0.418,-1.485 0.418,-1.536"
         style="fill:#110f0d;fill-opacity:1;fill-rule:nonzero;stroke:none"
         transform="scale(1.3333333)"
         clip-path="url(#clipPath335)"
         id="path336" />
    </g>
    <g
       id="g237"
       style="display:none"
       transform="matrix(0.99430959,0,0,0.99952082,-1019.6383,-1071.9136)"
       inkscape:label="cat-icon"
       sodipodi:insensitive="true">
      <g
         id="g574">
        <path
           d="m 1055.176,1232.797 c 0,0 -0.028,-0.024 -0.035,-0.035 -0.164,-0.184 -0.192,-0.524 -0.192,-0.762 0,-0.305 0.063,-0.602 0.153,-0.887 0.343,-1.09 1.054,-2.211 2.101,-2.734 1.137,-0.555 2.703,-0.563 3.668,0.336 0.969,0.898 0.68,2.488 -0.101,3.437 -0.883,1.082 -2.375,1.34 -3.7,1.196 -0.363,-0.039 -0.722,-0.114 -1.07,-0.219 -0.164,-0.047 -0.32,-0.102 -0.48,-0.172 -0.102,-0.047 -0.239,-0.086 -0.34,-0.164 v 0 z m -1.672,3.488 c -0.035,0.098 -0.106,0.207 -0.227,0.328 -0.257,0.254 -0.519,0.492 -0.742,0.789 -0.105,0.145 -0.207,0.305 -0.308,0.461 -0.059,0.086 -0.161,0.367 -0.282,0.285 -0.101,-0.078 -0.168,-0.296 -0.242,-0.406 -0.09,-0.148 -0.183,-0.297 -0.293,-0.433 -0.203,-0.274 -0.441,-0.5 -0.699,-0.715 -0.246,-0.196 -0.352,-0.469 -0.066,-0.68 0.199,-0.144 0.445,-0.168 0.675,-0.176 0.211,-0.011 0.426,-0.031 0.637,-0.035 0.285,-0.01 0.574,-0.012 0.859,0.024 0.457,0.05 0.789,0.238 0.688,0.562 v 0 z m -4.899,-3.582 c -0.113,0.207 -0.378,0.317 -0.589,0.383 -0.582,0.191 -1.235,0.269 -1.836,0.277 -1.094,0.032 -2.2,-0.293 -2.895,-1.179 -0.469,-0.59 -0.711,-1.364 -0.648,-2.114 0.062,-0.703 0.394,-1.375 1.011,-1.75 0.352,-0.215 0.766,-0.304 1.176,-0.32 0.09,0 0.473,-0.043 0.512,0.07 0.031,0.09 -0.285,0.262 -0.356,0.317 -0.433,0.375 -0.679,0.914 -0.75,1.472 -0.066,0.563 0.04,1.051 0.305,1.528 0.324,0.593 0.914,1.039 1.625,0.851 0.711,-0.183 1.223,-0.875 1.363,-1.578 0.079,-0.394 0.039,-0.812 -0.121,-1.183 -0.09,-0.227 -0.226,-0.434 -0.379,-0.618 -0.078,-0.097 -0.168,-0.187 -0.261,-0.269 -0.078,-0.067 -0.301,-0.192 -0.313,-0.301 1.414,0.207 2.313,2.477 2.285,3.699 0,0.219 -0.027,0.453 -0.101,0.66 0,0.024 -0.016,0.036 -0.024,0.055 v 0 z m -2.785,-3.406 c 0.059,-0.199 0.211,-0.406 0.403,-0.496 0.121,-0.063 0.261,-0.074 0.402,-0.051 0.277,0.055 0.52,0.289 0.602,0.562 0.043,0.149 0.043,0.317 0.01,0.469 -0.054,0.176 -0.148,0.352 -0.296,0.453 -0.122,0.102 -0.274,0.137 -0.426,0.121 -0.153,-0.019 -0.289,-0.089 -0.41,-0.187 -0.118,-0.102 -0.223,-0.234 -0.27,-0.383 -0.047,-0.144 -0.055,-0.324 -0.012,-0.484 v 0 z m 45.516,31.539 c -2.156,-2.758 -4.66,-5.375 -5.641,-8.793 -0.519,-1.82 -0.468,-3.734 0.547,-5.371 0.949,-1.551 2.594,-2.668 4.418,-2.817 1.824,-0.156 3.922,0.629 5.422,1.762 0.234,0.172 0.465,0.41 0.742,0.492 0.367,0.11 0.395,-0.242 0.379,-0.523 -0.043,-0.832 -0.316,-1.695 -0.711,-2.438 -1.441,-2.683 -4.637,-4.492 -7.648,-4.546 -2.219,-0.032 -4.41,0.859 -6.071,2.3 -2.964,2.555 -4.097,6.715 -3.492,10.504 0.348,2.254 1.297,4.387 2.485,6.332 1.265,2.078 2.886,3.848 4.425,5.719 2.871,3.508 5.192,7.676 5.793,12.227 0.567,4.355 -0.593,8.929 -3.234,12.457 -0.68,0.91 -1.457,1.746 -2.32,2.476 -0.403,0.344 -0.828,0.649 -1.254,0.953 -0.332,0.246 -0.738,0.598 -1.16,0.625 -0.524,0.039 -0.204,-0.543 -0.118,-0.82 0.204,-0.66 0.391,-1.336 0.54,-2.016 0.289,-1.261 0.484,-2.543 0.613,-3.828 0.922,-9.519 -1.692,-19.793 -8.063,-27.066 -1.574,-1.797 -3.367,-3.434 -5.367,-4.742 -1.898,-1.243 -3.961,-2.285 -5.433,-4.055 -1.465,-1.77 -2.243,-3.879 -2.942,-6.008 -0.195,-0.574 -0.379,-1.144 -0.558,-1.715 -0.172,-0.507 -0.29,-1.144 -0.583,-1.593 -0.285,-0.418 -0.707,0 -0.984,0.195 -0.496,0.359 -1,0.703 -1.519,1.008 -0.969,0.578 -2.055,1.183 -3.149,1.468 0.731,-0.425 1.531,-0.738 2.274,-1.148 0.742,-0.414 1.445,-0.875 2.121,-1.379 1.304,-0.961 2.519,-2.07 3.523,-3.351 0.484,-0.614 0.906,-1.274 1.281,-1.957 0.352,-0.645 0.692,-1.325 0.817,-2.051 0.121,-0.731 -0.082,-1.407 -0.516,-2.032 -0.433,-0.628 -0.933,-1.273 -1.348,-1.957 -0.875,-1.492 -1.226,-3.066 -1.117,-4.789 0.102,-1.726 0.496,-3.492 0.633,-5.25 0.125,-1.644 0.164,-3.332 -0.059,-4.972 -0.101,-0.77 -0.71,-0.332 -1.128,-0.032 -0.657,0.473 -1.34,0.907 -1.989,1.395 -1.371,1.047 -2.648,2.211 -3.824,3.48 -0.285,0.309 -0.574,0.629 -0.851,0.954 -0.211,0.246 -0.422,0.515 -0.75,0.597 -0.368,0.094 -0.766,-0.027 -1.133,-0.078 -0.43,-0.062 -0.864,-0.078 -1.297,-0.094 -0.922,-0.027 -1.84,0 -2.758,0.01 -0.387,0 -0.781,0.016 -1.172,0.016 -0.387,0 -0.719,0 -1.012,-0.25 -0.23,-0.203 -0.418,-0.465 -0.628,-0.692 -0.305,-0.316 -0.61,-0.621 -0.922,-0.929 -0.594,-0.594 -1.215,-1.168 -1.848,-1.711 -1.07,-0.922 -2.223,-1.742 -3.41,-2.512 -0.266,-0.176 -0.86,-0.609 -1.195,-0.426 -0.211,0.121 -0.235,0.485 -0.254,0.703 -0.039,0.375 -0.067,0.758 -0.098,1.137 -0.152,1.813 -0.02,3.633 0.215,5.434 0.238,1.797 0.699,3.437 0.324,5.175 -0.344,1.602 -1.156,3.106 -2.133,4.407 -0.426,0.566 -0.836,1.156 -0.777,1.898 0.062,0.813 0.527,1.551 0.91,2.246 1.543,2.903 3.871,5.364 6.805,6.903 0.332,0.172 0.683,0.316 1.035,0.472 0.34,0.153 0.766,0.278 1.023,0.532 -0.851,-0.067 -1.507,-0.864 -2.32,-1.04 -0.652,-0.14 -0.805,0.649 -0.957,1.106 -0.633,1.902 -1.289,3.758 -1.711,5.723 -0.863,4.035 -0.906,8.211 -0.227,12.273 0.34,2.035 0.864,4.039 1.543,5.98 0.672,1.95 1.516,3.657 2.329,5.473 1.613,3.613 2.82,7.481 3.32,11.418 0.246,2.035 0.23,4.047 0.094,6.09 -0.051,0.75 -0.11,1.648 -0.704,2.191 -0.531,0.485 -1.296,0.559 -1.945,0.786 -1.469,0.503 -2.32,1.988 -2.031,3.511 0.125,0.692 0.516,1.313 1.152,1.629 0.282,0.137 0.871,0.379 1.192,0.242 0.242,-0.113 0.234,-0.449 0.265,-0.683 0.11,-0.84 0.434,-1.625 1,-2.262 0.578,-0.637 1.43,-0.957 2.262,-1.223 0.336,-0.105 0.731,-0.175 0.953,-0.472 0.278,-0.375 0.418,-0.903 0.57,-1.332 0.332,-0.946 0.582,-1.918 0.778,-2.899 0.832,-4.09 1.062,-8.297 1.191,-12.457 0.02,-0.527 0.031,-1.054 0.043,-1.582 0.016,-0.351 0.125,-0.82 -0.113,-1.129 -0.188,-0.25 -0.598,-0.351 -0.879,-0.449 -0.422,-0.148 -0.801,-0.355 -1.176,-0.586 -1.644,-1 -3.074,-2.371 -4.289,-3.848 -2.25,-2.73 -3.762,-6.035 -4.394,-9.515 -0.172,-0.957 -0.395,-1.996 -0.332,-2.973 0.132,0.469 0.171,0.965 0.265,1.442 0.106,0.554 0.231,1.105 0.367,1.648 0.266,1.004 0.594,1.992 1.004,2.945 0.805,1.875 1.899,3.625 3.176,5.211 1.281,1.59 2.879,2.996 4.41,4.418 0.242,0.223 1.746,1.739 1.992,1.164 0.102,-0.246 0.016,-0.593 0,-0.843 -0.039,-0.457 -0.035,-0.922 -0.058,-1.383 -0.067,-1.27 -0.188,-2.528 -0.36,-3.782 -0.074,-0.589 -0.167,-1.175 -0.265,-1.753 -0.059,-0.321 -0.113,-0.641 -0.176,-0.95 -0.047,-0.234 -0.168,-0.523 -0.129,-0.761 0.317,0.125 0.383,0.988 0.418,1.261 0.086,0.602 0.207,1.207 0.309,1.809 0.25,1.445 0.418,2.902 0.515,4.359 0.211,2.977 0.196,5.965 0,8.938 -0.191,2.973 -0.55,5.879 -1.117,8.777 -0.258,1.301 -0.465,2.707 -1.004,3.938 -0.207,0.492 -0.519,0.824 -1.027,1.015 -0.649,0.246 -1.328,0.422 -1.914,0.797 -0.887,0.551 -1.508,1.469 -1.52,2.528 0,1.003 0.582,1.789 1.5,2.152 1.125,0.441 2.539,0.367 3.715,0.262 1.18,-0.106 2.297,-0.329 3.145,-1.125 0.433,-0.403 0.703,-0.907 0.922,-1.446 0.273,-0.664 0.546,-1.324 0.824,-1.98 0.281,-0.656 0.543,-1.274 0.801,-1.91 0.121,-0.305 0.238,-0.602 0.347,-0.911 0.121,-0.332 0.301,-0.695 0.332,-1.05 0.051,-0.586 -0.461,-1.067 -0.738,-1.535 -0.348,-0.571 -0.641,-1.168 -0.887,-1.789 -0.472,-1.239 -0.734,-2.555 -0.722,-3.883 0.019,-2.778 1.277,-5.418 3.105,-7.461 0.988,-1.106 2.156,-2.059 3.422,-2.832 0.641,-0.391 1.305,-0.731 1.98,-1.035 0.262,-0.118 0.516,-0.247 0.782,-0.36 0.207,-0.094 0.656,-0.332 0.886,-0.242 -0.386,0.336 -0.964,0.535 -1.418,0.758 -0.558,0.258 -1.113,0.519 -1.632,0.851 -0.911,0.578 -1.758,1.27 -2.508,2.043 -1.481,1.524 -2.621,3.403 -3.18,5.457 -1.059,3.926 0.207,8.168 2.852,11.196 0.379,0.433 0.773,0.863 1.218,1.215 0.481,0.386 1.028,0.585 1.618,0.746 0.519,0.14 1.027,0.3 1.539,0.484 0.386,0.145 1.14,0.34 1.359,0.719 -0.316,0.062 -0.742,-0.258 -1.035,-0.367 -0.535,-0.2 -1.074,-0.372 -1.625,-0.516 -1.02,-0.27 -2.086,-0.438 -3.137,-0.32 -1.472,0.164 -3.008,0.937 -3.586,2.363 -0.285,0.691 -0.344,1.547 -0.027,2.238 0.371,0.793 1.183,1.149 1.996,1.32 1.004,0.211 2.055,0.176 3.078,0.172 1.02,-0.019 2.121,0.012 3.18,0.012 4.39,0 8.851,-0.402 13.129,-1.414 3.843,-0.906 7.66,-2.316 10.894,-4.625 3.055,-2.18 5.41,-5.219 6.699,-8.746 1.461,-3.965 1.532,-8.336 0.711,-12.445 -0.828,-4.118 -2.476,-7.899 -4.839,-11.254 -0.336,-0.485 -0.696,-0.961 -1.067,-1.43 h 0.01 z"
           style="display:inline;fill:#110f0d;fill-opacity:1;fill-rule:nonzero;stroke:none"
           transform="scale(1.3333333)"
           clip-path="url(#clipPath236)"
           id="path237" />
        <g
           id="g239">
          <path
             d="m 1058.387,1229.191 c 0.117,-0.296 0.383,-0.527 0.715,-0.511 0.785,0.031 0.871,1.172 0.269,1.519 -0.324,0.188 -0.726,0.055 -0.933,-0.242 -0.157,-0.223 -0.157,-0.516 -0.051,-0.766 z m 1.215,2.45 c 0.168,-0.223 0.289,-0.481 0.363,-0.746 0.226,-0.805 0.097,-1.852 -0.531,-2.457 -0.657,-0.637 -1.668,-0.387 -2.215,0.273 -0.485,0.601 -0.614,1.449 -0.399,2.184 0.219,0.73 0.789,1.441 1.586,1.421 0.5,-0.011 0.91,-0.289 1.196,-0.671 v 0 z"
             style="fill:#110f0d;fill-opacity:1;fill-rule:nonzero;stroke:none"
             transform="scale(1.3333333)"
             clip-path="url(#clipPath238)"
             id="path239" />
        </g>
        <g
           id="g235">
          <path
             d="m 1059.422,1291.273 c 0,0 0,0.01 0,0.012 0,-0.015 0.012,-0.027 0.012,-0.039 -0.012,0.012 -0.012,0.02 -0.016,0.031 v 0 z"
             style="fill:#110f0d;fill-opacity:1;fill-rule:nonzero;stroke:none"
             transform="scale(1.3333333)"
             clip-path="url(#clipPath234)"
             id="path235" />
        </g>
        <g
           id="g231">
          <g
             id="g233">
            <path
               d="m 1059.383,1291.375 c -0.223,1.336 -0.809,2.641 -1.231,3.922 0.01,0.031 0.047,0.027 0.118,-0.012 1.164,-0.801 2.371,-1.129 3.769,-1.129 l 0.01,-0.019 c -0.856,-0.891 -1.777,-1.809 -2.504,-2.801 -0.078,-0.09 -0.133,-0.078 -0.16,0.031 v 0.01 z"
               style="fill:#110f0d;fill-opacity:1;fill-rule:nonzero;stroke:none"
               transform="scale(1.3333333)"
               clip-path="url(#clipPath232)"
               id="path233" />
          </g>
        </g>
      </g>
    </g>
    <g
       id="g144"
       transform="translate(-1599.293,-1069.458)"
       style="display:inline"
       inkscape:label="vet-icon">
      <path
         d="m 1505.457,1288.715 c -0.914,-1.539 1.231,-3.063 2.301,-1.539 l 0.918,1.383 c 1.066,1.539 -1.231,3.054 -2.145,1.539 z m -16.242,-27.57 c 0,-1.833 2.609,-1.833 2.609,0 v 0.156 c 0,1.824 -2.609,1.824 -2.609,0 z m 0,-5.2 c 0,-1.691 2.609,-1.691 2.609,0 v 0.309 c 0,1.691 -2.609,1.691 -2.609,0 z m 3.836,4.125 c -1.832,0 -1.832,-2.761 0,-2.761 h 0.156 c 1.691,0 1.691,2.761 0,2.761 z m -5.223,0 c -1.691,0 -1.691,-2.761 0,-2.761 h 0.313 c 1.691,0 1.691,2.761 0,2.761 z m -36.625,-26.656 c -1.383,6.137 0.156,12.563 2.902,18.07 2.149,-0.312 4.758,0.602 6.141,2.297 l 9.348,11.801 c 0.156,-1.227 0.761,-2.457 1.695,-3.371 2.301,-1.832 4.441,0 6.586,1.074 3.996,2.297 6.289,3.68 10.73,4.281 9.04,1.387 12.415,7.047 17.165,13.633 l 1.23,-0.761 c 0.602,-0.309 1.379,-0.153 1.832,0.312 l 5.356,7.359 1.226,-1.07 c 0.156,-5.98 -2.609,-13.336 -9.664,-13.633 -3.832,0.156 -6.426,-1.539 -9.188,-4.129 -0.472,-0.461 -0.472,-1.375 0,-1.828 1.067,-1.226 1.833,-3.062 2.61,-5.058 1.379,-3.368 2.605,-6.743 6.285,-7.969 1.074,-1.828 1.231,-2.902 1.387,-4.438 0,-0.761 0.308,-1.832 1.535,-1.691 3.059,0.465 5.363,1.984 6.43,4.902 0.761,0.157 1.543,0.313 2.3,0.465 -0.918,-3.832 -3.839,-7.043 -7.968,-6.734 -15.641,1.226 -16.09,-8.278 -16.246,-11.953 0,-0.762 0.156,-1.387 0.914,-1.539 4.75,-1.696 9.043,-3.524 12.414,-7.204 2.14,-2.296 4.441,-4.285 7.519,-5.062 7.516,-1.832 18.074,1.828 21.754,8.879 2.766,5.512 4.445,12.25 7.816,17.465 0.606,-2.766 0.915,-5.352 0.915,-8.121 -0.465,-10.262 -6.289,-19.297 -15.938,-23.286 -13.187,-5.355 -28.203,0.161 -33.719,13.633 -0.761,1.539 -2.3,0.754 -2.457,0 -3.211,-8.726 -10.73,-13.472 -19.769,-13.183 v 2.297 h 8.726 c 1.989,0 3.528,1.535 3.528,3.523 v 7.52 c 0,1.828 -1.539,3.519 -3.528,3.519 h -8.726 v 8.731 c 0,1.828 -1.539,3.519 -3.528,3.519 h -7.363 c -1.988,0 -3.523,-1.691 -3.523,-3.519 v -8.731 z m -2.922,-11.039 v 7.52 c 0,0.312 0.469,0.757 0.918,0.757 h 9.957 c 0.762,0 1.383,0.602 1.383,1.383 v 10.11 c 0,0.46 0.465,0.753 0.914,0.753 h 7.363 c 0.465,0 0.914,-0.312 0.914,-0.753 v -10.11 c 0,-0.758 0.469,-1.383 1.231,-1.383 h 10.109 c 0.465,0 0.914,-0.464 0.914,-0.757 v -7.52 c 0,-0.465 -0.461,-0.758 -0.914,-0.758 h -9.957 c -0.758,0 -1.383,-0.605 -1.383,-1.383 v -10.105 c 0,-0.465 -0.464,-0.918 -0.914,-0.918 h -7.363 c -0.469,0 -0.914,0.465 -0.914,0.918 v 10.105 c 0,0.758 -0.605,1.383 -1.383,1.383 h -9.957 c -0.449,0 -0.918,0.309 -0.918,0.758 m 61.774,7.363 c 0,-1.691 2.769,-1.691 2.769,0 v 0.157 c 0,1.691 -2.769,1.691 -2.769,0 z m -5.059,30.797 c 1.828,0 1.828,2.766 0,2.766 -1.68,-0.016 -1.68,-2.766 0,-2.766 m -7.66,39.82 c 4.598,-2.761 9.664,-6.289 14.867,-10.57 l -4.91,-6.289 -15.023,9.813 z m -4.441,-10.707 10.73,-6.894 c -4.285,-5.816 -7.516,-11.336 -15.332,-12.402 -5.066,-0.758 -7.512,-2.145 -11.801,-4.754 -0.762,-0.309 -2.769,-1.828 -3.371,-1.223 -1.988,1.535 -0.762,5.977 1.539,7.199 l 5.824,3.371 c 1.539,0.758 0.153,3.215 -1.382,2.301 -1.836,-1.074 -6.743,-3.523 -7.813,-5.062 l -13.031,-16.707 c -1.078,-1.223 -4.133,-1.989 -5.223,-0.313 3.684,6.43 8.281,12.559 12.117,19.004 l 12.875,10.887 c 3.684,2.293 6.297,2.605 8.438,2.757 2.14,0.141 4.129,0.297 6.43,1.836 m -19.934,-34.171 c 0,-1.832 2.769,-1.832 2.769,0 v 0.152 c 0,1.836 -2.769,1.836 -2.769,0 z m 0,-5.063 c 0,-1.828 2.769,-1.828 2.769,0 v 0.16 c 0,1.828 -2.769,1.828 -2.769,0 z m 3.844,3.988 c -1.836,0 -1.836,-2.761 0,-2.761 h 0.152 c 1.836,0 1.836,2.761 0,2.761 z m -5.067,0 c -1.832,0 -1.832,-2.761 0,-2.761 h 0.153 c 1.699,0 1.699,2.761 0,2.761 z m 12.274,-8.738 c 0,-1.832 2.605,-1.832 2.605,0 v 0.313 c 0,1.691 -2.605,1.691 -2.605,0 z m 0,-7.184 c 0,-1.832 2.605,-1.832 2.605,0 v 0.305 c 0,1.695 -2.605,1.695 -2.605,0 z m 4.734,5.043 c -1.691,0 -1.691,-2.765 0,-2.765 h 0.309 c 1.836,0 1.836,2.765 0,2.765 z m -7.191,0 c -1.832,0 -1.832,-2.765 0,-2.765 h 0.316 c 1.688,0 1.688,2.765 0,2.765 z m 36.468,41.215 c 10.735,-9.808 20.536,-21.902 24.375,-33.855 -3.062,-3.992 -4.91,-8.883 -6.742,-13.637 -1.383,3.992 -3.218,6.434 -5.222,7.656 -3.989,2.766 -9.352,1.227 -10.114,-3.832 -0.601,-3.836 3.063,-15.328 1.383,-17.312 -2.601,-0.465 -5.215,-0.465 -7.363,0 -2.449,0.605 -4.442,2.453 -6.133,4.289 -3.523,3.832 -7.812,5.816 -12.566,7.512 0.156,3.367 1.382,9.5 13.191,8.722 6.133,-0.465 10.418,4.438 11.043,10.11 3.215,0.914 5.512,2.293 7.813,3.371 2.14,1.218 4.128,2.297 6.292,2.605 1.692,0.309 1.379,2.918 -0.464,2.61 -2.454,-0.317 -4.602,-1.539 -7.055,-2.77 -3.215,-1.691 -7.055,-3.676 -12.719,-4.434 -0.609,0 -1.078,-0.468 -1.23,-0.918 -0.606,-1.988 -1.227,-2.902 -3.059,-3.527 -0.312,1.383 -0.605,2.906 -1.836,4.906 -0.308,0.313 -0.465,0.61 -0.914,0.61 -2.765,0.758 -3.836,3.676 -5.062,6.578 -0.606,1.691 -1.227,3.367 -2.145,4.754 1.539,1.379 3.84,2.605 6.137,2.605 7.793,-0.136 11.789,7.063 12.39,13.957 m 15.957,-51.476 c -0.312,-0.606 -0.605,-1.227 -0.918,-1.985 -1.535,-3.058 -4.753,-5.359 -8.433,-6.589 0.758,5.222 -2.301,11.96 -1.695,15.929 0.464,3.063 3.683,3.684 5.98,2.145 1.988,-1.383 3.84,-4.282 5.066,-9.5"
         style="fill:#1b3e6c;fill-opacity:1;fill-rule:nonzero;stroke:none"
         transform="scale(1.3333333)"
         clip-path="url(#clipPath143)"
         id="path144" />
    </g>
    <g
       id="g573"
       transform="translate(95.32163,-1071.1032)"
       inkscape:label="dog-icon"
       style="display:none"
       sodipodi:insensitive="true">
      <g
         id="g427">
        <path
           d="m 226.988,1265.707 c -0.156,6.469 1.7,7.961 4.75,12.977 0.903,2.398 -0.539,9.097 -3.101,9.906 l -1.024,0.187 c -1.058,0.125 -3.058,1.797 -1.754,2.731 -0.035,-1.438 1.258,-2.43 2.641,-1.832 -2.414,0.144 -2.758,2.789 0.035,2.383 -0.523,-1.555 1.238,-2.899 2.66,-2.289 -1.187,0 -2.648,1.128 -1.75,2.351 1.141,0.344 2.821,-0.129 3.45,-1.211 0.394,-0.953 0.64,-2.918 0.921,-3.93 0.594,-2.687 2.106,-5.093 2.911,-7.683 -1.039,-3.473 -2.731,-5.899 -0.907,-9.695 0.438,-0.926 1.086,-1.704 1.953,-2.254 l -0.785,-5.586 c -3.828,-1.965 -7.484,1.336 -10,3.945"
           style="fill:#110f0d;fill-opacity:1;fill-rule:nonzero;stroke:none"
           transform="scale(1.3333333)"
           clip-path="url(#clipPath426)"
           id="path427" />
      </g>
      <g
         id="g429">
        <path
           d="m 182.535,1231.988 c -0.531,-0.273 -1.351,-0.203 -1.941,-0.222 l -0.047,0.093 c 0.641,0.149 1.32,0.243 1.973,0.235 z"
           style="fill:#110f0d;fill-opacity:1;fill-rule:nonzero;stroke:none"
           transform="scale(1.3333333)"
           clip-path="url(#clipPath428)"
           id="path429" />
      </g>
      <g
         id="g431">
        <path
           d="m 191.594,1225.914 c -0.735,0.27 -0.262,1.906 0.492,1.285 0.129,-0.422 0.066,-1.238 -0.492,-1.285"
           style="fill:#110f0d;fill-opacity:1;fill-rule:nonzero;stroke:none"
           transform="scale(1.3333333)"
           clip-path="url(#clipPath430)"
           id="path431" />
      </g>
      <g
         id="g433">
        <path
           d="m 200.855,1294.102 c 0.965,-2.375 -1.089,-4.75 1.758,-6.579 -0.816,-2.031 -0.902,-4.199 -0.593,-6.343 l 0.578,-7.965 c -3.149,-1.082 -5.953,-2.77 -8.239,-5.207 0.414,2.265 1.703,4.18 2.426,6.347 1.188,3.586 1.617,7.442 1.695,11.207 0.266,3.18 -0.425,6.028 -3.941,6.7 -0.863,0.465 -2.051,2.633 -0.496,2.968 l 0.055,-0.054 c -0.254,-1.524 1,-3.082 2.617,-2.641 -1.965,0.574 -3.16,3.371 -0.125,3.012 -0.426,-1.414 1.098,-3.25 2.57,-2.469 -1.191,0.152 -2.551,1.473 -1.652,2.652 1.121,0.133 2.715,-0.707 3.347,-1.628"
           style="fill:#110f0d;fill-opacity:1;fill-rule:nonzero;stroke:none"
           transform="scale(1.3333333)"
           clip-path="url(#clipPath432)"
           id="path433" />
      </g>
      <g
         id="g435">
        <path
           d="m 267.203,1246.922 -0.015,-0.039 c 3.765,-1.301 5.195,-5.895 4.535,-9.531 -0.414,1.64 -1.18,3.316 -2.598,4.328 l -0.016,-0.051 c 2.621,-2.367 3.008,-6.774 1.375,-9.809 -0.152,1.539 -0.296,3.184 -1.289,4.442 1.075,-2.223 0.871,-4.645 0.559,-7.012 -0.367,-2.008 -0.293,-4.133 0.953,-5.836 -10.191,5.609 -1.613,14.195 -6.125,21.727 -3.418,5.632 -11.121,5.722 -15.77,1.562 1.286,1.844 2.047,3.953 2.676,6.094 1.422,1.719 3.778,2.742 6.028,2.519 -1.383,-0.507 -2.614,-1.328 -3.215,-2.718 2.492,2.543 6.426,3.257 9.441,1.191 -1.512,0.016 -2.898,-0.137 -4.25,-0.859 3.113,0.769 7.051,0.371 8.731,-2.77 -1.52,0.789 -3.157,0.953 -4.817,0.613 3.93,0.344 7.52,-2.757 7.766,-6.691 -0.902,1.445 -2.277,2.508 -3.969,2.84"
           style="fill:#110f0d;fill-opacity:1;fill-rule:nonzero;stroke:none"
           transform="scale(1.3333333)"
           clip-path="url(#clipPath434)"
           id="path435" />
      </g>
      <g
         id="g437">
        <path
           d="m 181.629,1236.395 c 0.074,-0.68 -0.188,-1.516 -0.117,-2.219 -1.324,-0.321 -1.953,-1.535 -2.332,-2.731 -0.282,1.219 -0.305,2.996 0.398,4.082 0.414,0.657 1.277,1.161 2.051,0.868"
           style="fill:#110f0d;fill-opacity:1;fill-rule:nonzero;stroke:none"
           transform="scale(1.3333333)"
           clip-path="url(#clipPath436)"
           id="path437" />
      </g>
      <g
         id="g439">
        <path
           d="m 184.77,1226.684 c 0.285,-0.325 0.218,-1.059 -0.192,-1.258 l -0.168,0.023 c -0.297,0.348 -0.285,1.363 0.36,1.235"
           style="fill:#110f0d;fill-opacity:1;fill-rule:nonzero;stroke:none"
           transform="scale(1.3333333)"
           clip-path="url(#clipPath438)"
           id="path439" />
      </g>
      <g
         id="g441">
        <path
           d="m 199.223,1225.805 c 2,-1.625 4.468,-3.153 5.922,-5.325 2,-2.808 -2.11,-2.316 -4.457,-4.71 -3.934,-3.762 -5.114,-0.383 -5.504,3.5 -0.145,2.785 -0.563,10.75 4.039,6.535"
           style="fill:#110f0d;fill-opacity:1;fill-rule:nonzero;stroke:none"
           transform="scale(1.3333333)"
           clip-path="url(#clipPath440)"
           id="path441" />
      </g>
      <g
         id="g443">
        <path
           d="m 182.043,1220.918 c 2.566,-2.734 2.602,-3.758 6.551,-5.086 -1.051,-1.191 -2.547,-2.09 -4.114,-2.387 -2.285,-0.023 -2.406,4.356 -3.644,5.879 -0.492,0.977 -1.606,1.938 -2.016,2.953 1.094,0.102 2.395,-0.664 3.223,-1.359"
           style="fill:#110f0d;fill-opacity:1;fill-rule:nonzero;stroke:none"
           transform="scale(1.3333333)"
           clip-path="url(#clipPath442)"
           id="path443" />
      </g>
      <g
         id="g445">
        <path
           d="m 189.434,1222.77 c 0.324,-1.024 1.296,-1.86 2.414,-1.579 1.32,0.313 1.769,1.731 2.398,2.762 -1.445,-1.566 -2.816,-3.047 -4.812,-1.183 m 0.683,5.859 c -1.558,-1.055 -0.351,-4.594 1.629,-3.543 1.899,1.187 0.625,4.75 -1.629,3.543 m -7.316,-5.473 c 0.23,-0.988 0.855,-2.597 2.172,-2.074 0.5,0.293 0.675,0.832 0.828,1.356 -1.324,-1.387 -1.949,-0.016 -3,0.718 m 66.105,47.282 c 0.59,-2.5 1.817,-4.825 2.262,-7.376 2.637,-11.328 -5.59,-24.535 -18.008,-23.718 -8.699,-0.106 -17.305,5.183 -24.972,-1.84 0.113,0.734 0.23,1.527 0.207,2.266 -0.77,-1.489 -1.063,-3.141 -1.512,-4.743 -0.738,-2.281 -2.11,-4.402 -3.496,-6.328 0.175,7.16 -4.344,14.016 -10.891,16.856 l -0.019,-0.035 c 7.496,-4.082 12.007,-12.754 9.746,-21.192 -1.625,1.086 -3.485,3.449 -5.59,3.395 -3.27,-0.77 -2.235,-8.918 -1.649,-11.356 -4.976,-1.371 -11.824,1.227 -12.425,6.891 l 0.105,0.043 c -0.898,1.312 -0.578,3.707 0.039,5.125 l 0.902,-0.645 c -1.628,-0.797 -0.503,-4.273 1.215,-2.906 1.852,2.93 -2.75,4.367 -4.398,5.965 1.168,0.086 3.223,-0.188 3.785,1.066 -0.23,1.035 -1.375,1.942 -2.371,2.239 -0.676,4.558 6.094,3.023 7.836,0.773 1.117,-1.746 1.691,-2.672 3.39,-0.797 -1.617,-1.039 -2.593,0.695 -3.539,1.738 -2.046,1.774 -5.211,2.438 -7.632,1.079 -0.161,0.035 -0.719,0.21 -0.895,0.261 -0.301,0.668 0.871,1.137 1.332,1.356 3.305,1.629 6.086,-0.918 9.133,-1.762 4.957,-0.07 7.867,0.391 8.437,-5.691 0.118,5.738 -2.886,6.488 -7.933,6.168 -1.649,0.402 -3.356,1.214 -4.789,2.128 0.851,2.301 2.359,4.309 4.125,5.989 l -0.047,0.023 c -1.418,-1.16 -2.762,-2.578 -3.703,-4.156 0.289,5.418 2.023,11.336 6.57,14.672 5.625,-2.754 10.086,-7.582 12.891,-13.137 l 0.031,0.055 c -2.383,5.804 -6.852,11.023 -12.891,13.152 -2.324,-1.336 -4.047,-3.406 -5.191,-5.824 -0.395,9.402 4.043,18.933 13.344,22.187 -2.305,-3.363 -3.371,-7.636 -2.825,-11.683 0.09,11.422 6.208,9.699 5.848,21.937 -0.027,2.641 0.317,6.715 -0.129,9.297 -0.301,2.918 -3.465,2.942 -4.695,5.09 -0.527,0.871 -0.106,1.887 0.941,1.969 -0.289,-1.524 0.996,-3.985 2.75,-2.887 -2.496,0.01 -2.953,4.356 0.09,3.484 -0.961,-1.441 0.453,-3.652 2.192,-3.019 -1.223,0.277 -2.539,1.781 -1.34,2.859 4.093,-0.551 2.691,-2.586 3.269,-5.586 0.094,-0.933 0.836,-1.765 1.289,-2.48 -0.554,-3.621 -0.164,-7.313 0.895,-10.817 0.656,-2.312 1.691,-4.691 1.176,-7.14 -0.297,-1.16 -0.743,-2.414 -0.239,-3.582 1.141,-2.356 2.493,-4.969 3.176,-7.531 -0.242,1.925 -0.887,3.828 -1.637,5.613 -0.734,1.441 -1.437,3.008 -0.793,4.605 13.051,-0.843 16.707,-15.023 24.719,-11.488 -0.289,-3.828 -3.715,-6.348 -7.375,-6.535 10.625,-0.266 6.778,11.918 10.828,18.152 2.547,4.692 6.848,4.418 6.555,10.953 -0.121,2.696 -0.73,5.75 -2.418,7.918 -1.109,0.918 -2.98,0.332 -3.711,1.875 -0.516,0.844 -0.535,2.078 0.609,2.344 -0.355,-1.578 0.879,-3.008 2.516,-2.703 -2.262,0.535 -2.91,3.637 0.137,2.949 -0.547,-1.555 0.926,-3.125 2.504,-2.555 -1.188,0.055 -2.668,1.52 -1.539,2.555 1.152,0.379 2.629,-0.25 3.152,-1.355 0.629,-1.43 0.602,-3.559 1.004,-5.071 0.426,-2.257 1.375,-4.691 2.195,-6.851 2.27,-4.875 -3.894,-4.5 -2.543,-12.238"
           style="fill:#110f0d;fill-opacity:1;fill-rule:nonzero;stroke:none"
           transform="scale(1.3333333)"
           clip-path="url(#clipPath444)"
           id="path445" />
      </g>
    </g>
    <g
       inkscape:label="search-icon"
       inkscape:groupmode="layer"
       id="layer1-5"
       transform="matrix(3.7795276,0,0,3.7795276,-10.97836,31.87796)"
       style="display:none"
       sodipodi:insensitive="true">
      <g
         id="g540"
         transform="matrix(0.26458333,0,0,0.26458333,-297.32357,87.546038)"
         style="fill:#223b6c;fill-opacity:1">
        <path
           d="m 1145.027,183.414 c 1.567,0 2.903,-0.543 3.993,-1.633 1.101,-1.09 1.656,-2.41 1.656,-3.949 0,-1.539 -0.555,-2.859 -1.656,-3.949 -1.09,-1.09 -2.426,-1.633 -3.993,-1.633 -1.582,0 -2.929,0.543 -4.035,1.633 -1.105,1.09 -1.66,2.41 -1.66,3.949 0,1.539 0.555,2.859 1.66,3.949 1.106,1.09 2.453,1.633 4.035,1.633 m 12.309,7.965 -7.711,-7.59 c -0.594,0.492 -1.285,0.879 -2.074,1.16 -0.789,0.278 -1.621,0.418 -2.508,0.418 -2.152,0 -3.969,-0.734 -5.457,-2.199 -1.488,-1.469 -2.234,-3.246 -2.234,-5.336 0,-2.086 0.746,-3.867 2.234,-5.336 1.492,-1.465 3.297,-2.199 5.422,-2.199 2.133,0 3.933,0.734 5.418,2.199 1.488,1.469 2.222,3.25 2.222,5.34 0,0.844 -0.132,1.652 -0.41,2.426 -0.277,0.777 -0.683,1.484 -1.207,2.14 l 7.731,7.575 z"
           style="fill:#223b6c;fill-opacity:1;fill-rule:nonzero;stroke:none"
           transform="scale(1.3333333)"
           clip-path="url(#clipPath539)"
           id="path540" />
      </g>
    </g>
    <path
       id="path516"
       d="m 379.17731,568.88004 33.96399,33.08942 -35.15199,36.3224"
       style="display:none;fill:none;stroke:#bdbdb8;stroke-width:1.428;stroke-linecap:round;stroke-linejoin:miter;stroke-miterlimit:10;stroke-dasharray:none;stroke-opacity:0.211765"
       inkscape:label="breadcrumb-divider-icon"
       inkscape:export-filename="../paradigm-pet-professionals-prototype/img/svg/breadcrumb-divider-icon.svg"
       inkscape:export-xdpi="96"
       inkscape:export-ydpi="96"
       sodipodi:insensitive="true" />
  </g>
</svg>
