<?xml version="1.0" encoding="UTF-8" standalone="no"?>
<!-- Created with Inkscape (http://www.inkscape.org/) -->

<svg
   width="127.92799"
   height="121.52533"
   viewBox="0 0 127.92799 121.52533"
   version="1.1"
   id="svg1"
   inkscape:export-filename="bird-icon.svg"
   inkscape:export-xdpi="96"
   inkscape:export-ydpi="96"
   xmlns:inkscape="http://www.inkscape.org/namespaces/inkscape"
   xmlns:sodipodi="http://sodipodi.sourceforge.net/DTD/sodipodi-0.dtd"
   xmlns="http://www.w3.org/2000/svg"
   xmlns:svg="http://www.w3.org/2000/svg">
  <sodipodi:namedview
     id="namedview1"
     pagecolor="#ffffff"
     bordercolor="#000000"
     borderopacity="1"
     inkscape:showpageshadow="false"
     inkscape:pageopacity="0"
     inkscape:pagecheckerboard="0"
     inkscape:deskcolor="#565656"
     inkscape:document-units="px"
     inkscape:zoom="0.4944234"
     inkscape:cx="48.541392"
     inkscape:cy="27.304533"
     inkscape:window-width="1600"
     inkscape:window-height="773"
     inkscape:window-x="0"
     inkscape:window-y="0"
     inkscape:window-maximized="1"
     inkscape:current-layer="layer1" />
  <defs
     id="defs1">
    <clipPath
       clipPathUnits="userSpaceOnUse"
       id="clipPath143">
      <path
         d="M 0,0 H 1921 V 2242 H 0 Z"
         id="path143" />
    </clipPath>
  </defs>
  <g
     inkscape:label="Layer 1"
     inkscape:groupmode="layer"
     id="layer1"
     transform="translate(-331.74829,-542.82329)">
    <g
       id="g144"
       transform="translate(-1599.293,-1069.458)">
      <path
         d="m 1505.457,1288.715 c -0.914,-1.539 1.231,-3.063 2.301,-1.539 l 0.918,1.383 c 1.066,1.539 -1.231,3.054 -2.145,1.539 z m -16.242,-27.57 c 0,-1.833 2.609,-1.833 2.609,0 v 0.156 c 0,1.824 -2.609,1.824 -2.609,0 z m 0,-5.2 c 0,-1.691 2.609,-1.691 2.609,0 v 0.309 c 0,1.691 -2.609,1.691 -2.609,0 z m 3.836,4.125 c -1.832,0 -1.832,-2.761 0,-2.761 h 0.156 c 1.691,0 1.691,2.761 0,2.761 z m -5.223,0 c -1.691,0 -1.691,-2.761 0,-2.761 h 0.313 c 1.691,0 1.691,2.761 0,2.761 z m -36.625,-26.656 c -1.383,6.137 0.156,12.563 2.902,18.07 2.149,-0.312 4.758,0.602 6.141,2.297 l 9.348,11.801 c 0.156,-1.227 0.761,-2.457 1.695,-3.371 2.301,-1.832 4.441,0 6.586,1.074 3.996,2.297 6.289,3.68 10.73,4.281 9.04,1.387 12.415,7.047 17.165,13.633 l 1.23,-0.761 c 0.602,-0.309 1.379,-0.153 1.832,0.312 l 5.356,7.359 1.226,-1.07 c 0.156,-5.98 -2.609,-13.336 -9.664,-13.633 -3.832,0.156 -6.426,-1.539 -9.188,-4.129 -0.472,-0.461 -0.472,-1.375 0,-1.828 1.067,-1.226 1.833,-3.062 2.61,-5.058 1.379,-3.368 2.605,-6.743 6.285,-7.969 1.074,-1.828 1.231,-2.902 1.387,-4.438 0,-0.761 0.308,-1.832 1.535,-1.691 3.059,0.465 5.363,1.984 6.43,4.902 0.761,0.157 1.543,0.313 2.3,0.465 -0.918,-3.832 -3.839,-7.043 -7.968,-6.734 -15.641,1.226 -16.09,-8.278 -16.246,-11.953 0,-0.762 0.156,-1.387 0.914,-1.539 4.75,-1.696 9.043,-3.524 12.414,-7.204 2.14,-2.296 4.441,-4.285 7.519,-5.062 7.516,-1.832 18.074,1.828 21.754,8.879 2.766,5.512 4.445,12.25 7.816,17.465 0.606,-2.766 0.915,-5.352 0.915,-8.121 -0.465,-10.262 -6.289,-19.297 -15.938,-23.286 -13.187,-5.355 -28.203,0.161 -33.719,13.633 -0.761,1.539 -2.3,0.754 -2.457,0 -3.211,-8.726 -10.73,-13.472 -19.769,-13.183 v 2.297 h 8.726 c 1.989,0 3.528,1.535 3.528,3.523 v 7.52 c 0,1.828 -1.539,3.519 -3.528,3.519 h -8.726 v 8.731 c 0,1.828 -1.539,3.519 -3.528,3.519 h -7.363 c -1.988,0 -3.523,-1.691 -3.523,-3.519 v -8.731 z m -2.922,-11.039 v 7.52 c 0,0.312 0.469,0.757 0.918,0.757 h 9.957 c 0.762,0 1.383,0.602 1.383,1.383 v 10.11 c 0,0.46 0.465,0.753 0.914,0.753 h 7.363 c 0.465,0 0.914,-0.312 0.914,-0.753 v -10.11 c 0,-0.758 0.469,-1.383 1.231,-1.383 h 10.109 c 0.465,0 0.914,-0.464 0.914,-0.757 v -7.52 c 0,-0.465 -0.461,-0.758 -0.914,-0.758 h -9.957 c -0.758,0 -1.383,-0.605 -1.383,-1.383 v -10.105 c 0,-0.465 -0.464,-0.918 -0.914,-0.918 h -7.363 c -0.469,0 -0.914,0.465 -0.914,0.918 v 10.105 c 0,0.758 -0.605,1.383 -1.383,1.383 h -9.957 c -0.449,0 -0.918,0.309 -0.918,0.758 m 61.774,7.363 c 0,-1.691 2.769,-1.691 2.769,0 v 0.157 c 0,1.691 -2.769,1.691 -2.769,0 z m -5.059,30.797 c 1.828,0 1.828,2.766 0,2.766 -1.68,-0.016 -1.68,-2.766 0,-2.766 m -7.66,39.82 c 4.598,-2.761 9.664,-6.289 14.867,-10.57 l -4.91,-6.289 -15.023,9.813 z m -4.441,-10.707 10.73,-6.894 c -4.285,-5.816 -7.516,-11.336 -15.332,-12.402 -5.066,-0.758 -7.512,-2.145 -11.801,-4.754 -0.762,-0.309 -2.769,-1.828 -3.371,-1.223 -1.988,1.535 -0.762,5.977 1.539,7.199 l 5.824,3.371 c 1.539,0.758 0.153,3.215 -1.382,2.301 -1.836,-1.074 -6.743,-3.523 -7.813,-5.062 l -13.031,-16.707 c -1.078,-1.223 -4.133,-1.989 -5.223,-0.313 3.684,6.43 8.281,12.559 12.117,19.004 l 12.875,10.887 c 3.684,2.293 6.297,2.605 8.438,2.757 2.14,0.141 4.129,0.297 6.43,1.836 m -19.934,-34.171 c 0,-1.832 2.769,-1.832 2.769,0 v 0.152 c 0,1.836 -2.769,1.836 -2.769,0 z m 0,-5.063 c 0,-1.828 2.769,-1.828 2.769,0 v 0.16 c 0,1.828 -2.769,1.828 -2.769,0 z m 3.844,3.988 c -1.836,0 -1.836,-2.761 0,-2.761 h 0.152 c 1.836,0 1.836,2.761 0,2.761 z m -5.067,0 c -1.832,0 -1.832,-2.761 0,-2.761 h 0.153 c 1.699,0 1.699,2.761 0,2.761 z m 12.274,-8.738 c 0,-1.832 2.605,-1.832 2.605,0 v 0.313 c 0,1.691 -2.605,1.691 -2.605,0 z m 0,-7.184 c 0,-1.832 2.605,-1.832 2.605,0 v 0.305 c 0,1.695 -2.605,1.695 -2.605,0 z m 4.734,5.043 c -1.691,0 -1.691,-2.765 0,-2.765 h 0.309 c 1.836,0 1.836,2.765 0,2.765 z m -7.191,0 c -1.832,0 -1.832,-2.765 0,-2.765 h 0.316 c 1.688,0 1.688,2.765 0,2.765 z m 36.468,41.215 c 10.735,-9.808 20.536,-21.902 24.375,-33.855 -3.062,-3.992 -4.91,-8.883 -6.742,-13.637 -1.383,3.992 -3.218,6.434 -5.222,7.656 -3.989,2.766 -9.352,1.227 -10.114,-3.832 -0.601,-3.836 3.063,-15.328 1.383,-17.312 -2.601,-0.465 -5.215,-0.465 -7.363,0 -2.449,0.605 -4.442,2.453 -6.133,4.289 -3.523,3.832 -7.812,5.816 -12.566,7.512 0.156,3.367 1.382,9.5 13.191,8.722 6.133,-0.465 10.418,4.438 11.043,10.11 3.215,0.914 5.512,2.293 7.813,3.371 2.14,1.218 4.128,2.297 6.292,2.605 1.692,0.309 1.379,2.918 -0.464,2.61 -2.454,-0.317 -4.602,-1.539 -7.055,-2.77 -3.215,-1.691 -7.055,-3.676 -12.719,-4.434 -0.609,0 -1.078,-0.468 -1.23,-0.918 -0.606,-1.988 -1.227,-2.902 -3.059,-3.527 -0.312,1.383 -0.605,2.906 -1.836,4.906 -0.308,0.313 -0.465,0.61 -0.914,0.61 -2.765,0.758 -3.836,3.676 -5.062,6.578 -0.606,1.691 -1.227,3.367 -2.145,4.754 1.539,1.379 3.84,2.605 6.137,2.605 7.793,-0.136 11.789,7.063 12.39,13.957 m 15.957,-51.476 c -0.312,-0.606 -0.605,-1.227 -0.918,-1.985 -1.535,-3.058 -4.753,-5.359 -8.433,-6.589 0.758,5.222 -2.301,11.96 -1.695,15.929 0.464,3.063 3.683,3.684 5.98,2.145 1.988,-1.383 3.84,-4.282 5.066,-9.5"
         style="fill:#ffffff;fill-opacity:1;fill-rule:nonzero;stroke:none"
         transform="scale(1.3333333)"
         clip-path="url(#clipPath143)"
         id="path144" />
    </g>
  </g>
</svg>
